%TF.GenerationSoftware,KiCad,Pcbnew,9.0.7*%
%TF.CreationDate,2026-03-11T18:15:50+05:30*%
%TF.ProjectId,dragonfly_v0-1_Ribs,64726167-6f6e-4666-9c79-5f76302d315f,rev?*%
%TF.SameCoordinates,Original*%
%TF.FileFunction,Legend,Bot*%
%TF.FilePolarity,Positive*%
%FSLAX46Y46*%
G04 Gerber Fmt 4.6, Leading zero omitted, Abs format (unit mm)*
G04 Created by KiCad (PCBNEW 9.0.7) date 2026-03-11 18:15:50*
%MOMM*%
%LPD*%
G01*
G04 APERTURE LIST*
%ADD10C,0.120000*%
%ADD11C,0.000000*%
G04 APERTURE END LIST*
D10*
X158797631Y-71751795D02*
X158797631Y-71466081D01*
X158797631Y-71466081D02*
X158197631Y-71466081D01*
X158197631Y-71894652D02*
X158197631Y-72266080D01*
X158197631Y-72266080D02*
X158426202Y-72066080D01*
X158426202Y-72066080D02*
X158426202Y-72151795D01*
X158426202Y-72151795D02*
X158454774Y-72208938D01*
X158454774Y-72208938D02*
X158483345Y-72237509D01*
X158483345Y-72237509D02*
X158540488Y-72266080D01*
X158540488Y-72266080D02*
X158683345Y-72266080D01*
X158683345Y-72266080D02*
X158740488Y-72237509D01*
X158740488Y-72237509D02*
X158769060Y-72208938D01*
X158769060Y-72208938D02*
X158797631Y-72151795D01*
X158797631Y-72151795D02*
X158797631Y-71980366D01*
X158797631Y-71980366D02*
X158769060Y-71923223D01*
X158769060Y-71923223D02*
X158740488Y-71894652D01*
D11*
%TO.C,G\u002A\u002A\u002A*%
G36*
X141155811Y-46059466D02*
G01*
X141173210Y-46070658D01*
X141184132Y-46094908D01*
X141189466Y-46136244D01*
X141190104Y-46198693D01*
X141186935Y-46286282D01*
X141186487Y-46295676D01*
X141182675Y-46367327D01*
X141178769Y-46428267D01*
X141175203Y-46472303D01*
X141172411Y-46493244D01*
X141169121Y-46499735D01*
X141147454Y-46510733D01*
X141120132Y-46506621D01*
X141101457Y-46488381D01*
X141101375Y-46488159D01*
X141097949Y-46464507D01*
X141095147Y-46418272D01*
X141093255Y-46356038D01*
X141092561Y-46284386D01*
X141093053Y-46203613D01*
X141095200Y-46139874D01*
X141099803Y-46097501D01*
X141107656Y-46072358D01*
X141119558Y-46060306D01*
X141136304Y-46057208D01*
X141155811Y-46059466D01*
G37*
G36*
X147283171Y-43649495D02*
G01*
X147330010Y-43652823D01*
X147358269Y-43661185D01*
X147375281Y-43676221D01*
X147377243Y-43678989D01*
X147386499Y-43704391D01*
X147372200Y-43721541D01*
X147332597Y-43731377D01*
X147265938Y-43734837D01*
X147217580Y-43737658D01*
X147122409Y-43760951D01*
X147045478Y-43806379D01*
X146988441Y-43872297D01*
X146952948Y-43957058D01*
X146940652Y-44059016D01*
X146940326Y-44071014D01*
X146934179Y-44108915D01*
X146922249Y-44127478D01*
X146915027Y-44130400D01*
X146901311Y-44136028D01*
X146894799Y-44131837D01*
X146875662Y-44114153D01*
X146873496Y-44111854D01*
X146855830Y-44072164D01*
X146853780Y-44016349D01*
X146865564Y-43951220D01*
X146889403Y-43883588D01*
X146923517Y-43820265D01*
X146966125Y-43768061D01*
X146985575Y-43750145D01*
X147067249Y-43692078D01*
X147154409Y-43659426D01*
X147254286Y-43649204D01*
X147283171Y-43649495D01*
G37*
G36*
X139368307Y-43812514D02*
G01*
X139350388Y-43868600D01*
X139308738Y-43917106D01*
X139273724Y-43936107D01*
X139209179Y-43946648D01*
X139208104Y-43946646D01*
X139140402Y-43933720D01*
X139088745Y-43896889D01*
X139055696Y-43837970D01*
X139047355Y-43789263D01*
X139050757Y-43771247D01*
X139132048Y-43771247D01*
X139132068Y-43811862D01*
X139155371Y-43849108D01*
X139184072Y-43867176D01*
X139227132Y-43870300D01*
X139265534Y-43846562D01*
X139273683Y-43836228D01*
X139288311Y-43794376D01*
X139280119Y-43754218D01*
X139252583Y-43724043D01*
X139209179Y-43712142D01*
X139188159Y-43714774D01*
X139151887Y-43735979D01*
X139132048Y-43771247D01*
X139050757Y-43771247D01*
X139058794Y-43728692D01*
X139092259Y-43678463D01*
X139143584Y-43644201D01*
X139208603Y-43631530D01*
X139245909Y-43635645D01*
X139301297Y-43660413D01*
X139341600Y-43702256D01*
X139364657Y-43755011D01*
X139367156Y-43794376D01*
X139368307Y-43812514D01*
G37*
G36*
X139363371Y-47089605D02*
G01*
X139345800Y-47126650D01*
X139306581Y-47174619D01*
X139260478Y-47205406D01*
X139219251Y-47212454D01*
X139163501Y-47200782D01*
X139110866Y-47170749D01*
X139069322Y-47127220D01*
X139046841Y-47075060D01*
X139046075Y-47067328D01*
X139132189Y-47067328D01*
X139151599Y-47104113D01*
X139167432Y-47116187D01*
X139207582Y-47125576D01*
X139247306Y-47114085D01*
X139277683Y-47085594D01*
X139289791Y-47043986D01*
X139289790Y-47043754D01*
X139276847Y-47007236D01*
X139245547Y-46977931D01*
X139206633Y-46965921D01*
X139188438Y-46968423D01*
X139154363Y-46990054D01*
X139134362Y-47026165D01*
X139132189Y-47067328D01*
X139046075Y-47067328D01*
X139044488Y-47051321D01*
X139056318Y-46991190D01*
X139089711Y-46939237D01*
X139139087Y-46902351D01*
X139198865Y-46887422D01*
X139258733Y-46896604D01*
X139312543Y-46927015D01*
X139351018Y-46973127D01*
X139369510Y-47029227D01*
X139368009Y-47043986D01*
X139363371Y-47089605D01*
G37*
G36*
X143254879Y-43814234D02*
G01*
X143236386Y-43870227D01*
X143196857Y-43915837D01*
X143137973Y-43944564D01*
X143096854Y-43949404D01*
X143049654Y-43944338D01*
X142997680Y-43920369D01*
X142957284Y-43878756D01*
X142936256Y-43827533D01*
X142935593Y-43812784D01*
X143017323Y-43812784D01*
X143039387Y-43849108D01*
X143068088Y-43867176D01*
X143111148Y-43870300D01*
X143149550Y-43846562D01*
X143157745Y-43836137D01*
X143172196Y-43794451D01*
X143164170Y-43754307D01*
X143137099Y-43724079D01*
X143094420Y-43712142D01*
X143073007Y-43715085D01*
X143037716Y-43736857D01*
X143017960Y-43772396D01*
X143017323Y-43812784D01*
X142935593Y-43812784D01*
X142933783Y-43772535D01*
X142949053Y-43719600D01*
X142981254Y-43674563D01*
X143029572Y-43643261D01*
X143093195Y-43631530D01*
X143131881Y-43633973D01*
X143168972Y-43647708D01*
X143206503Y-43679446D01*
X143222034Y-43697105D01*
X143250655Y-43754359D01*
X143253483Y-43794451D01*
X143254879Y-43814234D01*
G37*
G36*
X143256192Y-47066956D02*
G01*
X143239391Y-47114840D01*
X143201056Y-47166731D01*
X143151822Y-47201784D01*
X143142963Y-47205150D01*
X143087360Y-47209870D01*
X143028491Y-47192807D01*
X142976669Y-47156621D01*
X142963140Y-47141420D01*
X142934728Y-47085324D01*
X142933554Y-47066584D01*
X143016078Y-47066584D01*
X143034820Y-47103317D01*
X143067578Y-47122468D01*
X143112102Y-47124345D01*
X143150775Y-47104113D01*
X143153681Y-47101061D01*
X143172719Y-47061500D01*
X143166259Y-47019924D01*
X143135476Y-46985452D01*
X143114131Y-46972833D01*
X143089157Y-46968584D01*
X143058529Y-46981912D01*
X143046394Y-46990113D01*
X143020610Y-47025398D01*
X143016078Y-47066584D01*
X142933554Y-47066584D01*
X142931022Y-47026189D01*
X142950226Y-46970405D01*
X142990550Y-46924365D01*
X143050200Y-46894460D01*
X143065317Y-46891027D01*
X143125172Y-46893356D01*
X143180340Y-46917265D01*
X143224667Y-46957603D01*
X143252002Y-47009217D01*
X143255796Y-47061500D01*
X143256192Y-47066956D01*
G37*
G36*
X147317860Y-43339464D02*
G01*
X147381347Y-43350308D01*
X147432983Y-43366810D01*
X147468406Y-43387402D01*
X147483250Y-43410517D01*
X147473151Y-43434586D01*
X147471287Y-43436225D01*
X147450416Y-43442865D01*
X147411297Y-43441994D01*
X147348898Y-43433570D01*
X147339234Y-43432087D01*
X147207421Y-43426874D01*
X147080394Y-43448657D01*
X146961915Y-43495515D01*
X146855748Y-43565525D01*
X146765655Y-43656767D01*
X146695398Y-43767317D01*
X146671428Y-43817352D01*
X146654189Y-43861041D01*
X146644671Y-43902227D01*
X146640520Y-43951513D01*
X146639379Y-44019503D01*
X146638849Y-44054287D01*
X146636284Y-44112490D01*
X146632155Y-44156428D01*
X146627043Y-44178580D01*
X146618634Y-44189129D01*
X146598311Y-44194414D01*
X146578532Y-44176615D01*
X146561593Y-44139987D01*
X146549789Y-44088784D01*
X146545414Y-44027260D01*
X146552826Y-43928076D01*
X146585947Y-43797511D01*
X146643284Y-43677877D01*
X146722273Y-43571861D01*
X146820350Y-43482150D01*
X146934950Y-43411431D01*
X147063509Y-43362392D01*
X147203462Y-43337719D01*
X147246889Y-43335846D01*
X147317860Y-43339464D01*
G37*
G36*
X156105825Y-45703554D02*
G01*
X156086769Y-45776418D01*
X156043849Y-45842797D01*
X155977704Y-45897583D01*
X155924077Y-45919979D01*
X155853237Y-45925310D01*
X155782878Y-45908771D01*
X155718569Y-45873596D01*
X155665880Y-45823017D01*
X155630380Y-45760266D01*
X155617637Y-45688576D01*
X155618093Y-45683194D01*
X155704862Y-45683194D01*
X155719722Y-45744094D01*
X155752851Y-45796475D01*
X155801026Y-45831184D01*
X155808009Y-45834037D01*
X155842378Y-45846146D01*
X155862344Y-45850019D01*
X155909727Y-45839596D01*
X155944253Y-45824102D01*
X155974921Y-45798202D01*
X156004982Y-45756785D01*
X156022566Y-45698591D01*
X156019323Y-45639721D01*
X155995934Y-45587902D01*
X155953082Y-45550862D01*
X155932786Y-45542132D01*
X155871494Y-45531586D01*
X155809623Y-45539382D01*
X155756223Y-45563530D01*
X155720347Y-45602040D01*
X155711492Y-45622927D01*
X155704862Y-45683194D01*
X155618093Y-45683194D01*
X155620811Y-45651075D01*
X155646016Y-45575746D01*
X155692457Y-45512748D01*
X155755449Y-45467444D01*
X155830303Y-45445197D01*
X155850103Y-45443312D01*
X155915735Y-45445433D01*
X155970450Y-45465741D01*
X156026375Y-45508128D01*
X156069795Y-45558801D01*
X156100380Y-45629312D01*
X156105461Y-45698591D01*
X156105825Y-45703554D01*
G37*
G36*
X147252707Y-43017970D02*
G01*
X147365348Y-43023695D01*
X147455904Y-43036395D01*
X147522682Y-43055618D01*
X147563989Y-43080910D01*
X147578135Y-43111820D01*
X147577581Y-43122172D01*
X147571225Y-43137675D01*
X147554190Y-43144923D01*
X147522069Y-43144085D01*
X147470451Y-43135328D01*
X147394926Y-43118823D01*
X147338323Y-43108641D01*
X147216813Y-43100920D01*
X147093019Y-43109064D01*
X146980689Y-43132616D01*
X146928154Y-43150367D01*
X146780158Y-43220377D01*
X146645918Y-43314196D01*
X146528593Y-43428900D01*
X146431348Y-43561564D01*
X146357342Y-43709262D01*
X146344842Y-43742089D01*
X146332854Y-43780611D01*
X146324868Y-43820726D01*
X146319952Y-43869365D01*
X146317175Y-43933457D01*
X146315607Y-44019932D01*
X146315195Y-44051277D01*
X146314137Y-44123988D01*
X146313123Y-44183929D01*
X146312249Y-44225586D01*
X146311616Y-44243446D01*
X146311378Y-44244866D01*
X146298099Y-44254428D01*
X146273804Y-44248720D01*
X146249837Y-44230179D01*
X146245885Y-44223984D01*
X146238343Y-44198483D01*
X146233400Y-44155063D01*
X146230732Y-44089942D01*
X146230014Y-43999336D01*
X146230023Y-43993367D01*
X146230552Y-43911449D01*
X146232502Y-43851170D01*
X146236896Y-43805310D01*
X146244757Y-43766645D01*
X146257109Y-43727953D01*
X146274974Y-43682012D01*
X146332433Y-43559797D01*
X146419826Y-43425916D01*
X146531086Y-43301755D01*
X146593064Y-43244928D01*
X146690178Y-43172113D01*
X146796511Y-43113320D01*
X146922085Y-43062413D01*
X146936720Y-43057271D01*
X146992424Y-43039045D01*
X147039847Y-43027356D01*
X147088384Y-43020822D01*
X147147429Y-43018062D01*
X147226375Y-43017697D01*
X147252707Y-43017970D01*
G37*
G36*
X156319215Y-45793836D02*
G01*
X156294216Y-45874000D01*
X156257843Y-45939249D01*
X156182953Y-46026380D01*
X156089006Y-46093424D01*
X155979757Y-46137235D01*
X155965672Y-46140999D01*
X155913529Y-46153365D01*
X155873305Y-46157656D01*
X155831745Y-46154292D01*
X155775596Y-46143693D01*
X155692923Y-46118750D01*
X155598895Y-46065894D01*
X155512751Y-45986720D01*
X155485361Y-45953891D01*
X155432279Y-45865444D01*
X155404486Y-45768616D01*
X155400097Y-45660911D01*
X155479224Y-45660911D01*
X155486771Y-45759076D01*
X155520899Y-45858309D01*
X155523572Y-45863677D01*
X155580418Y-45946553D01*
X155656815Y-46008252D01*
X155754284Y-46050024D01*
X155787795Y-46059262D01*
X155846896Y-46069177D01*
X155903414Y-46066515D01*
X155971922Y-46051364D01*
X156015613Y-46038028D01*
X156051787Y-46021255D01*
X156088479Y-45995672D01*
X156135817Y-45955344D01*
X156136966Y-45954319D01*
X156192629Y-45885815D01*
X156229350Y-45801187D01*
X156245852Y-45707591D01*
X156240857Y-45612188D01*
X156213090Y-45522133D01*
X156205358Y-45506380D01*
X156145998Y-45421228D01*
X156068344Y-45358339D01*
X155974478Y-45319017D01*
X155866479Y-45304570D01*
X155860972Y-45304529D01*
X155758221Y-45317469D01*
X155667999Y-45353996D01*
X155592645Y-45410357D01*
X155534503Y-45482798D01*
X155495915Y-45567567D01*
X155479224Y-45660911D01*
X155400097Y-45660911D01*
X155399958Y-45657497D01*
X155403434Y-45616759D01*
X155426210Y-45518084D01*
X155471202Y-45430540D01*
X155541831Y-45346632D01*
X155596050Y-45299578D01*
X155679970Y-45252657D01*
X155775699Y-45228470D01*
X155888464Y-45225184D01*
X155949722Y-45231447D01*
X156059132Y-45261487D01*
X156152362Y-45315575D01*
X156230621Y-45394524D01*
X156295116Y-45499147D01*
X156306516Y-45526408D01*
X156325391Y-45609085D01*
X156329615Y-45701879D01*
X156328969Y-45707591D01*
X156319215Y-45793836D01*
G37*
G36*
X151085227Y-43619296D02*
G01*
X151062328Y-43662855D01*
X151018787Y-43715652D01*
X150995130Y-43742234D01*
X150951029Y-43792611D01*
X150896348Y-43855674D01*
X150835831Y-43925945D01*
X150774223Y-43997948D01*
X150733973Y-44044803D01*
X150664260Y-44124629D01*
X150594520Y-44203083D01*
X150531030Y-44273127D01*
X150480068Y-44327722D01*
X150452430Y-44357063D01*
X150403604Y-44410117D01*
X150345717Y-44474003D01*
X150281962Y-44545100D01*
X150215530Y-44619791D01*
X150149612Y-44694456D01*
X150087400Y-44765476D01*
X150032086Y-44829233D01*
X149986862Y-44882107D01*
X149954918Y-44920480D01*
X149939446Y-44940732D01*
X149937428Y-44947033D01*
X149948782Y-44972815D01*
X149986236Y-45010157D01*
X150014360Y-45035914D01*
X150062074Y-45084250D01*
X150105879Y-45133204D01*
X150118011Y-45147962D01*
X150148425Y-45190801D01*
X150163382Y-45227538D01*
X150167640Y-45267986D01*
X150167725Y-45268789D01*
X150167454Y-45291084D01*
X150162705Y-45318156D01*
X150148870Y-45343345D01*
X150121598Y-45373683D01*
X150076539Y-45416204D01*
X150063629Y-45427958D01*
X150002589Y-45478152D01*
X149951216Y-45506597D01*
X149904021Y-45512982D01*
X149855516Y-45496994D01*
X149800212Y-45458322D01*
X149732621Y-45396654D01*
X149627645Y-45294864D01*
X149498004Y-45445193D01*
X149488195Y-45456570D01*
X149439093Y-45513558D01*
X149396161Y-45563453D01*
X149363726Y-45601222D01*
X149346115Y-45621833D01*
X149342516Y-45626907D01*
X149340173Y-45636862D01*
X149344366Y-45650549D01*
X149357143Y-45670376D01*
X149380550Y-45698753D01*
X149416632Y-45738089D01*
X149467436Y-45790792D01*
X149535008Y-45859271D01*
X149621394Y-45945936D01*
X149918921Y-46243729D01*
X150060299Y-46200446D01*
X150074074Y-46196215D01*
X150137864Y-46176421D01*
X150221135Y-46150372D01*
X150317321Y-46120131D01*
X150419859Y-46087759D01*
X150522184Y-46055320D01*
X150631834Y-46020679D01*
X150720183Y-45994120D01*
X150788553Y-45976596D01*
X150840973Y-45968195D01*
X150881469Y-45969011D01*
X150914067Y-45979134D01*
X150942794Y-45998655D01*
X150971678Y-46027666D01*
X151004745Y-46066257D01*
X151039255Y-46111529D01*
X151068810Y-46168933D01*
X151070187Y-46187471D01*
X151072212Y-46214741D01*
X151049625Y-46249614D01*
X151044144Y-46253552D01*
X151015389Y-46272086D01*
X150966203Y-46302680D01*
X150899850Y-46343339D01*
X150819591Y-46392070D01*
X150728689Y-46446880D01*
X150630408Y-46505774D01*
X150235315Y-46741819D01*
X149954677Y-47165164D01*
X149924108Y-47211243D01*
X149849023Y-47323802D01*
X149787334Y-47414603D01*
X149737130Y-47485709D01*
X149696494Y-47539184D01*
X149663515Y-47577091D01*
X149636277Y-47601496D01*
X149612867Y-47614460D01*
X149591371Y-47618049D01*
X149569874Y-47614327D01*
X149546464Y-47605356D01*
X149519625Y-47591213D01*
X149469543Y-47555123D01*
X149421990Y-47510977D01*
X149384636Y-47466258D01*
X149365150Y-47428448D01*
X149364085Y-47414630D01*
X149367798Y-47385208D01*
X149377949Y-47340645D01*
X149395239Y-47278454D01*
X149420370Y-47196149D01*
X149454043Y-47091242D01*
X149496960Y-46961247D01*
X149509952Y-46922242D01*
X149547231Y-46809929D01*
X149576187Y-46721430D01*
X149597596Y-46653692D01*
X149612234Y-46603661D01*
X149620876Y-46568284D01*
X149624297Y-46544506D01*
X149623273Y-46529276D01*
X149618579Y-46519539D01*
X149610991Y-46512242D01*
X149610942Y-46512203D01*
X149592551Y-46496750D01*
X149555192Y-46464912D01*
X149502072Y-46419439D01*
X149436396Y-46363077D01*
X149361371Y-46298575D01*
X149280203Y-46228682D01*
X149242192Y-46196053D01*
X149147792Y-46116379D01*
X149071481Y-46054187D01*
X149014084Y-46010118D01*
X148976424Y-45984812D01*
X148959326Y-45978913D01*
X148957597Y-45980056D01*
X148936234Y-45996160D01*
X148897966Y-46026305D01*
X148847635Y-46066645D01*
X148790082Y-46113336D01*
X148638960Y-46236630D01*
X148672813Y-46275165D01*
X148674023Y-46276540D01*
X148701893Y-46307613D01*
X148741125Y-46350690D01*
X148783629Y-46396888D01*
X148817106Y-46434459D01*
X148844159Y-46471195D01*
X148857208Y-46502082D01*
X148860212Y-46531211D01*
X148860593Y-46534904D01*
X148860322Y-46546115D01*
X148855403Y-46573905D01*
X148841098Y-46601517D01*
X148813267Y-46635540D01*
X148767767Y-46682559D01*
X148727495Y-46722161D01*
X148693797Y-46751609D01*
X148666905Y-46767556D01*
X148639597Y-46774112D01*
X148604657Y-46775385D01*
X148577481Y-46774775D01*
X148552366Y-46770595D01*
X148528069Y-46759425D01*
X148499184Y-46737847D01*
X148460309Y-46702446D01*
X148406039Y-46649805D01*
X148277707Y-46524224D01*
X148072555Y-46690110D01*
X148047244Y-46710618D01*
X147981432Y-46764151D01*
X147898382Y-46831905D01*
X147801691Y-46910940D01*
X147694952Y-46998312D01*
X147581762Y-47091081D01*
X147465714Y-47186304D01*
X147350404Y-47281040D01*
X147263764Y-47352165D01*
X147161515Y-47435827D01*
X147067363Y-47512562D01*
X146983728Y-47580413D01*
X146913026Y-47637427D01*
X146857678Y-47681647D01*
X146820100Y-47711118D01*
X146802711Y-47723884D01*
X146802092Y-47724242D01*
X146761613Y-47739899D01*
X146720253Y-47738186D01*
X146674140Y-47717368D01*
X146619402Y-47675706D01*
X146552168Y-47611463D01*
X146528248Y-47586844D01*
X146493898Y-47548561D01*
X146474596Y-47519368D01*
X146466116Y-47491932D01*
X146464273Y-47459708D01*
X146544840Y-47459708D01*
X146545522Y-47463863D01*
X146560124Y-47490510D01*
X146589851Y-47528472D01*
X146629541Y-47570968D01*
X146640954Y-47582071D01*
X146682120Y-47619046D01*
X146715869Y-47644858D01*
X146735802Y-47654476D01*
X146740252Y-47653639D01*
X146753596Y-47647345D01*
X146774843Y-47633807D01*
X146805615Y-47611743D01*
X146847537Y-47579871D01*
X146902229Y-47536910D01*
X146971316Y-47481578D01*
X147056419Y-47412593D01*
X147159162Y-47328673D01*
X147281168Y-47228538D01*
X147424058Y-47110905D01*
X147424065Y-47110900D01*
X147483165Y-47062199D01*
X147534871Y-47019617D01*
X147581700Y-46981107D01*
X147626166Y-46944624D01*
X147670785Y-46908122D01*
X147718072Y-46869554D01*
X147770543Y-46826875D01*
X147830712Y-46778038D01*
X147901097Y-46720998D01*
X147984212Y-46653708D01*
X148082572Y-46574122D01*
X148198693Y-46480195D01*
X148206714Y-46473708D01*
X148362266Y-46473708D01*
X148367178Y-46483891D01*
X148389373Y-46512031D01*
X148425361Y-46551455D01*
X148470629Y-46597028D01*
X148503749Y-46628561D01*
X148545556Y-46666520D01*
X148576628Y-46692482D01*
X148591950Y-46702101D01*
X148613212Y-46696232D01*
X148651385Y-46672791D01*
X148693625Y-46637750D01*
X148732723Y-46597927D01*
X148761469Y-46560142D01*
X148772653Y-46531211D01*
X148765611Y-46510912D01*
X148742188Y-46474519D01*
X148707722Y-46430693D01*
X148667817Y-46385701D01*
X148628079Y-46345806D01*
X148594112Y-46317274D01*
X148571522Y-46306371D01*
X148558676Y-46310387D01*
X148526654Y-46329171D01*
X148485389Y-46358493D01*
X148441600Y-46392979D01*
X148402004Y-46427259D01*
X148373321Y-46455959D01*
X148362266Y-46473708D01*
X148206714Y-46473708D01*
X148335090Y-46369880D01*
X148378013Y-46335151D01*
X148479783Y-46252693D01*
X148574889Y-46175477D01*
X148660638Y-46105697D01*
X148734341Y-46045548D01*
X148793306Y-45997225D01*
X148834841Y-45962924D01*
X148856257Y-45944837D01*
X148903218Y-45903313D01*
X148636615Y-45680367D01*
X148370012Y-45457421D01*
X148327841Y-45497159D01*
X148313160Y-45511405D01*
X148271261Y-45553833D01*
X148212788Y-45614479D01*
X148139831Y-45691096D01*
X148111823Y-45720741D01*
X148054480Y-45781436D01*
X147958825Y-45883250D01*
X147854957Y-45994291D01*
X147744964Y-46112311D01*
X147630938Y-46235061D01*
X147514967Y-46360294D01*
X147399143Y-46485761D01*
X147285555Y-46609215D01*
X147176293Y-46728407D01*
X147073447Y-46841090D01*
X146979107Y-46945016D01*
X146895363Y-47037936D01*
X146861959Y-47075173D01*
X146776209Y-47170830D01*
X146707504Y-47247714D01*
X146653955Y-47308099D01*
X146613674Y-47354257D01*
X146584771Y-47388461D01*
X146565360Y-47412983D01*
X146553549Y-47430096D01*
X146547452Y-47442073D01*
X146545178Y-47451186D01*
X146544840Y-47459708D01*
X146464273Y-47459708D01*
X146464228Y-47458919D01*
X146464293Y-47451332D01*
X146466397Y-47426822D01*
X146473643Y-47403312D01*
X146488948Y-47376265D01*
X146515229Y-47341144D01*
X146555405Y-47293415D01*
X146612392Y-47228540D01*
X146666678Y-47167391D01*
X146785456Y-47034479D01*
X146917183Y-46888059D01*
X147057151Y-46733329D01*
X147200652Y-46575487D01*
X147342978Y-46419730D01*
X147479421Y-46271257D01*
X147732468Y-45996794D01*
X147628884Y-45891427D01*
X147616292Y-45878327D01*
X147556755Y-45808376D01*
X147504176Y-45734062D01*
X147462165Y-45661482D01*
X147434334Y-45596735D01*
X147424295Y-45545920D01*
X147424768Y-45541111D01*
X147514754Y-45541111D01*
X147524494Y-45593805D01*
X147553636Y-45657888D01*
X147602569Y-45731226D01*
X147671684Y-45811681D01*
X147707449Y-45848604D01*
X147747525Y-45888269D01*
X147776893Y-45915305D01*
X147790921Y-45925298D01*
X147791767Y-45925154D01*
X147808489Y-45912824D01*
X147837972Y-45884855D01*
X147874628Y-45847257D01*
X147912866Y-45806038D01*
X147947100Y-45767207D01*
X147971738Y-45736771D01*
X147981193Y-45720741D01*
X147978579Y-45713354D01*
X147957726Y-45688021D01*
X147920766Y-45653388D01*
X147873408Y-45614073D01*
X147821360Y-45574697D01*
X147770329Y-45539878D01*
X147726025Y-45514236D01*
X147662002Y-45486941D01*
X147598039Y-45472722D01*
X147551917Y-45478434D01*
X147524025Y-45501942D01*
X147514754Y-45541111D01*
X147424768Y-45541111D01*
X147425970Y-45528908D01*
X147444173Y-45477923D01*
X147476026Y-45429484D01*
X147513542Y-45396929D01*
X147561305Y-45384482D01*
X147627869Y-45389987D01*
X147705202Y-45413420D01*
X147788572Y-45452898D01*
X147873244Y-45506536D01*
X147954485Y-45572451D01*
X148049859Y-45659844D01*
X148114586Y-45591042D01*
X148143463Y-45560278D01*
X148192692Y-45507621D01*
X148235477Y-45461634D01*
X148291642Y-45401028D01*
X148191380Y-45321499D01*
X148181888Y-45314006D01*
X148134144Y-45276849D01*
X148069604Y-45227169D01*
X147993477Y-45168953D01*
X147910972Y-45106187D01*
X147827298Y-45042858D01*
X147782282Y-45008704D01*
X147659428Y-44912904D01*
X147557770Y-44828527D01*
X147474530Y-44752496D01*
X147406927Y-44681737D01*
X147352182Y-44613173D01*
X147307516Y-44543727D01*
X147270150Y-44470324D01*
X147237304Y-44389889D01*
X147217527Y-44319140D01*
X147203777Y-44234493D01*
X147197062Y-44146821D01*
X147197705Y-44099912D01*
X147278614Y-44099912D01*
X147280078Y-44160268D01*
X147287307Y-44228258D01*
X147299961Y-44295843D01*
X147317049Y-44357409D01*
X147354608Y-44450788D01*
X147406936Y-44540732D01*
X147476466Y-44630235D01*
X147565637Y-44722292D01*
X147676883Y-44819897D01*
X147812641Y-44926044D01*
X147835500Y-44943158D01*
X147920291Y-45006709D01*
X147997439Y-45064737D01*
X148068818Y-45118771D01*
X148136305Y-45170341D01*
X148201774Y-45220975D01*
X148267102Y-45272204D01*
X148334165Y-45325557D01*
X148404837Y-45382564D01*
X148480994Y-45444753D01*
X148564513Y-45513654D01*
X148657269Y-45590797D01*
X148761137Y-45677710D01*
X148877993Y-45775925D01*
X149009714Y-45886969D01*
X149029063Y-45903313D01*
X149158174Y-46012372D01*
X149325249Y-46153664D01*
X149512815Y-46312375D01*
X149515166Y-46314364D01*
X149606921Y-46392082D01*
X149678688Y-46453190D01*
X149732824Y-46499935D01*
X149771688Y-46534563D01*
X149797637Y-46559321D01*
X149813029Y-46576456D01*
X149820221Y-46588216D01*
X149821570Y-46596847D01*
X149819435Y-46604595D01*
X149803421Y-46626819D01*
X149772116Y-46635743D01*
X149738246Y-46619909D01*
X149731810Y-46613320D01*
X149725346Y-46606377D01*
X149719543Y-46603301D01*
X149713280Y-46606747D01*
X149705438Y-46619369D01*
X149694896Y-46643823D01*
X149680535Y-46682763D01*
X149661234Y-46738843D01*
X149635874Y-46814718D01*
X149603335Y-46913043D01*
X149562496Y-47036472D01*
X149439531Y-47407485D01*
X149508297Y-47472508D01*
X149542930Y-47503588D01*
X149574083Y-47528128D01*
X149591464Y-47537531D01*
X149600527Y-47528322D01*
X149624247Y-47497208D01*
X149660400Y-47446786D01*
X149707057Y-47379830D01*
X149762288Y-47299109D01*
X149824167Y-47207397D01*
X149890762Y-47107463D01*
X150175659Y-46677395D01*
X150572585Y-46440513D01*
X150622585Y-46410608D01*
X150716469Y-46354084D01*
X150800589Y-46302956D01*
X150871853Y-46259130D01*
X150927170Y-46224515D01*
X150963448Y-46201020D01*
X150977595Y-46190552D01*
X150978271Y-46187471D01*
X150969721Y-46165533D01*
X150948565Y-46132847D01*
X150920948Y-46097460D01*
X150893012Y-46067421D01*
X150870901Y-46050777D01*
X150867547Y-46050034D01*
X150852797Y-46051035D01*
X150826608Y-46056324D01*
X150786929Y-46066507D01*
X150731709Y-46082194D01*
X150658897Y-46103994D01*
X150566443Y-46132515D01*
X150452295Y-46168366D01*
X150314402Y-46212155D01*
X150150713Y-46264491D01*
X150100719Y-46280106D01*
X150026446Y-46301737D01*
X149963629Y-46318138D01*
X149917707Y-46327928D01*
X149894118Y-46329724D01*
X149888506Y-46326389D01*
X149863175Y-46304847D01*
X149821076Y-46265389D01*
X149764484Y-46210270D01*
X149695673Y-46141745D01*
X149616918Y-46062068D01*
X149530494Y-45973494D01*
X149438675Y-45878278D01*
X149352649Y-45788547D01*
X149235969Y-45666711D01*
X149135417Y-45561352D01*
X149048475Y-45469637D01*
X148972626Y-45388732D01*
X148905354Y-45315803D01*
X148844141Y-45248017D01*
X148786471Y-45182540D01*
X148729827Y-45116538D01*
X148674890Y-45050992D01*
X148789189Y-45050992D01*
X148818759Y-45088751D01*
X148832181Y-45104856D01*
X148864201Y-45141617D01*
X148909065Y-45192183D01*
X148962845Y-45252133D01*
X149021613Y-45317047D01*
X149067280Y-45367064D01*
X149123320Y-45427900D01*
X149171826Y-45479958D01*
X149208760Y-45518912D01*
X149230086Y-45540436D01*
X149265275Y-45573288D01*
X149317817Y-45518451D01*
X149321635Y-45514417D01*
X149350642Y-45482592D01*
X149394139Y-45433723D01*
X149448318Y-45372132D01*
X149509373Y-45302145D01*
X149572610Y-45229107D01*
X149681643Y-45229107D01*
X149782366Y-45328039D01*
X149797512Y-45342656D01*
X149847899Y-45387203D01*
X149888289Y-45416456D01*
X149914096Y-45426972D01*
X149942094Y-45417324D01*
X149981078Y-45391585D01*
X150022075Y-45356787D01*
X150056813Y-45319975D01*
X150077021Y-45288195D01*
X150081663Y-45267986D01*
X150077187Y-45241086D01*
X150058733Y-45208318D01*
X150023624Y-45165186D01*
X149969180Y-45107193D01*
X149879231Y-45014593D01*
X149780437Y-45121850D01*
X149681643Y-45229107D01*
X149572610Y-45229107D01*
X149573497Y-45228082D01*
X149616368Y-45178493D01*
X149688636Y-45095349D01*
X149770736Y-45001400D01*
X149864057Y-44895070D01*
X149969989Y-44774781D01*
X150089919Y-44638959D01*
X150225236Y-44486027D01*
X150377330Y-44314409D01*
X150547588Y-44122528D01*
X150623427Y-44037043D01*
X150718944Y-43929116D01*
X150797471Y-43839966D01*
X150860544Y-43767787D01*
X150909699Y-43710771D01*
X150946471Y-43667112D01*
X150972398Y-43635003D01*
X150989016Y-43612638D01*
X150997859Y-43598210D01*
X151000466Y-43589913D01*
X150995760Y-43579201D01*
X150974147Y-43551374D01*
X150940614Y-43514829D01*
X150901401Y-43475711D01*
X150862744Y-43440163D01*
X150830883Y-43414328D01*
X150812055Y-43404352D01*
X150810998Y-43404584D01*
X150791840Y-43416571D01*
X150752670Y-43445515D01*
X150695565Y-43489749D01*
X150622602Y-43547602D01*
X150535857Y-43617405D01*
X150437406Y-43697489D01*
X150329327Y-43786184D01*
X150213696Y-43881821D01*
X150092589Y-43982731D01*
X150085978Y-43988258D01*
X150001492Y-44058685D01*
X149909858Y-44134675D01*
X149808838Y-44218064D01*
X149696197Y-44310689D01*
X149569698Y-44414386D01*
X149427104Y-44530992D01*
X149422968Y-44534368D01*
X149266178Y-44662342D01*
X149084684Y-44810274D01*
X148789189Y-45050992D01*
X148674890Y-45050992D01*
X148671693Y-45047178D01*
X148609550Y-44971626D01*
X148540883Y-44887048D01*
X148463175Y-44790612D01*
X148373908Y-44679482D01*
X148344348Y-44642704D01*
X148272131Y-44553172D01*
X148204715Y-44470026D01*
X148144799Y-44396567D01*
X148095085Y-44336099D01*
X148058271Y-44291925D01*
X148037056Y-44267348D01*
X147987870Y-44217610D01*
X147878124Y-44129954D01*
X147760031Y-44063057D01*
X147637927Y-44018702D01*
X147516149Y-43998675D01*
X147399035Y-44004760D01*
X147347855Y-44015767D01*
X147308265Y-44028188D01*
X147289120Y-44039280D01*
X147283255Y-44055232D01*
X147278614Y-44099912D01*
X147197705Y-44099912D01*
X147198165Y-44066391D01*
X147207868Y-44003466D01*
X147223910Y-43972934D01*
X147255408Y-43950302D01*
X147305560Y-43935386D01*
X147377795Y-43927176D01*
X147475538Y-43924663D01*
X147537069Y-43925669D01*
X147634764Y-43933882D01*
X147718733Y-43952470D01*
X147798636Y-43983942D01*
X147884136Y-44030808D01*
X147923559Y-44056257D01*
X147964977Y-44087122D01*
X148008260Y-44124378D01*
X148055678Y-44170446D01*
X148109499Y-44227744D01*
X148171991Y-44298695D01*
X148245423Y-44385717D01*
X148332062Y-44491232D01*
X148434178Y-44617658D01*
X148731851Y-44988207D01*
X148799886Y-44933275D01*
X148825786Y-44912311D01*
X148881007Y-44867385D01*
X148930285Y-44827046D01*
X148992650Y-44775748D01*
X148913993Y-44694637D01*
X148846622Y-44619698D01*
X148776998Y-44524221D01*
X148730995Y-44435268D01*
X148709581Y-44354822D01*
X148711639Y-44320091D01*
X148791993Y-44320091D01*
X148800694Y-44381623D01*
X148817671Y-44427505D01*
X148850272Y-44484426D01*
X148899961Y-44551112D01*
X148969631Y-44631847D01*
X148971583Y-44633999D01*
X149008309Y-44671763D01*
X149038920Y-44698589D01*
X149056964Y-44708795D01*
X149074969Y-44700465D01*
X149108067Y-44677875D01*
X149149567Y-44646260D01*
X149193039Y-44610861D01*
X149232052Y-44576918D01*
X149260176Y-44549674D01*
X149270980Y-44534368D01*
X149270601Y-44531929D01*
X149255820Y-44509556D01*
X149223483Y-44475674D01*
X149179002Y-44434872D01*
X149127789Y-44391740D01*
X149075256Y-44350868D01*
X149026813Y-44316846D01*
X148987874Y-44294264D01*
X148957454Y-44280764D01*
X148887413Y-44258940D01*
X148836034Y-44258431D01*
X148804001Y-44278921D01*
X148791993Y-44320091D01*
X148711639Y-44320091D01*
X148713726Y-44284866D01*
X148715461Y-44278700D01*
X148742659Y-44221888D01*
X148786617Y-44186944D01*
X148851622Y-44170305D01*
X148904495Y-44172477D01*
X148981781Y-44195140D01*
X149067409Y-44237755D01*
X149156821Y-44297971D01*
X149245456Y-44373436D01*
X149276067Y-44402342D01*
X149315836Y-44439388D01*
X149343797Y-44464784D01*
X149355262Y-44474224D01*
X149358963Y-44471898D01*
X149382097Y-44454167D01*
X149424290Y-44420586D01*
X149483213Y-44373062D01*
X149556538Y-44313497D01*
X149641938Y-44243799D01*
X149737085Y-44165871D01*
X149839650Y-44081619D01*
X149947306Y-43992948D01*
X150057725Y-43901763D01*
X150168579Y-43809968D01*
X150277540Y-43719470D01*
X150395785Y-43621084D01*
X150494737Y-43538979D01*
X150575566Y-43472577D01*
X150640530Y-43420395D01*
X150691882Y-43380952D01*
X150731880Y-43352767D01*
X150762777Y-43334360D01*
X150786829Y-43324248D01*
X150806293Y-43320950D01*
X150823422Y-43322986D01*
X150840473Y-43328874D01*
X150859700Y-43337132D01*
X150868977Y-43341937D01*
X150904957Y-43367662D01*
X150950093Y-43406615D01*
X150996802Y-43452421D01*
X151024950Y-43482672D01*
X151067051Y-43535343D01*
X151086973Y-43578838D01*
X151086495Y-43589913D01*
X151085227Y-43619296D01*
G37*
G36*
X155049905Y-43670157D02*
G01*
X155017897Y-43728609D01*
X155011701Y-43736019D01*
X155001785Y-43745074D01*
X154987889Y-43752020D01*
X154966396Y-43757238D01*
X154933686Y-43761109D01*
X154886141Y-43764016D01*
X154820144Y-43766341D01*
X154732075Y-43768464D01*
X154618317Y-43770768D01*
X154246917Y-43778097D01*
X154242828Y-43972298D01*
X154238738Y-44166498D01*
X154332455Y-44166498D01*
X154391711Y-44169066D01*
X154433079Y-44178445D01*
X154464791Y-44196875D01*
X154471748Y-44202415D01*
X154485021Y-44215093D01*
X154493945Y-44230940D01*
X154499381Y-44255186D01*
X154502195Y-44293060D01*
X154503249Y-44349791D01*
X154503409Y-44430605D01*
X154503409Y-44446543D01*
X154503409Y-44633958D01*
X155716248Y-44638399D01*
X155797357Y-44638685D01*
X155985387Y-44639259D01*
X156166830Y-44639695D01*
X156339161Y-44639992D01*
X156499854Y-44640152D01*
X156646385Y-44640173D01*
X156776229Y-44640057D01*
X156886860Y-44639804D01*
X156975753Y-44639415D01*
X157040384Y-44638888D01*
X157078226Y-44638226D01*
X157227366Y-44633612D01*
X157231706Y-44445963D01*
X157317489Y-44445963D01*
X157317489Y-44456788D01*
X157317737Y-44531015D01*
X157318993Y-44581248D01*
X157322075Y-44612234D01*
X157327803Y-44628718D01*
X157336993Y-44635447D01*
X157350466Y-44637168D01*
X157396950Y-44638825D01*
X157473231Y-44640233D01*
X157563026Y-44640948D01*
X157657665Y-44640943D01*
X157748481Y-44640190D01*
X157826808Y-44638663D01*
X157977038Y-44634486D01*
X157977038Y-44446126D01*
X157977038Y-44257767D01*
X157914748Y-44250562D01*
X157911244Y-44250176D01*
X157865641Y-44246854D01*
X157801941Y-44244191D01*
X157726068Y-44242223D01*
X157643946Y-44240987D01*
X157561501Y-44240518D01*
X157484656Y-44240855D01*
X157419336Y-44242032D01*
X157371465Y-44244088D01*
X157346967Y-44247058D01*
X157337046Y-44251298D01*
X157328059Y-44261156D01*
X157322340Y-44280628D01*
X157319158Y-44314636D01*
X157317784Y-44368106D01*
X157317489Y-44445963D01*
X157231706Y-44445963D01*
X157232121Y-44428040D01*
X157232428Y-44414924D01*
X157234587Y-44336870D01*
X157237325Y-44282233D01*
X157241512Y-44245845D01*
X157248019Y-44222536D01*
X157257718Y-44207138D01*
X157271478Y-44194483D01*
X157296976Y-44179323D01*
X157338441Y-44169392D01*
X157400149Y-44166498D01*
X157494219Y-44166498D01*
X157490130Y-43972298D01*
X157486040Y-43778097D01*
X157121993Y-43770768D01*
X156757945Y-43763440D01*
X156722599Y-43722317D01*
X156715738Y-43713620D01*
X156692185Y-43660272D01*
X156691247Y-43631342D01*
X156763335Y-43631342D01*
X156781318Y-43661706D01*
X156783213Y-43664182D01*
X156791915Y-43672304D01*
X156805653Y-43678685D01*
X156827895Y-43683630D01*
X156862110Y-43687444D01*
X156911763Y-43690431D01*
X156980325Y-43692897D01*
X157071261Y-43695146D01*
X157188040Y-43697485D01*
X157573980Y-43704813D01*
X157578016Y-43935656D01*
X157582053Y-44166498D01*
X157654964Y-44166498D01*
X157727875Y-44166498D01*
X157727875Y-43955175D01*
X157727954Y-43926804D01*
X157728947Y-43852129D01*
X157730898Y-43788915D01*
X157733581Y-43743111D01*
X157736772Y-43720669D01*
X157740046Y-43715598D01*
X157750474Y-43709636D01*
X157770574Y-43705121D01*
X157803618Y-43701858D01*
X157852880Y-43699656D01*
X157921633Y-43698322D01*
X158013151Y-43697662D01*
X158130707Y-43697485D01*
X158160329Y-43697482D01*
X158276769Y-43697248D01*
X158367649Y-43696195D01*
X158436039Y-43693706D01*
X158485009Y-43689165D01*
X158517631Y-43681955D01*
X158536974Y-43671459D01*
X158546110Y-43657062D01*
X158548110Y-43638146D01*
X158546043Y-43614096D01*
X158541320Y-43572903D01*
X157674075Y-43569124D01*
X157528717Y-43568528D01*
X157367324Y-43568013D01*
X157231300Y-43567819D01*
X157118433Y-43567996D01*
X157026511Y-43568590D01*
X156953322Y-43569650D01*
X156896653Y-43571224D01*
X156854292Y-43573361D01*
X156824027Y-43576108D01*
X156803645Y-43579513D01*
X156790935Y-43583625D01*
X156783683Y-43588491D01*
X156766220Y-43609050D01*
X156763335Y-43631342D01*
X156691247Y-43631342D01*
X156690309Y-43602399D01*
X156709055Y-43549087D01*
X156747364Y-43509422D01*
X156756452Y-43506229D01*
X156781879Y-43502406D01*
X156823927Y-43499201D01*
X156884409Y-43496570D01*
X156965139Y-43494468D01*
X157067929Y-43492851D01*
X157194592Y-43491675D01*
X157346941Y-43490897D01*
X157526789Y-43490471D01*
X157677138Y-43490248D01*
X157855493Y-43489963D01*
X158008149Y-43489767D01*
X158137181Y-43489738D01*
X158244663Y-43489954D01*
X158332671Y-43490493D01*
X158403277Y-43491435D01*
X158458557Y-43492857D01*
X158500584Y-43494838D01*
X158531433Y-43497456D01*
X158553178Y-43500790D01*
X158567894Y-43504917D01*
X158577655Y-43509917D01*
X158584534Y-43515867D01*
X158590607Y-43522846D01*
X158597948Y-43530932D01*
X158621271Y-43561356D01*
X158638155Y-43617275D01*
X158634824Y-43638146D01*
X158628931Y-43675069D01*
X158593746Y-43727926D01*
X158550903Y-43770768D01*
X158183359Y-43770768D01*
X157815815Y-43770768D01*
X157815815Y-43968633D01*
X157815815Y-44166498D01*
X157901779Y-44166498D01*
X157944698Y-44168045D01*
X157991310Y-44177233D01*
X158026360Y-44196875D01*
X158032587Y-44201823D01*
X158046154Y-44214569D01*
X158055280Y-44230267D01*
X158060844Y-44254190D01*
X158061120Y-44257767D01*
X158063728Y-44291610D01*
X158064813Y-44347799D01*
X158064978Y-44428029D01*
X158064978Y-44628805D01*
X158154943Y-44645902D01*
X158229904Y-44668645D01*
X158297842Y-44713287D01*
X158343653Y-44777089D01*
X158367231Y-44859893D01*
X158368052Y-44927439D01*
X158368467Y-44961540D01*
X158352001Y-45045966D01*
X158314752Y-45119002D01*
X158256219Y-45174094D01*
X158251358Y-45177346D01*
X158238125Y-45185355D01*
X158223194Y-45191781D01*
X158203497Y-45196799D01*
X158175964Y-45200583D01*
X158137529Y-45203306D01*
X158085121Y-45205144D01*
X158015674Y-45206271D01*
X157926119Y-45206859D01*
X157813386Y-45207085D01*
X157674409Y-45207122D01*
X157673733Y-45207122D01*
X157552084Y-45207262D01*
X157440222Y-45207658D01*
X157341400Y-45208278D01*
X157258873Y-45209090D01*
X157195896Y-45210063D01*
X157155723Y-45211163D01*
X157141609Y-45212359D01*
X157144010Y-45215594D01*
X157162875Y-45235560D01*
X157197443Y-45270384D01*
X157244044Y-45316394D01*
X157299012Y-45369918D01*
X157301454Y-45372281D01*
X157424043Y-45491044D01*
X157527181Y-45591291D01*
X157612569Y-45674737D01*
X157681904Y-45743099D01*
X157736886Y-45798093D01*
X157779214Y-45841436D01*
X157810585Y-45874845D01*
X157832700Y-45900035D01*
X157847257Y-45918723D01*
X157855955Y-45932626D01*
X157873015Y-45968300D01*
X157887521Y-46008171D01*
X157898632Y-46053764D01*
X157906777Y-46109008D01*
X157912382Y-46177834D01*
X157915876Y-46264171D01*
X157917685Y-46371949D01*
X157918238Y-46505099D01*
X157918173Y-46618145D01*
X157917511Y-46713892D01*
X157915728Y-46787099D01*
X157912306Y-46841266D01*
X157907002Y-46877981D01*
X157906726Y-46879893D01*
X157898470Y-46906480D01*
X157887019Y-46924526D01*
X157871854Y-46937532D01*
X157852457Y-46948997D01*
X157829877Y-46956143D01*
X157784615Y-46962752D01*
X157730873Y-46965476D01*
X157700057Y-46965225D01*
X157656776Y-46961275D01*
X157627621Y-46950436D01*
X157602627Y-46929946D01*
X157566652Y-46893970D01*
X157566652Y-46558388D01*
X157566076Y-46453215D01*
X157564050Y-46349435D01*
X157560677Y-46266844D01*
X157556071Y-46208144D01*
X157550348Y-46176037D01*
X157539475Y-46157703D01*
X157507463Y-46119144D01*
X157454692Y-46063019D01*
X157380791Y-45988949D01*
X157285388Y-45896552D01*
X157168110Y-45785449D01*
X157165442Y-45782942D01*
X157064070Y-45688078D01*
X156981521Y-45611770D01*
X156915638Y-45552196D01*
X156864263Y-45507537D01*
X156825238Y-45475971D01*
X156796407Y-45455678D01*
X156775612Y-45444837D01*
X156760696Y-45441628D01*
X156719216Y-45441628D01*
X156717379Y-45547911D01*
X156714213Y-45731097D01*
X156713543Y-45769084D01*
X156711633Y-45859780D01*
X156709267Y-45927903D01*
X156705851Y-45978445D01*
X156700792Y-46016397D01*
X156693496Y-46046752D01*
X156683371Y-46074500D01*
X156669824Y-46104634D01*
X156650364Y-46141480D01*
X156583229Y-46232592D01*
X156497599Y-46312431D01*
X156401260Y-46373211D01*
X156313507Y-46416296D01*
X155865731Y-46416296D01*
X155417954Y-46416296D01*
X155318532Y-46365841D01*
X155218087Y-46301311D01*
X155129688Y-46211618D01*
X155061975Y-46101178D01*
X155059213Y-46095323D01*
X155046636Y-46066605D01*
X155037239Y-46038477D01*
X155030405Y-46005956D01*
X155025520Y-45964060D01*
X155021966Y-45907803D01*
X155019129Y-45832205D01*
X155016392Y-45732281D01*
X155016075Y-45720184D01*
X155013164Y-45632018D01*
X155009590Y-45554536D01*
X155005642Y-45492393D01*
X155004992Y-45485598D01*
X155097004Y-45485598D01*
X155097004Y-45976596D01*
X155135127Y-46057877D01*
X155186669Y-46148286D01*
X155254962Y-46224970D01*
X155341494Y-46285172D01*
X155419450Y-46328356D01*
X155844494Y-46331758D01*
X155899276Y-46332176D01*
X156012717Y-46332796D01*
X156102080Y-46332715D01*
X156171067Y-46331748D01*
X156223381Y-46329713D01*
X156262724Y-46326427D01*
X156292798Y-46321705D01*
X156317306Y-46315365D01*
X156339950Y-46307224D01*
X156431152Y-46258393D01*
X156513289Y-46187827D01*
X156574507Y-46103761D01*
X156577260Y-46098607D01*
X156595932Y-46056858D01*
X156610928Y-46008101D01*
X156622540Y-45949158D01*
X156631060Y-45876847D01*
X156636781Y-45787989D01*
X156639995Y-45679404D01*
X156640995Y-45547911D01*
X156640265Y-45423364D01*
X156898307Y-45423364D01*
X157217061Y-45719793D01*
X157240970Y-45742017D01*
X157320961Y-45816237D01*
X157393891Y-45883700D01*
X157456884Y-45941759D01*
X157507065Y-45987768D01*
X157541557Y-46019081D01*
X157557484Y-46033051D01*
X157566314Y-46042034D01*
X157589095Y-46073942D01*
X157613208Y-46115835D01*
X157623781Y-46137587D01*
X157632157Y-46159997D01*
X157638422Y-46186655D01*
X157642965Y-46221739D01*
X157646173Y-46269428D01*
X157648434Y-46333896D01*
X157650136Y-46419323D01*
X157651668Y-46529886D01*
X157656073Y-46877981D01*
X157744306Y-46877981D01*
X157832540Y-46877981D01*
X157827842Y-46471259D01*
X157823143Y-46064536D01*
X157782250Y-45981263D01*
X157761596Y-45944432D01*
X157724061Y-45891105D01*
X157686982Y-45850901D01*
X157685417Y-45849535D01*
X157658799Y-45825286D01*
X157614727Y-45784114D01*
X157556504Y-45729150D01*
X157487433Y-45663523D01*
X157410820Y-45590362D01*
X157329968Y-45512795D01*
X157314628Y-45498073D01*
X157236909Y-45424381D01*
X157165712Y-45358312D01*
X157103922Y-45302442D01*
X157054425Y-45259346D01*
X157020109Y-45231599D01*
X157003858Y-45221778D01*
X156994465Y-45223750D01*
X156983520Y-45241189D01*
X156980385Y-45281532D01*
X156980048Y-45295436D01*
X156969539Y-45342210D01*
X156939346Y-45382325D01*
X156898307Y-45423364D01*
X156640265Y-45423364D01*
X156640072Y-45390330D01*
X156635954Y-44994600D01*
X155866479Y-44994600D01*
X155097004Y-44994600D01*
X155097004Y-45423378D01*
X155097004Y-45485598D01*
X155004992Y-45485598D01*
X155001611Y-45450247D01*
X154997785Y-45432754D01*
X154981826Y-45428766D01*
X154951468Y-45435235D01*
X154944592Y-45439108D01*
X154915379Y-45461354D01*
X154869814Y-45499877D01*
X154811054Y-45551711D01*
X154742255Y-45613888D01*
X154666571Y-45683441D01*
X154587159Y-45757404D01*
X154507174Y-45832809D01*
X154429772Y-45906688D01*
X154358109Y-45976076D01*
X154295340Y-46038004D01*
X154244621Y-46089506D01*
X154209107Y-46127615D01*
X154191955Y-46149363D01*
X154190201Y-46152649D01*
X154182325Y-46171475D01*
X154176364Y-46196056D01*
X154172060Y-46230317D01*
X154169158Y-46278185D01*
X154167403Y-46343586D01*
X154166537Y-46430445D01*
X154166306Y-46542690D01*
X154166322Y-46607387D01*
X154165948Y-46714939D01*
X154163912Y-46797955D01*
X154158872Y-46859609D01*
X154149488Y-46903074D01*
X154134416Y-46931521D01*
X154112315Y-46948124D01*
X154081845Y-46956055D01*
X154041662Y-46958487D01*
X153990426Y-46958593D01*
X153962879Y-46958700D01*
X153920143Y-46958290D01*
X153886356Y-46954638D01*
X153860510Y-46944848D01*
X153841597Y-46926022D01*
X153828609Y-46895265D01*
X153820537Y-46849678D01*
X153816372Y-46786366D01*
X153815106Y-46702431D01*
X153815731Y-46594977D01*
X153817165Y-46467595D01*
X153909814Y-46467595D01*
X153909814Y-46870653D01*
X153994090Y-46875049D01*
X154078366Y-46879444D01*
X154078366Y-46540662D01*
X154078406Y-46482664D01*
X154078854Y-46385614D01*
X154080058Y-46311406D01*
X154082336Y-46255715D01*
X154086008Y-46214217D01*
X154091393Y-46182587D01*
X154098812Y-46156502D01*
X154108583Y-46131637D01*
X154112581Y-46122986D01*
X154127472Y-46097592D01*
X154150062Y-46067631D01*
X154182722Y-46030623D01*
X154227824Y-45984088D01*
X154287739Y-45925543D01*
X154364840Y-45852509D01*
X154461499Y-45762504D01*
X154487882Y-45738079D01*
X154568510Y-45663579D01*
X154642135Y-45595762D01*
X154705860Y-45537282D01*
X154756791Y-45490791D01*
X154792033Y-45458941D01*
X154808690Y-45444386D01*
X154816664Y-45437873D01*
X154825357Y-45423378D01*
X154809929Y-45407744D01*
X154794772Y-45394197D01*
X154763565Y-45341471D01*
X154752572Y-45273021D01*
X154751368Y-45245523D01*
X154743608Y-45226393D01*
X154725208Y-45224423D01*
X154713201Y-45231774D01*
X154681350Y-45257415D01*
X154633167Y-45299141D01*
X154571285Y-45354590D01*
X154498337Y-45421395D01*
X154416953Y-45497194D01*
X154329766Y-45579622D01*
X154318753Y-45590113D01*
X154218526Y-45686013D01*
X154137520Y-45764537D01*
X154073604Y-45827945D01*
X154024644Y-45878497D01*
X153988510Y-45918452D01*
X153963071Y-45950071D01*
X153946195Y-45975613D01*
X153935751Y-45997337D01*
X153930109Y-46013416D01*
X153923476Y-46039396D01*
X153918435Y-46072058D01*
X153914777Y-46115173D01*
X153912293Y-46172512D01*
X153910777Y-46247848D01*
X153910020Y-46344951D01*
X153909814Y-46467595D01*
X153817165Y-46467595D01*
X153817238Y-46461106D01*
X153821874Y-46035223D01*
X153861696Y-45954219D01*
X153873218Y-45932892D01*
X153902712Y-45889647D01*
X153945033Y-45839526D01*
X154003528Y-45778709D01*
X154081546Y-45703376D01*
X154099500Y-45686428D01*
X154180629Y-45609660D01*
X154268948Y-45525851D01*
X154354939Y-45444042D01*
X154429086Y-45373270D01*
X154596599Y-45213002D01*
X154062670Y-45209108D01*
X153528741Y-45205213D01*
X153474187Y-45169588D01*
X153434778Y-45139806D01*
X153403431Y-45101875D01*
X153384904Y-45054048D01*
X153376909Y-44990056D01*
X153377007Y-44956259D01*
X153450235Y-44956259D01*
X153462794Y-45028123D01*
X153493667Y-45079589D01*
X153543900Y-45113008D01*
X153550524Y-45115418D01*
X153572407Y-45120456D01*
X153604945Y-45124536D01*
X153650801Y-45127746D01*
X153712643Y-45130174D01*
X153793134Y-45131910D01*
X153894941Y-45133040D01*
X154020729Y-45133653D01*
X154173163Y-45133838D01*
X154752572Y-45133838D01*
X154752572Y-45065016D01*
X154840511Y-45065016D01*
X154840859Y-45161776D01*
X154842648Y-45234073D01*
X154847053Y-45285470D01*
X154855250Y-45319532D01*
X154868415Y-45339820D01*
X154887724Y-45349900D01*
X154914351Y-45353335D01*
X154949474Y-45353688D01*
X155001735Y-45353688D01*
X155001735Y-45169352D01*
X155001736Y-45157257D01*
X155002011Y-45084464D01*
X155003553Y-45034293D01*
X155007471Y-45000861D01*
X155014875Y-44978286D01*
X155026874Y-44960685D01*
X155044578Y-44942174D01*
X155087421Y-44899332D01*
X155863375Y-44899332D01*
X155931869Y-44899334D01*
X156091886Y-44899391D01*
X156225967Y-44899594D01*
X156336557Y-44900034D01*
X156426098Y-44900803D01*
X156497034Y-44901991D01*
X156551810Y-44903690D01*
X156592869Y-44905990D01*
X156622655Y-44908984D01*
X156643613Y-44912761D01*
X156658184Y-44917414D01*
X156668814Y-44923032D01*
X156677947Y-44929709D01*
X156682993Y-44933707D01*
X156697034Y-44946584D01*
X156706487Y-44962066D01*
X156712258Y-44985497D01*
X156715256Y-45022216D01*
X156716389Y-45077565D01*
X156716565Y-45156887D01*
X156716565Y-45353688D01*
X156786917Y-45353688D01*
X156809112Y-45352854D01*
X156850533Y-45346555D01*
X156874857Y-45336100D01*
X156881411Y-45319255D01*
X156886413Y-45281324D01*
X156889842Y-45220357D01*
X156891814Y-45134271D01*
X156891816Y-45133838D01*
X156980385Y-45133838D01*
X157570316Y-45132909D01*
X157613915Y-45132808D01*
X157741175Y-45132134D01*
X157858929Y-45130958D01*
X157963875Y-45129351D01*
X158052712Y-45127381D01*
X158122139Y-45125117D01*
X158168856Y-45122628D01*
X158189560Y-45119982D01*
X158193915Y-45118151D01*
X158234377Y-45093285D01*
X158260065Y-45057000D01*
X158273574Y-45003612D01*
X158277500Y-44927439D01*
X158277399Y-44900551D01*
X158275544Y-44850555D01*
X158269639Y-44818005D01*
X158257483Y-44794445D01*
X158236874Y-44771419D01*
X158196248Y-44730780D01*
X157588316Y-44726649D01*
X156980385Y-44722518D01*
X156980385Y-44928178D01*
X156980385Y-45020982D01*
X156980385Y-45133838D01*
X156891816Y-45133838D01*
X156892445Y-45020982D01*
X156892445Y-44723452D01*
X155866479Y-44723452D01*
X154840512Y-44723452D01*
X154840512Y-44928178D01*
X154840512Y-45023398D01*
X154840511Y-45065016D01*
X154752572Y-45065016D01*
X154752572Y-44928178D01*
X154752572Y-44722518D01*
X154144641Y-44726649D01*
X153536710Y-44730780D01*
X153496803Y-44770700D01*
X153486912Y-44781163D01*
X153467488Y-44810160D01*
X153456694Y-44847633D01*
X153450951Y-44903982D01*
X153450235Y-44956259D01*
X153377007Y-44956259D01*
X153377159Y-44903631D01*
X153378007Y-44880543D01*
X153380855Y-44823565D01*
X153385724Y-44786083D01*
X153394944Y-44760642D01*
X153410844Y-44739783D01*
X153435753Y-44716050D01*
X153480284Y-44682869D01*
X153556852Y-44648384D01*
X153635001Y-44635593D01*
X153639382Y-44635547D01*
X153651302Y-44633576D01*
X153659342Y-44625288D01*
X153664266Y-44606084D01*
X153666838Y-44571364D01*
X153667821Y-44516529D01*
X153667960Y-44446564D01*
X153755919Y-44446564D01*
X153755919Y-44635512D01*
X154085694Y-44635512D01*
X154415469Y-44635512D01*
X154415469Y-44446543D01*
X154415464Y-44437310D01*
X154414830Y-44360518D01*
X154412742Y-44307910D01*
X154408655Y-44274835D01*
X154402025Y-44256644D01*
X154392307Y-44248687D01*
X154391035Y-44248292D01*
X154365769Y-44245548D01*
X154317591Y-44243482D01*
X154252182Y-44242082D01*
X154175221Y-44241337D01*
X154092387Y-44241235D01*
X154009359Y-44241763D01*
X153931817Y-44242911D01*
X153865439Y-44244666D01*
X153815906Y-44247016D01*
X153788896Y-44249949D01*
X153788151Y-44250123D01*
X153774873Y-44254566D01*
X153765855Y-44263784D01*
X153760273Y-44282686D01*
X153757305Y-44316178D01*
X153756128Y-44369168D01*
X153755919Y-44446564D01*
X153667960Y-44446564D01*
X153667979Y-44436980D01*
X153667981Y-44426451D01*
X153668304Y-44349359D01*
X153669776Y-44295475D01*
X153673237Y-44259323D01*
X153679527Y-44235424D01*
X153689486Y-44218300D01*
X153703954Y-44202474D01*
X153713323Y-44193638D01*
X153739819Y-44176568D01*
X153774774Y-44168518D01*
X153828536Y-44166498D01*
X153917142Y-44166498D01*
X153917142Y-43968633D01*
X153917142Y-43770768D01*
X153549598Y-43770768D01*
X153182054Y-43770768D01*
X153139212Y-43727926D01*
X153107814Y-43681174D01*
X153101430Y-43650476D01*
X153187031Y-43650476D01*
X153203833Y-43680786D01*
X153204385Y-43681192D01*
X153228486Y-43687016D01*
X153281509Y-43691917D01*
X153363098Y-43695876D01*
X153472899Y-43698877D01*
X153610555Y-43700901D01*
X153997754Y-43704813D01*
X154001790Y-43935656D01*
X154005827Y-44166498D01*
X154078459Y-44166498D01*
X154095510Y-44166493D01*
X154121923Y-44164922D01*
X154140775Y-44157953D01*
X154153452Y-44141601D01*
X154161335Y-44111881D01*
X154165809Y-44064811D01*
X154168257Y-43996404D01*
X154170062Y-43902678D01*
X154173634Y-43704813D01*
X154558925Y-43697485D01*
X154559155Y-43697481D01*
X154679703Y-43695052D01*
X154774139Y-43692509D01*
X154845656Y-43689279D01*
X154897444Y-43684792D01*
X154932697Y-43678474D01*
X154954607Y-43669754D01*
X154966365Y-43658061D01*
X154971165Y-43642824D01*
X154972198Y-43623469D01*
X154972201Y-43618215D01*
X154971081Y-43607063D01*
X154966626Y-43597609D01*
X154956671Y-43589712D01*
X154939052Y-43583233D01*
X154911603Y-43578032D01*
X154872160Y-43573967D01*
X154818557Y-43570899D01*
X154748631Y-43568688D01*
X154660215Y-43567194D01*
X154551146Y-43566275D01*
X154419258Y-43565793D01*
X154262386Y-43565606D01*
X154078366Y-43565575D01*
X153993674Y-43565602D01*
X153813484Y-43565886D01*
X153660236Y-43566509D01*
X153532263Y-43567504D01*
X153427899Y-43568905D01*
X153345477Y-43570745D01*
X153283333Y-43573057D01*
X153239798Y-43575875D01*
X153213209Y-43579233D01*
X153201897Y-43583163D01*
X153187128Y-43611866D01*
X153187031Y-43650476D01*
X153101430Y-43650476D01*
X153096239Y-43625512D01*
X153105610Y-43571023D01*
X153134532Y-43525332D01*
X153181612Y-43496063D01*
X153197799Y-43494093D01*
X153241957Y-43492002D01*
X153310664Y-43490228D01*
X153401322Y-43488794D01*
X153511336Y-43487725D01*
X153638109Y-43487044D01*
X153779045Y-43486776D01*
X153931548Y-43486945D01*
X154093022Y-43487576D01*
X154177345Y-43488027D01*
X154347391Y-43489017D01*
X154491410Y-43490033D01*
X154611677Y-43491151D01*
X154710469Y-43492451D01*
X154790061Y-43494011D01*
X154852729Y-43495908D01*
X154900750Y-43498222D01*
X154936400Y-43501030D01*
X154961955Y-43504411D01*
X154979692Y-43508442D01*
X154991885Y-43513203D01*
X155000811Y-43518770D01*
X155035925Y-43555894D01*
X155055753Y-43610608D01*
X155055006Y-43618215D01*
X155049905Y-43670157D01*
G37*
G36*
X139596005Y-43813886D02*
G01*
X139643281Y-43836320D01*
X139646116Y-43837600D01*
X139684674Y-43855582D01*
X139744713Y-43884199D01*
X139821916Y-43921367D01*
X139911962Y-43964999D01*
X140010534Y-44013010D01*
X140113310Y-44063313D01*
X140496594Y-44251377D01*
X140571063Y-44169721D01*
X140643855Y-44098795D01*
X140763315Y-44014525D01*
X140895020Y-43956889D01*
X141038968Y-43925887D01*
X141195157Y-43921519D01*
X141240986Y-43925057D01*
X141388638Y-43952442D01*
X141519378Y-44003543D01*
X141633888Y-44078686D01*
X141732850Y-44178198D01*
X141794202Y-44253232D01*
X141960029Y-44171484D01*
X141976781Y-44163235D01*
X142047096Y-44128730D01*
X142135031Y-44085711D01*
X142233862Y-44037462D01*
X142336863Y-43987266D01*
X142437310Y-43938407D01*
X142476648Y-43919261D01*
X142567239Y-43874720D01*
X142635480Y-43840126D01*
X142684439Y-43813649D01*
X142717180Y-43793454D01*
X142736771Y-43777709D01*
X142746277Y-43764582D01*
X142746537Y-43763290D01*
X142827227Y-43763290D01*
X142830816Y-43840396D01*
X142857775Y-43914841D01*
X142904806Y-43979313D01*
X142968614Y-44026501D01*
X143031310Y-44049302D01*
X143110076Y-44055078D01*
X143184746Y-44038308D01*
X143251144Y-44002234D01*
X143305093Y-43950102D01*
X143342418Y-43885156D01*
X143358944Y-43810640D01*
X143350495Y-43729799D01*
X143348535Y-43722836D01*
X143311224Y-43643008D01*
X143253794Y-43583098D01*
X143179569Y-43545633D01*
X143091874Y-43533142D01*
X143004752Y-43546579D01*
X142930233Y-43584938D01*
X142872606Y-43646293D01*
X142834394Y-43728728D01*
X142827227Y-43763290D01*
X142746537Y-43763290D01*
X142748764Y-43752239D01*
X142752400Y-43730776D01*
X142767040Y-43687707D01*
X142789070Y-43639343D01*
X142829375Y-43561288D01*
X142517921Y-43252428D01*
X142502834Y-43237439D01*
X142421937Y-43156051D01*
X142350550Y-43082528D01*
X142290991Y-43019365D01*
X142245579Y-42969060D01*
X142216631Y-42934109D01*
X142206467Y-42917008D01*
X142208025Y-42897972D01*
X142215007Y-42884612D01*
X142229311Y-42882774D01*
X142252781Y-42893841D01*
X142287264Y-42919197D01*
X142334604Y-42960225D01*
X142396647Y-43018307D01*
X142475238Y-43094828D01*
X142572223Y-43191170D01*
X142891159Y-43509858D01*
X142940879Y-43483141D01*
X142952859Y-43477345D01*
X143011900Y-43461381D01*
X143093195Y-43456037D01*
X143125522Y-43456338D01*
X143178060Y-43460889D01*
X143220287Y-43473214D01*
X143264944Y-43496300D01*
X143272653Y-43500978D01*
X143341802Y-43558463D01*
X143394440Y-43630812D01*
X143428774Y-43712154D01*
X143443008Y-43796617D01*
X143441694Y-43810640D01*
X143435350Y-43878332D01*
X143404004Y-43951426D01*
X143400261Y-43957366D01*
X143396040Y-43967541D01*
X143396600Y-43979323D01*
X143403941Y-43995096D01*
X143420063Y-44017243D01*
X143446966Y-44048148D01*
X143486650Y-44090193D01*
X143541115Y-44145763D01*
X143612362Y-44217240D01*
X143702389Y-44307007D01*
X143738625Y-44343216D01*
X143815289Y-44420569D01*
X143883666Y-44490577D01*
X143941235Y-44550594D01*
X143985476Y-44597978D01*
X144013869Y-44630084D01*
X144023894Y-44644269D01*
X144020015Y-44656899D01*
X144000953Y-44680274D01*
X143998932Y-44681688D01*
X143989160Y-44683140D01*
X143974215Y-44677114D01*
X143951899Y-44661690D01*
X143920015Y-44634952D01*
X143876366Y-44594984D01*
X143818755Y-44539866D01*
X143744984Y-44467683D01*
X143652858Y-44376516D01*
X143327702Y-44053720D01*
X143265509Y-44089761D01*
X143254419Y-44096188D01*
X143232539Y-44108573D01*
X143198247Y-44124700D01*
X143165042Y-44132652D01*
X143122830Y-44134270D01*
X143061519Y-44131398D01*
X142941902Y-44124139D01*
X142768385Y-44272730D01*
X142720574Y-44313840D01*
X142645953Y-44378438D01*
X142561626Y-44451812D01*
X142471131Y-44530853D01*
X142378006Y-44612450D01*
X142285790Y-44693493D01*
X142198020Y-44770871D01*
X142118234Y-44841474D01*
X142049970Y-44902192D01*
X141996766Y-44949913D01*
X141962159Y-44981529D01*
X141901059Y-45038570D01*
X141879990Y-45470942D01*
X141878375Y-45504457D01*
X141873461Y-45611722D01*
X141869417Y-45708312D01*
X141866372Y-45790509D01*
X141864457Y-45854593D01*
X141863800Y-45896842D01*
X141864532Y-45913538D01*
X141869635Y-45918769D01*
X141895196Y-45941567D01*
X141940646Y-45980781D01*
X142004306Y-46034994D01*
X142084497Y-46102793D01*
X142179540Y-46182763D01*
X142287756Y-46273490D01*
X142407466Y-46373559D01*
X142536991Y-46481556D01*
X142674653Y-46596066D01*
X142886347Y-46771957D01*
X142945801Y-46740693D01*
X142993811Y-46721752D01*
X143078565Y-46708900D01*
X143166658Y-46715786D01*
X143247028Y-46742350D01*
X143312920Y-46775271D01*
X143637023Y-46451408D01*
X143728295Y-46360663D01*
X143808930Y-46281903D01*
X143873060Y-46221467D01*
X143922637Y-46177874D01*
X143959615Y-46149645D01*
X143985945Y-46135301D01*
X144003582Y-46133361D01*
X144014478Y-46142346D01*
X144020585Y-46160776D01*
X144020441Y-46162371D01*
X144007603Y-46182271D01*
X143975832Y-46220041D01*
X143927006Y-46273660D01*
X143863003Y-46341103D01*
X143785700Y-46420349D01*
X143696975Y-46509375D01*
X143369010Y-46835353D01*
X143403318Y-46903121D01*
X143415723Y-46931584D01*
X143435406Y-47018792D01*
X143434636Y-47059641D01*
X143433689Y-47109890D01*
X143410293Y-47193225D01*
X143396812Y-47218236D01*
X143349016Y-47278946D01*
X143287607Y-47333090D01*
X143222978Y-47370813D01*
X143167205Y-47385175D01*
X143093976Y-47390183D01*
X143019854Y-47384670D01*
X142958454Y-47368741D01*
X142949546Y-47365245D01*
X142909954Y-47354477D01*
X142881977Y-47353924D01*
X142880118Y-47354860D01*
X142859950Y-47371048D01*
X142822635Y-47404817D01*
X142770995Y-47453479D01*
X142707854Y-47514347D01*
X142636035Y-47584734D01*
X142558361Y-47661952D01*
X142540282Y-47680006D01*
X142463740Y-47755459D01*
X142393623Y-47823052D01*
X142332751Y-47880174D01*
X142283946Y-47924210D01*
X142250028Y-47952548D01*
X142233818Y-47962575D01*
X142220172Y-47959149D01*
X142200235Y-47938161D01*
X142200594Y-47931253D01*
X142211628Y-47911196D01*
X142236855Y-47878875D01*
X142277691Y-47832712D01*
X142335555Y-47771127D01*
X142411866Y-47692541D01*
X142508040Y-47595376D01*
X142825213Y-47277005D01*
X142786968Y-47211745D01*
X142780659Y-47201244D01*
X142764200Y-47177804D01*
X142743846Y-47157204D01*
X142715052Y-47136423D01*
X142673271Y-47112443D01*
X142613955Y-47082244D01*
X142532558Y-47042807D01*
X142462103Y-47009054D01*
X142318043Y-46940303D01*
X142186712Y-46877988D01*
X142070059Y-46823018D01*
X141970033Y-46776300D01*
X141888585Y-46738741D01*
X141827664Y-46711251D01*
X141789218Y-46694736D01*
X141775199Y-46690104D01*
X141769320Y-46698423D01*
X141750503Y-46725133D01*
X141723893Y-46762946D01*
X141674637Y-46821972D01*
X141582815Y-46895009D01*
X141473060Y-46946292D01*
X141453183Y-46952475D01*
X141415595Y-46961108D01*
X141370611Y-46967035D01*
X141312756Y-46970692D01*
X141236554Y-46972510D01*
X141136531Y-46972923D01*
X141086778Y-46972798D01*
X141004272Y-46971982D01*
X140942706Y-46969937D01*
X140896463Y-46966092D01*
X140859923Y-46959874D01*
X140827470Y-46950714D01*
X140793484Y-46938040D01*
X140788605Y-46936031D01*
X140720899Y-46898516D01*
X140649411Y-46844523D01*
X140584064Y-46782396D01*
X140534782Y-46720482D01*
X140513622Y-46687564D01*
X140110564Y-46878631D01*
X140082925Y-46891729D01*
X139978352Y-46941207D01*
X139879400Y-46987910D01*
X139790241Y-47029877D01*
X139715046Y-47065147D01*
X139657985Y-47091759D01*
X139623230Y-47107751D01*
X139583518Y-47127651D01*
X139551310Y-47148190D01*
X139538954Y-47162386D01*
X139537757Y-47168367D01*
X139524968Y-47196028D01*
X139502692Y-47232332D01*
X139466429Y-47285697D01*
X139781168Y-47593159D01*
X139841357Y-47652251D01*
X139934060Y-47744869D01*
X140005467Y-47818683D01*
X140055978Y-47874123D01*
X140085992Y-47911618D01*
X140095907Y-47931598D01*
X140095022Y-47944927D01*
X140088416Y-47959873D01*
X140073873Y-47962734D01*
X140049637Y-47952203D01*
X140013955Y-47926974D01*
X139965073Y-47885741D01*
X139901238Y-47827199D01*
X139820694Y-47750041D01*
X139721689Y-47652962D01*
X139408200Y-47343349D01*
X139348699Y-47367157D01*
X139337225Y-47371329D01*
X139279291Y-47385318D01*
X139221576Y-47390965D01*
X139179625Y-47388889D01*
X139082961Y-47366487D01*
X139000974Y-47322414D01*
X138936103Y-47260321D01*
X138890786Y-47183857D01*
X138867465Y-47096671D01*
X138868444Y-47013719D01*
X138943432Y-47013719D01*
X138946116Y-47091936D01*
X138972335Y-47167186D01*
X139019021Y-47232287D01*
X139083109Y-47280055D01*
X139118570Y-47295249D01*
X139201413Y-47310304D01*
X139282209Y-47299515D01*
X139355708Y-47264934D01*
X139416665Y-47208615D01*
X139459832Y-47132612D01*
X139467576Y-47108644D01*
X139474793Y-47030905D01*
X139457314Y-46956746D01*
X139418583Y-46890873D01*
X139362040Y-46837993D01*
X139335733Y-46824942D01*
X139470346Y-46824942D01*
X139504851Y-46875789D01*
X139508868Y-46881991D01*
X139533505Y-46932343D01*
X139548357Y-46982920D01*
X139550362Y-46994276D01*
X139558629Y-47026177D01*
X139561571Y-47030905D01*
X139566477Y-47038789D01*
X139570216Y-47037464D01*
X139596176Y-47026090D01*
X139643839Y-47004330D01*
X139709928Y-46973707D01*
X139791165Y-46935742D01*
X139884276Y-46891958D01*
X139985982Y-46843877D01*
X140026522Y-46824680D01*
X140128471Y-46776541D01*
X140222459Y-46732353D01*
X140304785Y-46693844D01*
X140371747Y-46662743D01*
X140419641Y-46640777D01*
X140444768Y-46629677D01*
X140456630Y-46624510D01*
X140482069Y-46606583D01*
X140483381Y-46586417D01*
X140479786Y-46567379D01*
X140474865Y-46523266D01*
X140469315Y-46459743D01*
X140463583Y-46381942D01*
X140458112Y-46294998D01*
X140452816Y-46212145D01*
X140447119Y-46138701D01*
X140441565Y-46081065D01*
X140436588Y-46043727D01*
X140432622Y-46031178D01*
X140428296Y-46034275D01*
X140404168Y-46053411D01*
X140361161Y-46088282D01*
X140301661Y-46136927D01*
X140228056Y-46197388D01*
X140142733Y-46267707D01*
X140048079Y-46345925D01*
X139946481Y-46430083D01*
X139470346Y-46824942D01*
X139335733Y-46824942D01*
X139291129Y-46802814D01*
X139209292Y-46790041D01*
X139128513Y-46800556D01*
X139052156Y-46835884D01*
X138992603Y-46894310D01*
X138952448Y-46973976D01*
X138943432Y-47013719D01*
X138868444Y-47013719D01*
X138868577Y-47002412D01*
X138896562Y-46904729D01*
X138928376Y-46830774D01*
X138607093Y-46511072D01*
X138582990Y-46487020D01*
X138501658Y-46404797D01*
X138430015Y-46330714D01*
X138370336Y-46267222D01*
X138324892Y-46216771D01*
X138295959Y-46181812D01*
X138285809Y-46164795D01*
X138290542Y-46149079D01*
X138313529Y-46132883D01*
X138317925Y-46133186D01*
X138338003Y-46143880D01*
X138371425Y-46169893D01*
X138419530Y-46212439D01*
X138483659Y-46272730D01*
X138565152Y-46351982D01*
X138665351Y-46451408D01*
X138989454Y-46775271D01*
X139053237Y-46743714D01*
X139139448Y-46712874D01*
X139235127Y-46706530D01*
X139332169Y-46729366D01*
X139340843Y-46732636D01*
X139386541Y-46747424D01*
X139415547Y-46750145D01*
X139436122Y-46741787D01*
X139443182Y-46736317D01*
X139471661Y-46713353D01*
X139518800Y-46674902D01*
X139582141Y-46622982D01*
X139659224Y-46559615D01*
X139747589Y-46486820D01*
X139844778Y-46406618D01*
X139948332Y-46321028D01*
X140435609Y-45917970D01*
X140426607Y-45727433D01*
X140418563Y-45564621D01*
X140410347Y-45416370D01*
X140402420Y-45294070D01*
X140394625Y-45195982D01*
X140386804Y-45120368D01*
X140378799Y-45065489D01*
X140370453Y-45029606D01*
X140361607Y-45010981D01*
X140360499Y-45009742D01*
X140343463Y-44992971D01*
X140310314Y-44962328D01*
X140260299Y-44917145D01*
X140192666Y-44856754D01*
X140106660Y-44780488D01*
X140001530Y-44687678D01*
X139876523Y-44577656D01*
X139730885Y-44449754D01*
X139563863Y-44303305D01*
X139360374Y-44124993D01*
X139252499Y-44133152D01*
X139193842Y-44136293D01*
X139150029Y-44133666D01*
X139111311Y-44123100D01*
X139065516Y-44102606D01*
X139029342Y-44085310D01*
X139001007Y-44072581D01*
X139426555Y-44072581D01*
X139834623Y-44430994D01*
X139924704Y-44510111D01*
X140016816Y-44591007D01*
X140101921Y-44665744D01*
X140177015Y-44731685D01*
X140239095Y-44786192D01*
X140285158Y-44826628D01*
X140312201Y-44850357D01*
X140381712Y-44911307D01*
X140382677Y-44718447D01*
X140382849Y-44692208D01*
X140383030Y-44682702D01*
X140465974Y-44682702D01*
X140466218Y-44742525D01*
X140467751Y-44817625D01*
X140470631Y-44910333D01*
X140474917Y-45022982D01*
X140480667Y-45157903D01*
X140487942Y-45317428D01*
X140496798Y-45503889D01*
X140499449Y-45558840D01*
X140508963Y-45753783D01*
X140517430Y-45922185D01*
X140525038Y-46066226D01*
X140531975Y-46188087D01*
X140538428Y-46289949D01*
X140544586Y-46373992D01*
X140550636Y-46442397D01*
X140556766Y-46497344D01*
X140563163Y-46541014D01*
X140570015Y-46575588D01*
X140572950Y-46586417D01*
X140577511Y-46603246D01*
X140585838Y-46626169D01*
X140595183Y-46646537D01*
X140599060Y-46653940D01*
X140625305Y-46695459D01*
X140658712Y-46739522D01*
X140693468Y-46779366D01*
X140723761Y-46808231D01*
X140743775Y-46819355D01*
X140745122Y-46812577D01*
X140747003Y-46779556D01*
X140748764Y-46721191D01*
X140750378Y-46639835D01*
X140751818Y-46537843D01*
X140753056Y-46417568D01*
X140754066Y-46281365D01*
X140754821Y-46131586D01*
X140755294Y-45970585D01*
X140755457Y-45800716D01*
X140755457Y-44782078D01*
X140791111Y-44782078D01*
X140814369Y-44786707D01*
X140835713Y-44810269D01*
X140836933Y-44820376D01*
X140838621Y-44858069D01*
X140840067Y-44919880D01*
X140841240Y-45002669D01*
X140842106Y-45103296D01*
X140842635Y-45218623D01*
X140842794Y-45345507D01*
X140842551Y-45480811D01*
X140842464Y-45508108D01*
X140842050Y-45662177D01*
X140841742Y-45821320D01*
X140841544Y-45979806D01*
X140841459Y-46131903D01*
X140841491Y-46271882D01*
X140841644Y-46394009D01*
X140841920Y-46492555D01*
X140843397Y-46861947D01*
X140898360Y-46877211D01*
X140907257Y-46879064D01*
X140946906Y-46883372D01*
X141005226Y-46886919D01*
X141075368Y-46889583D01*
X141150483Y-46891245D01*
X141223724Y-46891781D01*
X141288240Y-46891073D01*
X141337185Y-46888997D01*
X141363709Y-46885435D01*
X141381313Y-46880530D01*
X141415007Y-46872580D01*
X141451649Y-46864614D01*
X141447426Y-45831489D01*
X141446686Y-45645154D01*
X141446081Y-45471547D01*
X141445717Y-45323314D01*
X141445635Y-45198413D01*
X141445883Y-45094805D01*
X141446503Y-45010450D01*
X141447540Y-44943308D01*
X141449038Y-44891338D01*
X141451042Y-44852502D01*
X141453596Y-44824759D01*
X141456745Y-44806068D01*
X141460532Y-44794391D01*
X141465003Y-44787687D01*
X141470201Y-44783916D01*
X141480328Y-44778595D01*
X141491002Y-44774379D01*
X141500138Y-44774374D01*
X141507854Y-44780509D01*
X141514268Y-44794717D01*
X141519499Y-44818928D01*
X141523665Y-44855074D01*
X141526885Y-44905084D01*
X141529277Y-44970891D01*
X141530960Y-45054426D01*
X141532053Y-45157618D01*
X141532673Y-45282400D01*
X141532939Y-45430702D01*
X141532970Y-45604455D01*
X141532884Y-45805591D01*
X141532888Y-45918835D01*
X141533113Y-46082666D01*
X141533583Y-46236059D01*
X141534275Y-46376655D01*
X141535169Y-46502093D01*
X141536245Y-46610016D01*
X141537480Y-46698062D01*
X141538854Y-46763874D01*
X141540346Y-46805091D01*
X141541934Y-46819355D01*
X141550036Y-46817724D01*
X141580041Y-46799078D01*
X141616479Y-46765049D01*
X141652581Y-46722480D01*
X141681577Y-46678215D01*
X141686668Y-46668583D01*
X141703646Y-46631608D01*
X141711813Y-46607675D01*
X141808370Y-46607675D01*
X142099023Y-46745479D01*
X142106530Y-46749038D01*
X142205711Y-46796142D01*
X142307831Y-46844759D01*
X142405530Y-46891379D01*
X142491449Y-46932491D01*
X142558227Y-46964582D01*
X142566400Y-46968524D01*
X142629997Y-46999191D01*
X142683348Y-47024905D01*
X142721068Y-47043070D01*
X142737771Y-47051093D01*
X142739237Y-47051339D01*
X142746010Y-47037894D01*
X142748764Y-47005967D01*
X142748795Y-47005615D01*
X142827836Y-47005615D01*
X142827906Y-47076646D01*
X142851599Y-47149536D01*
X142894596Y-47215961D01*
X142952333Y-47268899D01*
X143020243Y-47301333D01*
X143046568Y-47308182D01*
X143098620Y-47316002D01*
X143143707Y-47310236D01*
X143195792Y-47289980D01*
X143241628Y-47263866D01*
X143303065Y-47206355D01*
X143342772Y-47136567D01*
X143359152Y-47059641D01*
X143350607Y-46980715D01*
X143315539Y-46904927D01*
X143312566Y-46900606D01*
X143255723Y-46842089D01*
X143187321Y-46806207D01*
X143112603Y-46791877D01*
X143036814Y-46798017D01*
X142966435Y-46823102D01*
X142965198Y-46823543D01*
X142903000Y-46867373D01*
X142855465Y-46928425D01*
X142827836Y-47005615D01*
X142748795Y-47005615D01*
X142750314Y-46988314D01*
X142762897Y-46939141D01*
X142783997Y-46889367D01*
X142819230Y-46823102D01*
X142554416Y-46605043D01*
X142521558Y-46577971D01*
X142440290Y-46510895D01*
X142362830Y-46446805D01*
X142293888Y-46389608D01*
X142238175Y-46343210D01*
X142200400Y-46311514D01*
X142187938Y-46300977D01*
X142098194Y-46225522D01*
X142019366Y-46159995D01*
X141953718Y-46106233D01*
X141903512Y-46066073D01*
X141871009Y-46041350D01*
X141858470Y-46033903D01*
X141857140Y-46041790D01*
X141854127Y-46074566D01*
X141850125Y-46128207D01*
X141845495Y-46197776D01*
X141840598Y-46278337D01*
X141837406Y-46330611D01*
X141831879Y-46411351D01*
X141826387Y-46481107D01*
X141821424Y-46533784D01*
X141817487Y-46563284D01*
X141808370Y-46607675D01*
X141711813Y-46607675D01*
X141717648Y-46590578D01*
X141729171Y-46541885D01*
X141738710Y-46481921D01*
X141746763Y-46407080D01*
X141753823Y-46313752D01*
X141760388Y-46198331D01*
X141766954Y-46057208D01*
X141768293Y-46026727D01*
X141773724Y-45908137D01*
X141780322Y-45769957D01*
X141787719Y-45619640D01*
X141795543Y-45464642D01*
X141803425Y-45312414D01*
X141810995Y-45170411D01*
X141812929Y-45134657D01*
X141819903Y-45002802D01*
X141825156Y-44895833D01*
X141828716Y-44810221D01*
X141830614Y-44742440D01*
X141830879Y-44688960D01*
X141829539Y-44646255D01*
X141826626Y-44610795D01*
X141822167Y-44579054D01*
X141816194Y-44547503D01*
X141787951Y-44447235D01*
X141746993Y-44353065D01*
X141847455Y-44353065D01*
X141851267Y-44362707D01*
X141864819Y-44399617D01*
X141880624Y-44444975D01*
X141888976Y-44479096D01*
X141898424Y-44541306D01*
X141906334Y-44619583D01*
X141910719Y-44688960D01*
X141911839Y-44706675D01*
X141920662Y-44902421D01*
X142133214Y-44714004D01*
X142163208Y-44687466D01*
X142245373Y-44615205D01*
X142332408Y-44539195D01*
X142421322Y-44461998D01*
X142509126Y-44386178D01*
X142592828Y-44314299D01*
X142669439Y-44248925D01*
X142735967Y-44192617D01*
X142789422Y-44147941D01*
X142826814Y-44117459D01*
X142845152Y-44103735D01*
X142846717Y-44102753D01*
X142852715Y-44089761D01*
X142842573Y-44065773D01*
X142814261Y-44025665D01*
X142793292Y-43996683D01*
X142771669Y-43962215D01*
X142763196Y-43941862D01*
X142762163Y-43926877D01*
X142757476Y-43914395D01*
X142746641Y-43907996D01*
X142727148Y-43908550D01*
X142696483Y-43916928D01*
X142652133Y-43934001D01*
X142591586Y-43960639D01*
X142512328Y-43997714D01*
X142411846Y-44046095D01*
X142287629Y-44106654D01*
X142215820Y-44141822D01*
X142107037Y-44195494D01*
X142020983Y-44238686D01*
X141955255Y-44272744D01*
X141907453Y-44299010D01*
X141875174Y-44318831D01*
X141856016Y-44333551D01*
X141847577Y-44344514D01*
X141847455Y-44353065D01*
X141746993Y-44353065D01*
X141742322Y-44342325D01*
X141685469Y-44250216D01*
X141621723Y-44179106D01*
X141554281Y-44119742D01*
X141542696Y-44183426D01*
X141540988Y-44194024D01*
X141536740Y-44250742D01*
X141539187Y-44302073D01*
X141540775Y-44314844D01*
X141542069Y-44371064D01*
X141535682Y-44423943D01*
X141523168Y-44464875D01*
X141506082Y-44485254D01*
X141495252Y-44488143D01*
X141475141Y-44482622D01*
X141460658Y-44458250D01*
X141451137Y-44412447D01*
X141445914Y-44342636D01*
X141444321Y-44246240D01*
X141444321Y-44053108D01*
X141353279Y-44027563D01*
X141283825Y-44012246D01*
X141148651Y-44002377D01*
X141011965Y-44015702D01*
X140883703Y-44051709D01*
X140843397Y-44067458D01*
X140843397Y-44253415D01*
X140843069Y-44301566D01*
X140839986Y-44381845D01*
X140833025Y-44437110D01*
X140821414Y-44470180D01*
X140804383Y-44483875D01*
X140781160Y-44481015D01*
X140780825Y-44480885D01*
X140770189Y-44472672D01*
X140762766Y-44454700D01*
X140757801Y-44422080D01*
X140754541Y-44369925D01*
X140752233Y-44293345D01*
X140748129Y-44115200D01*
X140670827Y-44187156D01*
X140619217Y-44243378D01*
X140564542Y-44326030D01*
X140554209Y-44341651D01*
X140503898Y-44452557D01*
X140473179Y-44566696D01*
X140472384Y-44571580D01*
X140469115Y-44599562D01*
X140466959Y-44635825D01*
X140465974Y-44682702D01*
X140383030Y-44682702D01*
X140384308Y-44615694D01*
X140387873Y-44558544D01*
X140394570Y-44513011D01*
X140405427Y-44471348D01*
X140421471Y-44425808D01*
X140459300Y-44326030D01*
X140012114Y-44107026D01*
X139930573Y-44067139D01*
X139831062Y-44018600D01*
X139742497Y-43975554D01*
X139667950Y-43939487D01*
X139610495Y-43911886D01*
X139573204Y-43894235D01*
X139559151Y-43888022D01*
X139556752Y-43890161D01*
X139545404Y-43910950D01*
X139529894Y-43946703D01*
X139525716Y-43956326D01*
X139498209Y-44002831D01*
X139466485Y-44038983D01*
X139426555Y-44072581D01*
X139001007Y-44072581D01*
X138994941Y-44069856D01*
X138978650Y-44063902D01*
X138976213Y-44065511D01*
X138956572Y-44082863D01*
X138919677Y-44117259D01*
X138868146Y-44166202D01*
X138804598Y-44227196D01*
X138731651Y-44297746D01*
X138651923Y-44375356D01*
X138620012Y-44406444D01*
X138542156Y-44481673D01*
X138471751Y-44548842D01*
X138411480Y-44605445D01*
X138364027Y-44648978D01*
X138332075Y-44676934D01*
X138318307Y-44686810D01*
X138307042Y-44682199D01*
X138287500Y-44661190D01*
X138286600Y-44659551D01*
X138285646Y-44649142D01*
X138292122Y-44633609D01*
X138307954Y-44610750D01*
X138335067Y-44578361D01*
X138375386Y-44534237D01*
X138430835Y-44476176D01*
X138503341Y-44401975D01*
X138594827Y-44309430D01*
X138918316Y-43983290D01*
X138891554Y-43931992D01*
X138889640Y-43928162D01*
X138872081Y-43869625D01*
X138865148Y-43797531D01*
X138867024Y-43763644D01*
X138940795Y-43763644D01*
X138940885Y-43806656D01*
X138953333Y-43861917D01*
X138953668Y-43863110D01*
X138983108Y-43927431D01*
X139029148Y-43985598D01*
X139082679Y-44026053D01*
X139089645Y-44029496D01*
X139172478Y-44054033D01*
X139256259Y-44051666D01*
X139334947Y-44023445D01*
X139402498Y-43970423D01*
X139416482Y-43954163D01*
X139459280Y-43879511D01*
X139474332Y-43799526D01*
X139461424Y-43718148D01*
X139420345Y-43639313D01*
X139417736Y-43635753D01*
X139361072Y-43577358D01*
X139293920Y-43544129D01*
X139210500Y-43533142D01*
X139147025Y-43538767D01*
X139069161Y-43568176D01*
X139006850Y-43622352D01*
X138960715Y-43700879D01*
X138953735Y-43718248D01*
X138940795Y-43763644D01*
X138867024Y-43763644D01*
X138869179Y-43724721D01*
X138884512Y-43664037D01*
X138928842Y-43588373D01*
X138995387Y-43523157D01*
X139075930Y-43477310D01*
X139164979Y-43453041D01*
X139257041Y-43452560D01*
X139346625Y-43478078D01*
X139410787Y-43507191D01*
X139724706Y-43195615D01*
X139753381Y-43167257D01*
X139831209Y-43091344D01*
X139902285Y-43023515D01*
X139963836Y-42966320D01*
X140013089Y-42922309D01*
X140047269Y-42894032D01*
X140063602Y-42884040D01*
X140078869Y-42889464D01*
X140092807Y-42913542D01*
X140092379Y-42918376D01*
X140081939Y-42938326D01*
X140056982Y-42970610D01*
X140016122Y-43016757D01*
X139957972Y-43078295D01*
X139881146Y-43156754D01*
X139784256Y-43253663D01*
X139471477Y-43564283D01*
X139504810Y-43619514D01*
X139509584Y-43627881D01*
X139533019Y-43682033D01*
X139547340Y-43736069D01*
X139548143Y-43741330D01*
X139555315Y-43773580D01*
X139568976Y-43795369D01*
X139575044Y-43799526D01*
X139596005Y-43813886D01*
G37*
D10*
%TO.C,L3*%
X159446300Y-71249731D02*
X159446300Y-72453859D01*
X162166300Y-71249731D02*
X162166300Y-72453859D01*
%TD*%
M02*
