%TF.GenerationSoftware,KiCad,Pcbnew,9.0.7*%
%TF.CreationDate,2026-03-11T18:16:01+05:30*%
%TF.ProjectId,dragonfly_v0-1_Ribs,64726167-6f6e-4666-9c79-5f76302d315f,rev?*%
%TF.SameCoordinates,Original*%
%TF.FileFunction,Drillmap*%
%TF.FilePolarity,Positive*%
%FSLAX45Y45*%
G04 Gerber Fmt 4.5, Leading zero omitted, Abs format (unit mm)*
G04 Created by KiCad (PCBNEW 9.0.7) date 2026-03-11 18:16:01*
%MOMM*%
%LPD*%
G01*
G04 APERTURE LIST*
%ADD10C,0.100000*%
%ADD11C,0.200000*%
%ADD12C,0.220000*%
G04 APERTURE END LIST*
D10*
X14342115Y-8523318D02*
X14342640Y-8522806D01*
X14026368Y-8525265D02*
X14026827Y-8525838D01*
X12833845Y-7486422D02*
X12834488Y-7486776D01*
X16851781Y-3616648D02*
X16851459Y-3615989D01*
X12849650Y-7152790D02*
X12849641Y-7153525D01*
X16853672Y-4802398D02*
X16853287Y-4801774D01*
X12836361Y-6304733D02*
X12836967Y-6305148D01*
X17050250Y-2400000D02*
X17050250Y-3633099D01*
X16871847Y-7181609D02*
X16871142Y-7181404D01*
X12823410Y-5999269D02*
X12822681Y-5999349D01*
X12828429Y-5117783D02*
X12829129Y-5118005D01*
X16864967Y-5120028D02*
X16865619Y-5119690D01*
X15678940Y-2594143D02*
X15678356Y-2593699D01*
X16849027Y-3608319D02*
X16848910Y-3607595D01*
X16856293Y-4805930D02*
X16855821Y-4805369D01*
X16854917Y-3621598D02*
X16854473Y-3621014D01*
X12820484Y-7482900D02*
X12821217Y-7482927D01*
X15366425Y-2573834D02*
X15366326Y-2574561D01*
X16861695Y-6305580D02*
X16862290Y-6305150D01*
X14009804Y-2599526D02*
X14009087Y-2599678D01*
X16873952Y-5116936D02*
X16874677Y-5116819D01*
X12821217Y-4816260D02*
X12820484Y-4816287D01*
X16859976Y-6306956D02*
X16860538Y-6306484D01*
X16853732Y-5984971D02*
X16853363Y-5984338D01*
X12828429Y-4815008D02*
X12827725Y-4815213D01*
X12848362Y-7161471D02*
X12848141Y-7162170D01*
X12849075Y-3957364D02*
X12849210Y-3958086D01*
X12848362Y-3954518D02*
X12848567Y-3955223D01*
X16850334Y-6323052D02*
X16850504Y-6322338D01*
X14361787Y-2600169D02*
X14361054Y-2600124D01*
X16862450Y-5121537D02*
X16863065Y-5121137D01*
X15678948Y-8521339D02*
X15679543Y-8520909D01*
X15355154Y-8521556D02*
X15355727Y-8522015D01*
X16850059Y-5139140D02*
X16850246Y-5138430D01*
X12831192Y-5118772D02*
X12831867Y-5119061D01*
X14340615Y-8524931D02*
X14341102Y-8524381D01*
X15352133Y-8519482D02*
X15352757Y-8519867D01*
X14353180Y-2598458D02*
X14352492Y-2598203D01*
X14014025Y-8516336D02*
X14014706Y-8516608D01*
X12849569Y-5144196D02*
X12849614Y-5144929D01*
X16864451Y-7178439D02*
X16863826Y-7178055D01*
X16870512Y-3632015D02*
X16869807Y-3631811D01*
X15666886Y-2571593D02*
X15666859Y-2570859D01*
X12831867Y-5119061D02*
X12832534Y-5119366D01*
X12264974Y-2123463D02*
X12258362Y-2141943D01*
X16850779Y-7506250D02*
X16850949Y-7505535D01*
X16867261Y-5996930D02*
X16866594Y-5996624D01*
X15359392Y-2589702D02*
X15358906Y-2590252D01*
X16850780Y-4796477D02*
X16850542Y-4795783D01*
X12843766Y-6311782D02*
X12844196Y-6312377D01*
X14006184Y-2600109D02*
X14005453Y-2600172D01*
X16865728Y-7179162D02*
X16865085Y-7178809D01*
X14032925Y-2574013D02*
X14032826Y-2574740D01*
X16862735Y-7488348D02*
X16863340Y-7487933D01*
X12837561Y-6305578D02*
X12838145Y-6306022D01*
X16874232Y-3933621D02*
X16874959Y-3933523D01*
X14355988Y-2599310D02*
X14355278Y-2599123D01*
X16859334Y-7491140D02*
X16859871Y-7490640D01*
X15362400Y-8529755D02*
X15362769Y-8530389D01*
X12849506Y-7509861D02*
X12849569Y-7510592D01*
X15684636Y-2597462D02*
X15683969Y-2597156D01*
X16857351Y-6309518D02*
X16857851Y-6308980D01*
X16857224Y-5989678D02*
X16856738Y-5989128D01*
X15340428Y-8515448D02*
X15341155Y-8515547D01*
X12833193Y-3936490D02*
X12833845Y-3936828D01*
X12829129Y-3934807D02*
X12829823Y-3935046D01*
X12846119Y-4800490D02*
X12845765Y-4801133D01*
X16855378Y-7170014D02*
X16854962Y-7169409D01*
X12849425Y-7509131D02*
X12849506Y-7509861D01*
X16875433Y-7182368D02*
X16874709Y-7182251D01*
X12837561Y-3627214D02*
X12836967Y-3627643D01*
X14350479Y-8517433D02*
X14351147Y-8517127D01*
X14333494Y-8541536D02*
X14333575Y-8540806D01*
X14334246Y-2577571D02*
X14334077Y-2576857D01*
X12849425Y-3959538D02*
X12849506Y-3960267D01*
X16857724Y-5990215D02*
X16857224Y-5989678D01*
X15342600Y-8515799D02*
X15343318Y-8515951D01*
X14008379Y-8514770D02*
X14009100Y-8514905D01*
X16822827Y-8403699D02*
X16827951Y-8393891D01*
X12844611Y-3946586D02*
X12845011Y-3947201D01*
X12832534Y-3936168D02*
X12833193Y-3936490D01*
X14016706Y-8517526D02*
X14017357Y-8517864D01*
X16851340Y-7504121D02*
X16851561Y-7503421D01*
X14010531Y-8515227D02*
X14011241Y-8515414D01*
X15674115Y-8525826D02*
X15674602Y-8525276D01*
X12934481Y-8467897D02*
X12943402Y-8474447D01*
X12843321Y-7171187D02*
X12842863Y-7171760D01*
X14023875Y-8522579D02*
X14024399Y-8523091D01*
X12848567Y-4794370D02*
X12848362Y-4795075D01*
X15682024Y-8519340D02*
X15682667Y-8518986D01*
X16864195Y-4812413D02*
X16863561Y-4812044D01*
X13057126Y-2600760D02*
X13046091Y-2601600D01*
X16849375Y-5969505D02*
X16849065Y-5146507D01*
X12842863Y-4805364D02*
X12842390Y-4805926D01*
X16876160Y-7182467D02*
X16875433Y-7182368D01*
X15676140Y-8523700D02*
X15676678Y-8523201D01*
X12821949Y-5999412D02*
X12821217Y-5999457D01*
X16848190Y-2818440D02*
X16847909Y-2807376D01*
X16853628Y-3619815D02*
X16853227Y-3619200D01*
X12840892Y-3942055D02*
X12841405Y-3942580D01*
X16845671Y-2785362D02*
X16843718Y-2774468D01*
X16850720Y-3952445D02*
X16850993Y-3951763D01*
X16878641Y-5999484D02*
X16877908Y-5999457D01*
X16853755Y-3946592D02*
X16854170Y-3945987D01*
X12829823Y-5118244D02*
X12830511Y-5118499D01*
X12826301Y-5117222D02*
X12827015Y-5117392D01*
X12283456Y-2088886D02*
X12273366Y-2105721D01*
X16873675Y-6300268D02*
X16874397Y-6300134D01*
X12827725Y-3934381D02*
X12828429Y-3934585D01*
X12845765Y-7498054D02*
X12846119Y-7498697D01*
X13002797Y-2610497D02*
X12992325Y-2614077D01*
X14019864Y-2595213D02*
X14019249Y-2595613D01*
X16850648Y-7159352D02*
X16850496Y-7158634D01*
X12831192Y-7180415D02*
X12830511Y-7180688D01*
X12842390Y-7172321D02*
X12841904Y-7172871D01*
X15682015Y-2596142D02*
X15681380Y-2595773D01*
X14003988Y-2600244D02*
X14003253Y-2600254D01*
X16878487Y-7482927D02*
X16879221Y-7482900D01*
X14017357Y-8517864D02*
X14017999Y-8518218D01*
X12849075Y-3609031D02*
X12848923Y-3609749D01*
X16852043Y-5981718D02*
X16851754Y-5981043D01*
X16877598Y-5116532D02*
X16878331Y-5116505D01*
X12824137Y-7182368D02*
X12823410Y-7182466D01*
X12295148Y-9042868D02*
X12308329Y-9057411D01*
X14032827Y-8539841D02*
X14032925Y-8540568D01*
X16853860Y-6314228D02*
X16854245Y-6313603D01*
X12825583Y-5998919D02*
X12824862Y-5999053D01*
X16866278Y-5119368D02*
X16866946Y-5119062D01*
X14335628Y-8533021D02*
X14335917Y-8532346D01*
X16856462Y-3943123D02*
X16856961Y-3942585D01*
X16868616Y-5997491D02*
X16867935Y-5997219D01*
X15363458Y-2583616D02*
X15363120Y-2584268D01*
X14347890Y-8518815D02*
X14348524Y-8518446D01*
X12843766Y-3945386D02*
X12844196Y-3945981D01*
X12833845Y-6303224D02*
X12834488Y-6303578D01*
X16850504Y-6322338D02*
X16850691Y-6321628D01*
X12846457Y-5983037D02*
X12846119Y-5983688D01*
X15670738Y-8530619D02*
X15671107Y-8529985D01*
X16705615Y-2613597D02*
X16695142Y-2610018D01*
X16849245Y-5144207D02*
X16849308Y-5143475D01*
X12863347Y-8371025D02*
X12867453Y-8381302D01*
X12833193Y-5119688D02*
X12833845Y-5120026D01*
X15366075Y-2576007D02*
X15365924Y-2576725D01*
X12846457Y-3616641D02*
X12846119Y-3617292D01*
X12840367Y-5991248D02*
X12839830Y-5991748D01*
X16849801Y-3955232D02*
X16850005Y-3954527D01*
X16841216Y-2763687D02*
X16838172Y-2753047D01*
X16849159Y-3958096D02*
X16849293Y-3957374D01*
X12849326Y-3607585D02*
X12849210Y-3608309D01*
X12848923Y-7159342D02*
X12848754Y-7160056D01*
X12847374Y-7164234D02*
X12847085Y-7164908D01*
X12848754Y-6322328D02*
X12848923Y-6323042D01*
X16868545Y-3935046D02*
X16869239Y-3934808D01*
X14333350Y-2400133D02*
X14333348Y-2400000D01*
X12822681Y-3632954D02*
X12821949Y-3633017D01*
X12846119Y-7498697D02*
X12846457Y-7499348D01*
X14353874Y-2598697D02*
X14353180Y-2598458D01*
X12849614Y-7154258D02*
X12849569Y-7154991D01*
X14033069Y-2572553D02*
X14033006Y-2573284D01*
X12849641Y-5970327D02*
X12849614Y-5971061D01*
X16866064Y-6302888D02*
X16866723Y-6302566D01*
X14335354Y-2581067D02*
X14335098Y-2580379D01*
X17449287Y-2180397D02*
X17446407Y-2160982D01*
X12847085Y-4798512D02*
X12846779Y-4799180D01*
X14033152Y-2400000D02*
X14033150Y-2400133D01*
X14359594Y-2599981D02*
X14358866Y-2599882D01*
X12847085Y-3615314D02*
X12846779Y-3615982D01*
X14336223Y-8531679D02*
X14336545Y-8531019D01*
X16859965Y-4809512D02*
X16859404Y-4809040D01*
X16866594Y-5996624D02*
X16865934Y-5996302D01*
X14030876Y-8532789D02*
X14031148Y-8533470D01*
X12846457Y-5132952D02*
X12846779Y-5133612D01*
X12338636Y-2033706D02*
X12322871Y-2045398D01*
X12283456Y-9027103D02*
X12295148Y-9042868D01*
X14338390Y-2586918D02*
X14337990Y-2586303D01*
X12838718Y-6306480D02*
X12839280Y-6306953D01*
X12821217Y-5116532D02*
X12821949Y-5116577D01*
X15365755Y-8537859D02*
X15365924Y-8538572D01*
X16853244Y-7499355D02*
X16853582Y-7498703D01*
X13046091Y-8512479D02*
X13057126Y-8513319D01*
X17391671Y-2058579D02*
X17377129Y-2045398D01*
X12828429Y-7181404D02*
X12827725Y-7181608D01*
X15353977Y-8520682D02*
X15354571Y-8521112D01*
X12840892Y-5990736D02*
X12840367Y-5991248D01*
X13057126Y-8513319D02*
X13068190Y-8513600D01*
X12845396Y-3618569D02*
X12845011Y-3619194D01*
X16854562Y-7168794D02*
X16854177Y-7168169D01*
X12848362Y-3611877D02*
X12848141Y-3612577D01*
X12827725Y-5117579D02*
X12828429Y-5117783D01*
X12971990Y-2622803D02*
X12962181Y-2627927D01*
X12835122Y-3937552D02*
X12835746Y-3937937D01*
X12831192Y-3935574D02*
X12831867Y-3935863D01*
X16867175Y-3935575D02*
X16867857Y-3935302D01*
X16877153Y-3933334D02*
X16877886Y-3933307D01*
X12848754Y-5139131D02*
X12848923Y-5139845D01*
X12834488Y-6303578D02*
X12835122Y-6303947D01*
X16854170Y-3945987D02*
X16854600Y-3945392D01*
X14334859Y-2579685D02*
X14334638Y-2578985D01*
X16850864Y-3614648D02*
X16850591Y-3613967D01*
X12833845Y-3936828D02*
X12834488Y-3937182D01*
X16850465Y-3953133D02*
X16850720Y-3952445D01*
X16856420Y-5126870D02*
X16856907Y-5126321D01*
X12843321Y-7494396D02*
X12843766Y-7494980D01*
X15365141Y-2579552D02*
X15364902Y-2580246D01*
X16850246Y-5138430D02*
X16850450Y-5137725D01*
X13068190Y-2600480D02*
X13057126Y-2600760D01*
X14033150Y-2400134D02*
X14033150Y-2570353D01*
X12322871Y-2045398D02*
X12308329Y-2058579D01*
X16843718Y-2774468D02*
X16841216Y-2763687D01*
X17308307Y-9107377D02*
X17326787Y-9100765D01*
X12829823Y-7180944D02*
X12829129Y-7181182D01*
X12826301Y-7181965D02*
X12825583Y-7182117D01*
X16877018Y-3633062D02*
X16876286Y-3633017D01*
X14354586Y-8515851D02*
X14355291Y-8515647D01*
X16772035Y-2652697D02*
X16763458Y-2645703D01*
X16862606Y-7177240D02*
X16862012Y-7176810D01*
X12826301Y-5998767D02*
X12825583Y-5998919D01*
X12839830Y-6307439D02*
X12840367Y-6307938D01*
X16859299Y-5991751D02*
X16858761Y-5991252D01*
X12847646Y-6318833D02*
X12847902Y-6319520D01*
X15674602Y-8525276D02*
X15675102Y-8524738D01*
X16874842Y-7483332D02*
X16875567Y-7483215D01*
X14033150Y-8544227D02*
X14033150Y-8715905D01*
X14011945Y-8515619D02*
X14012644Y-8515841D01*
X12844611Y-3619809D02*
X12844196Y-3620414D01*
X15346826Y-2598325D02*
X15346132Y-2598564D01*
X16871402Y-5998411D02*
X16870697Y-5998207D01*
X12849641Y-5145662D02*
X12849650Y-5146397D01*
X12836361Y-7177652D02*
X12835746Y-7178052D01*
X12273366Y-9010269D02*
X12283456Y-9027103D01*
X16863750Y-3629215D02*
X16863116Y-3628846D01*
X16860538Y-4809970D02*
X16859965Y-4809512D01*
X12308329Y-2058579D02*
X12295148Y-2073121D01*
X14004003Y-8514336D02*
X14004736Y-8514364D01*
X14335915Y-2582423D02*
X14335626Y-2581748D01*
X12842390Y-5126866D02*
X12842863Y-5127427D01*
X16859086Y-3940560D02*
X16859648Y-3940088D01*
X14335626Y-2581748D02*
X14335354Y-2581067D01*
X16848485Y-3603109D02*
X16848190Y-2818440D01*
X14355278Y-2599123D02*
X14354574Y-2598919D01*
X12943402Y-2639632D02*
X12934481Y-2646182D01*
X12895453Y-8428868D02*
X12902447Y-8437445D01*
X15364647Y-2580934D02*
X15364374Y-2581615D01*
X16854933Y-5986816D02*
X16854518Y-5986211D01*
X12835122Y-7178437D02*
X12834488Y-7178807D01*
X12841405Y-7492174D02*
X12841904Y-7492712D01*
X16871088Y-5117579D02*
X16871798Y-5117392D01*
X12833845Y-5120026D02*
X12834488Y-5120380D01*
X16855505Y-7495580D02*
X16855935Y-7494985D01*
X14346649Y-8519600D02*
X14347264Y-8519200D01*
X14022788Y-8521593D02*
X14023337Y-8522079D01*
X17326787Y-9100765D02*
X17344529Y-9092374D01*
X17050166Y-3633098D02*
X16878485Y-3633098D01*
X14338393Y-8527850D02*
X14338809Y-8527245D01*
X12848923Y-7506240D02*
X12849075Y-7506958D01*
X12847902Y-5136323D02*
X12848141Y-5137017D01*
X15666850Y-8715905D02*
X15666850Y-8545363D01*
X12845011Y-7496795D02*
X12845396Y-7497420D01*
X12849210Y-5141284D02*
X12849326Y-5142008D01*
X12845765Y-6314856D02*
X12846119Y-6315499D01*
X16817213Y-8413235D02*
X16822827Y-8403699D01*
X15346132Y-2598564D02*
X15345433Y-2598786D01*
X12840367Y-3941543D02*
X12840892Y-3942055D01*
X16865283Y-5995965D02*
X16864640Y-5995611D01*
X15693823Y-2599882D02*
X15693094Y-2599801D01*
X15358412Y-8524511D02*
X15358911Y-8525048D01*
X14033114Y-8542760D02*
X14033141Y-8543493D01*
X15355147Y-2593744D02*
X15354563Y-2594188D01*
X15365924Y-2576725D02*
X15365754Y-2577439D01*
X16873270Y-7181965D02*
X16872556Y-7181796D01*
X14027267Y-2588164D02*
X14026822Y-2588748D01*
X15363122Y-8531032D02*
X15363460Y-8531683D01*
X14032925Y-8540568D02*
X14033006Y-8541297D01*
X12846779Y-4799180D02*
X12846457Y-4799839D01*
X12962181Y-2627927D02*
X12952643Y-2633542D01*
X12843321Y-3621593D02*
X12842863Y-3622166D01*
X15365754Y-2577439D02*
X15365567Y-2578148D01*
X16869880Y-7484640D02*
X16870574Y-7484401D01*
X16853137Y-6315506D02*
X16853491Y-6314862D01*
X15677228Y-8522715D02*
X15677790Y-8522242D01*
X12836361Y-3938337D02*
X12836967Y-3938752D01*
X16717958Y-8498370D02*
X16728016Y-8493757D01*
X15364376Y-8533683D02*
X15364648Y-8534364D01*
X16864769Y-6303580D02*
X16865412Y-6303226D01*
X12849641Y-4787129D02*
X12849614Y-4787863D01*
X14333350Y-8544469D02*
X14333359Y-8543734D01*
X12819749Y-4816296D02*
X12649834Y-4816296D01*
X12846457Y-4799839D02*
X12846119Y-4800490D01*
X15348195Y-2597797D02*
X15347514Y-2598069D01*
X16867038Y-7179822D02*
X16866379Y-7179500D01*
X16863382Y-5994857D02*
X16862767Y-5994457D01*
X16873543Y-5998919D02*
X16872825Y-5998767D01*
X16861556Y-7489223D02*
X16862140Y-7488778D01*
X16849556Y-5971804D02*
X16849511Y-5971071D01*
X16858889Y-6307942D02*
X16859426Y-6307443D01*
X12842390Y-4805926D02*
X12841904Y-4806475D01*
X16858168Y-7173413D02*
X16857669Y-7172875D01*
X16854918Y-4804212D02*
X16854488Y-4803618D01*
X15356288Y-8522487D02*
X15356837Y-8522974D01*
X15688791Y-8516541D02*
X15689501Y-8516354D01*
X15671107Y-8529985D02*
X15671493Y-8529360D01*
X12842863Y-6310625D02*
X12843321Y-6311198D01*
X16865833Y-3936170D02*
X16866501Y-3935864D01*
X12830511Y-4814292D02*
X12829823Y-4814548D01*
X12830511Y-7180688D02*
X12829823Y-7180944D01*
X16866946Y-5119062D02*
X16867620Y-5118773D01*
X15339684Y-2599930D02*
X15338953Y-2599993D01*
X12823410Y-6299918D02*
X12824137Y-6300017D01*
X16872556Y-7181796D02*
X16871847Y-7181609D01*
X16858808Y-7491653D02*
X16859334Y-7491140D01*
X12847085Y-7164908D02*
X12846779Y-7165575D01*
X14358142Y-2599766D02*
X14357420Y-2599631D01*
X16873402Y-7483618D02*
X16874120Y-7483466D01*
X14339239Y-8526650D02*
X14339684Y-8526066D01*
X15344018Y-2599177D02*
X15343304Y-2599347D01*
X15678356Y-2593699D02*
X15677783Y-2593240D01*
X14337607Y-8529090D02*
X14337993Y-8528465D01*
X12249750Y-8915989D02*
X12250713Y-8935593D01*
X12825583Y-6300268D02*
X12826301Y-6300420D01*
X15667933Y-2578101D02*
X15667746Y-2577391D01*
X16857791Y-4807542D02*
X16857279Y-4807017D01*
X12842863Y-3944229D02*
X12843321Y-3944802D01*
X12820484Y-5999484D02*
X12819749Y-5999493D01*
X15337488Y-2600065D02*
X15336753Y-2600074D01*
X12839830Y-3941043D02*
X12840367Y-3941543D01*
X12822681Y-6299837D02*
X12823410Y-6299918D01*
X14333350Y-8715905D02*
X14333350Y-8544469D01*
X12830511Y-5118499D02*
X12831192Y-5118772D01*
X14361802Y-8514603D02*
X14362536Y-8514577D01*
X16849138Y-8319796D02*
X16849974Y-8308762D01*
X16857851Y-6308980D02*
X16858363Y-6308455D01*
X16867168Y-7485763D02*
X16867835Y-7485458D01*
X14018624Y-2595998D02*
X14017990Y-2596368D01*
X12391693Y-9107377D02*
X12410732Y-9112146D01*
X12845011Y-5985590D02*
X12844611Y-5986205D01*
X16850895Y-6320923D02*
X16851116Y-6320223D01*
X12819749Y-3933298D02*
X12820484Y-3933307D01*
X12845396Y-4801767D02*
X12845011Y-4802392D01*
X12962181Y-8486152D02*
X12971990Y-8491276D01*
X12839280Y-7490151D02*
X12839830Y-7490637D01*
X17250250Y-2000000D02*
X12449750Y-2000000D01*
X12839280Y-5992234D02*
X12838718Y-5992706D01*
X12844611Y-7169403D02*
X12844196Y-7170008D01*
X15678364Y-8521784D02*
X15678948Y-8521339D01*
X14335355Y-8533703D02*
X14335628Y-8533021D01*
X16851459Y-3615989D02*
X16851153Y-3615322D01*
X16852564Y-4800497D02*
X16852226Y-4799846D01*
X17391671Y-9057411D02*
X17404852Y-9042868D01*
X15694569Y-8515542D02*
X15695302Y-8515497D01*
X12832534Y-6302564D02*
X12833193Y-6302886D01*
X14014014Y-2598249D02*
X14013326Y-2598505D01*
X16735759Y-2627448D02*
X16725949Y-2622323D01*
X15361612Y-2586784D02*
X15361197Y-2587389D01*
X14021654Y-8520662D02*
X14022227Y-8521121D01*
X14343722Y-2592947D02*
X14343172Y-2592461D01*
X12849650Y-5969592D02*
X12849641Y-5970327D01*
X12827015Y-3632202D02*
X12826301Y-3632371D01*
X12849569Y-3960998D02*
X12849614Y-3961731D01*
X16854305Y-7497426D02*
X16854690Y-7496801D01*
X16863826Y-7178055D02*
X16863211Y-7177655D01*
X12832534Y-5119366D02*
X12833193Y-5119688D01*
X16854518Y-5986211D02*
X16854117Y-5985596D01*
X15350847Y-2596542D02*
X15350196Y-2596880D01*
X16865044Y-3629907D02*
X16864393Y-3629569D01*
X16854962Y-7169409D02*
X16854562Y-7168794D01*
X12828429Y-3934585D02*
X12829129Y-3934807D01*
X16872785Y-3933872D02*
X16873507Y-3933738D01*
X12849506Y-5143465D02*
X12849569Y-5144196D01*
X12845396Y-3947826D02*
X12845765Y-3948460D01*
X14362536Y-8514577D02*
X14363271Y-8514568D01*
X16780248Y-2660116D02*
X16772035Y-2652697D01*
X12273366Y-2105721D02*
X12264974Y-2123463D01*
X14027697Y-2587569D02*
X14027267Y-2588164D01*
X16864640Y-5995611D02*
X16864006Y-5995242D01*
X14343172Y-2592461D02*
X14342634Y-2591962D01*
X12952643Y-8480537D02*
X12962181Y-8486152D01*
X14336543Y-2583750D02*
X14336221Y-2583090D01*
X17435026Y-2123463D02*
X17426634Y-2105721D01*
X15674111Y-2589657D02*
X15673638Y-2589095D01*
X16874397Y-6300134D02*
X16875122Y-6300017D01*
X12832534Y-7485762D02*
X12833193Y-7486084D01*
X12831867Y-6302259D02*
X12832534Y-6302564D01*
X16860805Y-3939185D02*
X16861400Y-3938754D01*
X14030874Y-2581795D02*
X14030585Y-2582469D01*
X12849569Y-6327394D02*
X12849614Y-6328126D01*
X16836675Y-8373558D02*
X16840253Y-8363087D01*
X16875555Y-3632954D02*
X16874825Y-3632873D01*
X12258362Y-2141943D02*
X12253593Y-2160982D01*
X16869239Y-3934808D02*
X16869939Y-3934586D01*
X12842863Y-5127427D02*
X12843321Y-5128000D01*
X12831192Y-4814020D02*
X12830511Y-4814292D01*
X12838145Y-4809967D02*
X12837561Y-4810412D01*
X16629750Y-2600000D02*
X15696854Y-2600126D01*
X16852794Y-7165583D02*
X16852488Y-7164916D01*
X12834488Y-5995609D02*
X12833845Y-5995963D01*
X16855045Y-3944807D02*
X16855503Y-3944234D01*
X16857999Y-3941546D02*
X16858537Y-3941047D01*
X15696020Y-2600017D02*
X15695287Y-2599990D01*
X16848594Y-3603943D02*
X16848585Y-3603208D01*
X15675096Y-2590744D02*
X15674597Y-2590207D01*
X12845396Y-7497420D02*
X12845765Y-7498054D01*
X16860666Y-5122827D02*
X16861250Y-5122383D01*
X16879820Y-7182691D02*
X16879086Y-7182682D01*
X16873507Y-3933738D02*
X16874232Y-3933621D01*
X12836967Y-7177237D02*
X12836361Y-7177652D01*
X16864324Y-5120382D02*
X16864967Y-5120028D01*
X12849210Y-6324482D02*
X12849326Y-6325206D01*
X15666859Y-8544628D02*
X15666886Y-8543895D01*
X15686003Y-8517460D02*
X15686692Y-8517205D01*
X12830511Y-3631094D02*
X12829823Y-3631350D01*
X16870644Y-3934381D02*
X16871353Y-3934194D01*
X15686692Y-8517205D02*
X15687386Y-8516966D01*
X15666994Y-2573056D02*
X15666931Y-2572325D01*
X16874988Y-5999170D02*
X16874264Y-5999053D01*
X16857346Y-3624344D02*
X16856834Y-3623819D01*
X12830511Y-3935301D02*
X12831192Y-3935574D01*
X12849650Y-3603196D02*
X12849641Y-3603931D01*
X12849425Y-5142736D02*
X12849506Y-5143465D01*
X12847374Y-7501349D02*
X12847646Y-7502031D01*
X12849326Y-7157179D02*
X12849210Y-7157903D01*
X12843766Y-5128584D02*
X12844196Y-5129179D01*
X12848567Y-7504817D02*
X12848754Y-7505526D01*
X16863690Y-5120752D02*
X16864324Y-5120382D01*
X16863116Y-3628846D02*
X16862492Y-3628461D01*
X16851670Y-7162873D02*
X16851431Y-7162179D01*
X12820484Y-7182682D02*
X12819749Y-7182691D01*
X16849690Y-6327405D02*
X16849753Y-6326673D01*
X17446407Y-8955007D02*
X17449287Y-8935593D01*
X12847374Y-3951755D02*
X12847646Y-3952437D01*
X15680756Y-2595388D02*
X15680140Y-2594988D01*
X12833193Y-4813103D02*
X12832534Y-4813425D01*
X15345433Y-2598786D02*
X15344728Y-2598990D01*
X12838718Y-4809509D02*
X12838145Y-4809967D01*
X16859520Y-3626314D02*
X16858959Y-3625842D01*
X16857796Y-7492716D02*
X16858296Y-7492178D01*
X17416544Y-2088886D02*
X17404852Y-2073121D01*
X16838172Y-2753047D02*
X16834592Y-2742574D01*
X16876286Y-3633017D02*
X16875555Y-3632954D01*
X12877198Y-2712910D02*
X12872073Y-2722720D01*
X16859206Y-7174450D02*
X16858681Y-7173938D01*
X12952643Y-2633542D02*
X12943402Y-2639632D01*
X16855060Y-6312382D02*
X16855490Y-6311787D01*
X12826301Y-3632371D02*
X12825583Y-3632523D01*
X16858236Y-5990740D02*
X16857724Y-5990215D01*
X16850051Y-5975436D02*
X16849916Y-5974715D01*
X12847902Y-6319520D02*
X12848141Y-6320214D01*
X12842390Y-5989123D02*
X12841904Y-5989673D01*
X14334434Y-8536490D02*
X14334638Y-8535785D01*
X12844196Y-5986810D02*
X12843766Y-5987405D01*
X15366569Y-8542922D02*
X15366614Y-8543654D01*
X14025406Y-2590432D02*
X14024906Y-2590969D01*
X16873230Y-5117070D02*
X16873952Y-5116936D01*
X15680149Y-8520494D02*
X15680764Y-8520094D01*
X12820484Y-4816287D02*
X12819749Y-4816296D01*
X16850203Y-5976154D02*
X16850051Y-5975436D01*
X15673642Y-8526387D02*
X15674115Y-8525826D01*
X12835746Y-5121135D02*
X12836361Y-5121535D01*
X16848811Y-3606868D02*
X16848730Y-3606139D01*
X12842863Y-3622166D02*
X12842390Y-3622728D01*
X16851282Y-3951089D02*
X16851587Y-3950421D01*
X12824137Y-5116819D02*
X12824862Y-5116936D01*
X12824137Y-3933621D02*
X12824862Y-3933738D01*
X16850048Y-6324492D02*
X16850183Y-6323770D01*
X12847902Y-7162864D02*
X12847646Y-7163552D01*
X12827725Y-5998410D02*
X12827015Y-5998597D01*
X15344728Y-2598990D02*
X15344018Y-2599177D01*
X16860855Y-7175907D02*
X16860293Y-7175435D01*
X12849641Y-6328860D02*
X12849650Y-6329595D01*
X16850560Y-5977577D02*
X16850373Y-5976868D01*
X15366210Y-8540011D02*
X15366327Y-8540735D01*
X15684647Y-8518021D02*
X15685322Y-8517733D01*
X16861877Y-3628061D02*
X16861272Y-3627646D01*
X12824137Y-7483215D02*
X12824862Y-7483332D01*
X15362769Y-8530389D02*
X15363122Y-8531032D01*
X16869684Y-5118006D02*
X16870383Y-5117784D01*
X15343318Y-8515951D02*
X15344031Y-8516121D01*
X14033151Y-8715989D02*
X12649750Y-8715989D01*
X15669417Y-8533241D02*
X15669723Y-8532573D01*
X16849389Y-5142746D02*
X16849487Y-5142019D01*
X16878042Y-6299730D02*
X16878776Y-6299702D01*
X16850542Y-4795783D02*
X16850320Y-4795084D01*
X16850361Y-7157913D02*
X16850245Y-7157189D01*
X12838145Y-5993165D02*
X12837561Y-5993609D01*
X12847374Y-4797838D02*
X12847085Y-4798512D01*
X12833845Y-7179161D02*
X12833193Y-7179499D01*
X16854600Y-3945392D02*
X16855045Y-3944807D01*
X15696870Y-8515362D02*
X16631810Y-8515989D01*
X16849175Y-4789337D02*
X16849111Y-4788606D01*
X15338953Y-2599993D02*
X15338221Y-2600038D01*
X12836361Y-4811257D02*
X12835746Y-4811657D01*
X12833193Y-6302886D02*
X12833845Y-6303224D01*
X12849075Y-6323760D02*
X12849210Y-6324482D01*
X14006928Y-8514554D02*
X14007655Y-8514653D01*
X12849210Y-4791507D02*
X12849075Y-4792229D01*
X12833845Y-5995963D02*
X12833193Y-5996301D01*
X12839280Y-6306953D02*
X12839830Y-6307439D01*
X12849569Y-3605397D02*
X12849506Y-3606128D01*
X15358406Y-2590790D02*
X15357894Y-2591315D01*
X12837561Y-4810412D02*
X12836967Y-4810841D01*
X16851883Y-6318159D02*
X16852172Y-6317484D01*
X12649834Y-5116496D02*
X12819749Y-5116496D01*
X12847646Y-7163552D02*
X12847374Y-7164234D01*
X16859426Y-6307443D02*
X16859976Y-6306956D01*
X14029622Y-8530137D02*
X14029960Y-8530789D01*
X17050166Y-7182691D02*
X16879820Y-7182691D01*
X12846779Y-7500007D02*
X12847085Y-7500675D01*
X12849641Y-7512058D02*
X12849650Y-7512793D01*
X16864838Y-4812767D02*
X16864195Y-4812413D01*
X12848141Y-7503412D02*
X12848362Y-7504112D01*
X15350857Y-8518758D02*
X15351499Y-8519112D01*
X14027700Y-8527016D02*
X14028115Y-8527621D01*
X12838145Y-7176363D02*
X12837561Y-7176807D01*
X14337993Y-8528465D02*
X14338393Y-8527850D01*
X14334077Y-8537914D02*
X14334247Y-8537200D01*
X16870697Y-5998207D02*
X16869998Y-5997985D01*
X16853808Y-7167536D02*
X16853454Y-7166893D01*
X12848362Y-6320914D02*
X12848567Y-6321619D01*
X16864135Y-6303949D02*
X16864769Y-6303580D01*
X15690934Y-8516033D02*
X15691656Y-8515899D01*
X16869108Y-3631589D02*
X16868414Y-3631351D01*
X16853227Y-3619200D02*
X16852842Y-3618576D01*
X15340414Y-2599849D02*
X15339684Y-2599930D01*
X16850691Y-6321628D02*
X16850895Y-6320923D01*
X12410732Y-9112146D02*
X12430146Y-9115026D01*
X16874959Y-3933523D02*
X16875689Y-3933442D01*
X16849200Y-5144939D02*
X16849245Y-5144207D01*
X15680140Y-2594988D02*
X15679535Y-2594573D01*
X17449287Y-8935593D02*
X17450250Y-8915989D01*
X12830511Y-7484895D02*
X12831192Y-7485167D01*
X14360323Y-2600061D02*
X14359594Y-2599981D01*
X12837561Y-5122380D02*
X12838145Y-5122824D01*
X16845795Y-8341667D02*
X16847744Y-8330774D01*
X12821949Y-4816215D02*
X12821217Y-4816260D01*
X16853116Y-7166242D02*
X16852794Y-7165583D01*
X16851587Y-3950421D02*
X16851909Y-3949761D01*
X16851225Y-5979675D02*
X16850986Y-5978981D01*
X12848567Y-3611172D02*
X12848362Y-3611877D01*
X12829823Y-7484639D02*
X12830511Y-7484895D01*
X15670383Y-8531262D02*
X15670738Y-8530619D01*
X16850001Y-7155002D02*
X16849956Y-7154269D01*
X12827725Y-7483974D02*
X12828429Y-7484179D01*
X14361069Y-8514648D02*
X14361802Y-8514603D01*
X14342109Y-2591449D02*
X14341596Y-2590924D01*
X14020477Y-8519788D02*
X14021071Y-8520218D01*
X12830511Y-5997490D02*
X12829823Y-5997746D01*
X12848362Y-5137716D02*
X12848567Y-5138421D01*
X12839830Y-4808550D02*
X12839280Y-4809036D01*
X12845765Y-3948460D02*
X12846119Y-3949103D01*
X15349547Y-8518098D02*
X15350206Y-8518420D01*
X16870129Y-6301203D02*
X16870828Y-6300982D01*
X16860410Y-5992710D02*
X16859849Y-5992237D01*
X12820484Y-6299702D02*
X12821217Y-6299729D01*
X14004736Y-8514364D02*
X14005469Y-8514409D01*
X15667425Y-8539527D02*
X15667577Y-8538808D01*
X14032424Y-2576904D02*
X14032254Y-2577618D01*
X16851309Y-4797846D02*
X16851036Y-4797165D01*
X15671105Y-2585498D02*
X15670735Y-2584864D01*
X12824862Y-4815855D02*
X12824137Y-4815972D01*
X14333575Y-8540806D02*
X14333674Y-8540079D01*
X16684502Y-2606973D02*
X16673721Y-2604471D01*
X14358866Y-2599882D02*
X14358142Y-2599766D01*
X12844196Y-7495575D02*
X12844611Y-7496180D01*
X14011933Y-2598965D02*
X14011228Y-2599170D01*
X12840367Y-7491136D02*
X12840892Y-7491649D01*
X12833193Y-7179499D02*
X12832534Y-7179821D01*
X14011228Y-2599170D02*
X14010518Y-2599357D01*
X15689488Y-2599130D02*
X15688778Y-2598943D01*
X12649750Y-8715989D02*
X12649750Y-7482890D01*
X16869553Y-4814787D02*
X16868859Y-4814549D01*
X15356281Y-2592813D02*
X15355720Y-2593286D01*
X15350196Y-2596880D02*
X15349536Y-2597202D01*
X12846457Y-7499348D02*
X12846779Y-7500007D01*
X12839830Y-5991748D02*
X12839280Y-5992234D01*
X15696755Y-2600026D02*
X15696020Y-2600017D01*
X12849326Y-6325206D02*
X12849425Y-6325933D01*
X12837561Y-7488775D02*
X12838145Y-7489220D01*
X14351810Y-2597930D02*
X14351136Y-2597641D01*
X15360327Y-8526732D02*
X15360771Y-8527316D01*
X12877198Y-8401169D02*
X12882812Y-8410706D01*
X15350206Y-8518420D02*
X15350857Y-8518758D01*
X16855489Y-5128005D02*
X16855948Y-5127432D01*
X16873098Y-4815721D02*
X16872380Y-4815570D01*
X12835122Y-7487145D02*
X12835746Y-7487530D01*
X15341865Y-2599633D02*
X15341141Y-2599750D01*
X14333348Y-2400000D02*
X15366652Y-2400000D01*
X12840367Y-7174446D02*
X12839830Y-7174946D01*
X16804571Y-8431392D02*
X16811122Y-8422474D01*
X12649750Y-7182692D02*
X12649750Y-6299692D01*
X12322871Y-9070591D02*
X12338636Y-9082283D01*
X15363460Y-8531683D02*
X15363782Y-8532342D01*
X15341879Y-8515664D02*
X15342600Y-8515799D01*
X16861567Y-5993612D02*
X16860983Y-5993168D01*
X15667290Y-2575238D02*
X15667174Y-2574513D01*
X16850493Y-7507689D02*
X16850627Y-7506968D01*
X16728016Y-8493757D02*
X16737828Y-8488640D01*
X16848720Y-3963210D02*
X16848729Y-3962475D01*
X12847085Y-5981710D02*
X12846779Y-5982377D01*
X16867835Y-7485458D02*
X16868510Y-7485168D01*
X16855848Y-3622732D02*
X16855376Y-3622171D01*
X16850115Y-4794379D02*
X16849928Y-4793670D01*
X13013437Y-8506626D02*
X13024218Y-8509128D01*
X15361200Y-8527911D02*
X15361615Y-8528516D01*
X12827015Y-7181795D02*
X12826301Y-7181965D01*
X16811122Y-8422474D02*
X16817213Y-8413235D01*
X12834488Y-5120380D02*
X12835122Y-5120750D01*
X16869304Y-5997746D02*
X16868616Y-5997491D01*
X15366652Y-2400000D02*
X15366650Y-2400133D01*
X16849928Y-4793670D02*
X16849758Y-4792956D01*
X17050250Y-8715989D02*
X15666849Y-8715989D01*
X16853363Y-5984338D02*
X16853009Y-5983695D01*
X12430146Y-2000963D02*
X12410732Y-2003843D01*
X15683979Y-8518327D02*
X15684647Y-8518021D01*
X16848863Y-3960277D02*
X16848944Y-3959548D01*
X16850949Y-7505535D02*
X16851135Y-7504826D01*
X15364902Y-2580246D02*
X15364647Y-2580934D01*
X16853582Y-7498703D02*
X16853936Y-7498060D01*
X12852269Y-8328237D02*
X12854221Y-8339131D01*
X16866149Y-4813426D02*
X16865489Y-4813105D01*
X12836967Y-5121950D02*
X12837561Y-5122380D01*
X12649834Y-3933298D02*
X12819749Y-3933298D01*
X12828429Y-6300981D02*
X12829129Y-6301203D01*
X16870443Y-7181183D02*
X16869749Y-7180944D01*
X16853491Y-6314862D02*
X16853860Y-6314228D01*
X12822681Y-7182547D02*
X12821949Y-7182610D01*
X12841405Y-7173409D02*
X12840892Y-7173934D01*
X16851727Y-5134287D02*
X16852032Y-5133619D01*
X12847374Y-5134953D02*
X12847646Y-5135635D01*
X14016696Y-2597060D02*
X14016036Y-2597382D01*
X16664886Y-8513506D02*
X16675781Y-8511564D01*
X12846779Y-6316810D02*
X12847085Y-6317477D01*
X15674597Y-2590207D02*
X15674111Y-2589657D01*
X16850320Y-4795084D02*
X16850115Y-4794379D01*
X12839830Y-5124241D02*
X12840367Y-5124741D01*
X12847646Y-4797157D02*
X12847374Y-4797838D01*
X12848923Y-6323042D02*
X12849075Y-6323760D01*
X16849974Y-8308762D02*
X16850250Y-8297699D01*
X12943402Y-8474447D02*
X12952643Y-8480537D01*
X16853936Y-7498060D02*
X16854305Y-7497426D01*
X16861250Y-5122383D02*
X16861845Y-5121952D01*
X16872067Y-3934025D02*
X16872785Y-3933872D01*
X15336769Y-8515221D02*
X15337503Y-8515230D01*
X16827951Y-8393891D02*
X16832571Y-8383835D01*
X15363782Y-8532342D02*
X15364087Y-8533009D01*
X12917692Y-8453483D02*
X12925904Y-8460903D01*
X16865412Y-6303226D02*
X16866064Y-6302888D01*
X17441638Y-8974046D02*
X17446407Y-8955007D01*
X12846457Y-6316150D02*
X12846779Y-6316810D01*
X12839280Y-5123755D02*
X12839830Y-5124241D01*
X12834488Y-7486776D02*
X12835122Y-7487145D01*
X16849738Y-5140572D02*
X16849889Y-5139854D01*
X16851754Y-5981043D02*
X16851481Y-5980362D01*
X12826301Y-4815569D02*
X12825583Y-4815721D01*
X14333359Y-8543734D02*
X14333386Y-8543000D01*
X12992325Y-8500002D02*
X13002797Y-8503582D01*
X12821217Y-3933334D02*
X12821949Y-3933379D01*
X16852247Y-3949110D02*
X16852601Y-3948467D01*
X12821949Y-7482972D02*
X12822681Y-7483035D01*
X16878353Y-7182655D02*
X16877620Y-7182610D01*
X12848754Y-3610463D02*
X12848567Y-3611172D01*
X16879511Y-6299693D02*
X17050166Y-6299693D01*
X12852269Y-2785842D02*
X12850871Y-2796820D01*
X12882812Y-2703373D02*
X12877198Y-2712910D01*
X12839830Y-7174946D02*
X12839280Y-7175432D01*
X12844196Y-3945981D02*
X12844611Y-3946586D01*
X12846457Y-7166235D02*
X12846119Y-7166886D01*
X16874677Y-5116819D02*
X16875404Y-5116721D01*
X16862937Y-4811659D02*
X16862322Y-4811259D01*
X16763458Y-2645703D02*
X16754537Y-2639152D01*
X14032710Y-8539117D02*
X14032827Y-8539841D01*
X12849210Y-7507680D02*
X12849326Y-7508404D01*
X12841904Y-5989673D02*
X12841405Y-5990211D01*
X16878196Y-4816287D02*
X16877463Y-4816260D01*
X12848923Y-5139845D02*
X12849075Y-5140562D01*
X12848567Y-3955223D02*
X12848754Y-3955933D01*
X15695302Y-8515497D02*
X15696036Y-8515471D01*
X12839280Y-3940557D02*
X12839830Y-3941043D01*
X14022781Y-2592993D02*
X14022220Y-2593465D01*
X12843321Y-5987989D02*
X12842863Y-5988562D01*
X15361615Y-8528516D02*
X15362015Y-8529131D01*
X12850871Y-2796820D02*
X12850030Y-2807856D01*
X12840892Y-4807538D02*
X12840367Y-4808051D01*
X16856379Y-7494401D02*
X16856838Y-7493828D01*
X16854488Y-4803618D02*
X16854073Y-4803013D01*
X17361364Y-9082283D02*
X17377129Y-9070591D01*
X15673638Y-2589095D02*
X15673179Y-2588522D01*
X12844196Y-7170008D02*
X12843766Y-7170603D01*
X16851561Y-7503421D02*
X16851800Y-7502727D01*
X14353192Y-8516311D02*
X14353886Y-8516072D01*
X16874264Y-5999053D02*
X16873543Y-5998919D01*
X12847902Y-4796469D02*
X12847646Y-4797157D01*
X15364085Y-2582290D02*
X15363780Y-2582957D01*
X14026364Y-2589321D02*
X14025892Y-2589882D01*
X14344856Y-2593878D02*
X14344283Y-2593420D01*
X16860983Y-7489681D02*
X16861556Y-7489223D01*
X12849506Y-6326663D02*
X12849569Y-6327394D01*
X16864580Y-7487147D02*
X16865214Y-7486778D01*
X15666850Y-2400133D02*
X15666848Y-2400000D01*
X16809037Y-2693652D02*
X16802487Y-2684731D01*
X14031863Y-8535551D02*
X14032068Y-8536255D01*
X14026822Y-2588748D02*
X14026364Y-2589321D01*
X14033141Y-2571087D02*
X14033114Y-2571821D01*
X16860538Y-6306484D02*
X16861111Y-6306025D01*
X12250713Y-8935593D02*
X12253593Y-8955007D01*
X12849425Y-4790056D02*
X12849326Y-4790783D01*
X12845011Y-3947201D02*
X12845396Y-3947826D01*
X14008365Y-2599813D02*
X14007641Y-2599929D01*
X12848567Y-5138421D02*
X12848754Y-5139131D01*
X16869749Y-7180944D02*
X16869061Y-7180689D01*
X15685310Y-2597751D02*
X15684636Y-2597462D01*
X16853800Y-5130405D02*
X16854200Y-5129790D01*
X16862322Y-4811259D02*
X16861717Y-4810844D01*
X14012644Y-8515841D02*
X14013338Y-8516080D01*
X15348869Y-2597508D02*
X15348195Y-2597797D01*
X16855935Y-7494985D02*
X16856379Y-7494401D01*
X14345448Y-8520445D02*
X14346043Y-8520015D01*
X14006914Y-2600028D02*
X14006184Y-2600109D01*
X16850373Y-5976868D02*
X16850203Y-5976154D01*
X12854221Y-8339131D02*
X12856723Y-8349912D01*
X16852199Y-7164241D02*
X16851926Y-7163560D01*
X16855808Y-7170608D02*
X16855378Y-7170014D01*
X12844611Y-7496180D02*
X12845011Y-7496795D01*
X15348206Y-8517503D02*
X15348880Y-8517792D01*
X14028112Y-2586964D02*
X14027697Y-2587569D01*
X12832534Y-5996623D02*
X12831867Y-5996928D01*
X12872073Y-2722720D02*
X12867453Y-2732776D01*
X12338636Y-9082283D02*
X12355471Y-9092374D01*
X12841904Y-7492712D02*
X12842390Y-7493262D01*
X12859768Y-2753527D02*
X12856723Y-2764167D01*
X16854615Y-5129185D02*
X16855045Y-5128590D01*
X12827725Y-7181608D02*
X12827015Y-7181795D01*
X15666886Y-8543895D02*
X15666931Y-8543162D01*
X15352749Y-2595434D02*
X15352124Y-2595819D01*
X16857183Y-7172326D02*
X16856710Y-7171765D01*
X14028897Y-2585724D02*
X14028512Y-2586349D01*
X12829823Y-6301441D02*
X12830511Y-6301697D01*
X16878621Y-3933298D02*
X17050166Y-3933298D01*
X12825583Y-7182117D02*
X12824862Y-7182251D01*
X12849326Y-4790783D02*
X12849210Y-4791507D01*
X16872111Y-5998598D02*
X16871402Y-5998411D01*
X15688778Y-2598943D02*
X15688074Y-2598739D01*
X15666931Y-8543162D02*
X15666994Y-8542430D01*
X14027271Y-8526422D02*
X14027700Y-8527016D01*
X16855948Y-5127432D02*
X16856420Y-5126870D01*
X12649750Y-4816297D02*
X12649750Y-3933297D01*
X16849929Y-7153536D02*
X16849919Y-7152801D01*
X16851165Y-5135643D02*
X16851438Y-5134961D01*
X15666848Y-2400000D02*
X17050250Y-2400000D01*
X16745296Y-2633062D02*
X16735759Y-2627448D01*
X16877908Y-5999457D02*
X16877175Y-5999412D01*
X14014706Y-8516608D02*
X14015380Y-8516898D01*
X14029620Y-2584447D02*
X14029266Y-2585090D01*
X12863347Y-2743054D02*
X12859768Y-2753527D01*
X14018633Y-8518587D02*
X14019257Y-8518972D01*
X12832534Y-3630227D02*
X12831867Y-3630533D01*
X14334860Y-8535085D02*
X14335099Y-8534391D01*
X14333674Y-2574693D02*
X14333575Y-2573965D01*
X12856723Y-2764167D02*
X12854221Y-2774948D01*
X12819749Y-6299693D02*
X12820484Y-6299702D01*
X15675102Y-8524738D02*
X15675615Y-8524213D01*
X15364904Y-8535052D02*
X15365142Y-8535746D01*
X17435026Y-8992526D02*
X17441638Y-8974046D01*
X17308307Y-2008612D02*
X17289268Y-2003843D01*
X12831192Y-5997217D02*
X12830511Y-5997490D01*
X16853009Y-5983695D02*
X16852671Y-5983044D01*
X15668138Y-2578806D02*
X15667933Y-2578101D01*
X15667577Y-2576677D02*
X15667425Y-2575959D01*
X12841405Y-4807013D02*
X12840892Y-4807538D01*
X12849210Y-3608309D02*
X12849075Y-3609031D01*
X14007655Y-8514653D02*
X14008379Y-8514770D01*
X12841904Y-5126316D02*
X12842390Y-5126866D01*
X12840892Y-5125253D02*
X12841405Y-5125778D01*
X16843296Y-8352447D02*
X16845795Y-8341667D01*
X16695142Y-2610018D02*
X16684502Y-2606973D01*
X12848141Y-5137017D02*
X12848362Y-5137716D01*
X16849472Y-4791517D02*
X16849355Y-4790793D01*
X16869061Y-7180689D02*
X16868380Y-7180416D01*
X12835122Y-3628844D02*
X12834488Y-3629213D01*
X15356831Y-2592327D02*
X15356281Y-2592813D01*
X12824862Y-5999053D02*
X12824137Y-5999170D01*
X12391693Y-2008612D02*
X12373213Y-2015224D01*
X12253593Y-2160982D02*
X12250713Y-2180397D01*
X14344864Y-8520889D02*
X14345448Y-8520445D01*
X14024399Y-8523091D02*
X14024912Y-8523616D01*
X12834488Y-7178807D02*
X12833845Y-7179161D01*
X12835122Y-5995240D02*
X12834488Y-5995609D01*
X12829823Y-5997746D02*
X12829129Y-5997984D01*
X16872957Y-6300420D02*
X16873675Y-6300268D01*
X12835122Y-5120750D02*
X12835746Y-5121135D01*
X12839830Y-3625352D02*
X12839280Y-3625838D01*
X14033006Y-2573284D02*
X14032925Y-2574013D01*
X14360338Y-8514710D02*
X14361069Y-8514648D01*
X14031404Y-8534158D02*
X14031642Y-8534851D01*
X12822681Y-4816152D02*
X12821949Y-4816215D01*
X16852922Y-7500015D02*
X16853244Y-7499355D01*
X14028900Y-8528861D02*
X14029269Y-8529495D01*
X15365142Y-8535746D02*
X15365363Y-8536445D01*
X12844611Y-5986205D02*
X12844196Y-5986810D01*
X16849670Y-3611181D02*
X16849483Y-3610472D01*
X14355291Y-8515647D02*
X14356001Y-8515460D01*
X15677222Y-2592768D02*
X15676672Y-2592281D01*
X16868065Y-6301971D02*
X16868747Y-6301698D01*
X12850030Y-8306223D02*
X12850871Y-8317259D01*
X15346838Y-8516974D02*
X15347525Y-8517230D01*
X12902447Y-8437445D02*
X12909866Y-8445657D01*
X12909866Y-2668422D02*
X12902447Y-2676634D01*
X12836361Y-3628059D02*
X12835746Y-3628459D01*
X16868990Y-5118244D02*
X16869684Y-5118006D01*
X14023869Y-2592007D02*
X14023331Y-2592507D01*
X14011241Y-8515414D02*
X14011945Y-8515619D01*
X16872380Y-4815570D02*
X16871666Y-4815400D01*
X12846119Y-5132301D02*
X12846457Y-5132952D01*
X16851598Y-4798520D02*
X16851309Y-4797846D01*
X14009100Y-8514905D02*
X14009818Y-8515057D01*
X16852970Y-3947832D02*
X16853355Y-3947207D01*
X16875122Y-6300017D02*
X16875849Y-6299918D01*
X15358911Y-8525048D02*
X15359396Y-8525598D01*
X15365568Y-8537149D02*
X15365755Y-8537859D01*
X15668138Y-8536679D02*
X15668360Y-8535979D01*
X12829129Y-5997984D02*
X12828429Y-5998206D01*
X12888902Y-2694132D02*
X12882812Y-2703373D01*
X12839280Y-4809036D02*
X12838718Y-4809509D01*
X15668599Y-8535285D02*
X15668855Y-8534597D01*
X13024218Y-8509128D02*
X13035112Y-8511081D01*
X16715893Y-2617703D02*
X16705615Y-2613597D01*
X17416544Y-9027103D02*
X17426634Y-9010269D01*
X12845765Y-4801133D02*
X12845396Y-4801767D01*
X15359864Y-2589141D02*
X15359392Y-2589702D01*
X12839280Y-7175432D02*
X12838718Y-7175904D01*
X14032826Y-2574740D02*
X14032710Y-2575465D01*
X15671893Y-8528744D02*
X15672309Y-8528139D01*
X14030585Y-2582469D02*
X14030280Y-2583136D01*
X12832534Y-4813425D02*
X12831867Y-4813731D01*
X15364374Y-2581615D02*
X15364085Y-2582290D01*
X16854073Y-4803013D02*
X16853672Y-4802398D01*
X12824137Y-5999170D02*
X12823410Y-5999269D01*
X16725949Y-2622323D02*
X16715893Y-2617703D01*
X12829129Y-4814787D02*
X12828429Y-4815008D01*
X12849506Y-3606128D02*
X12849425Y-3606858D01*
X12821217Y-7482927D02*
X12821949Y-7482972D01*
X16876000Y-4816152D02*
X16875270Y-4816071D01*
X14333431Y-2572505D02*
X14333386Y-2571772D01*
X14017999Y-8518218D02*
X14018633Y-8518587D01*
X16852477Y-6316817D02*
X16852799Y-6316157D01*
X15365363Y-2578853D02*
X15365141Y-2579552D01*
X12845765Y-5131658D02*
X12846119Y-5132301D01*
X14339235Y-2588118D02*
X14338805Y-2587523D01*
X14025892Y-2589882D02*
X14025406Y-2590432D01*
X12849569Y-7154991D02*
X12849506Y-7155722D01*
X16857406Y-5125783D02*
X16857919Y-5125257D01*
X12824862Y-5116936D02*
X12825583Y-5117070D01*
X16877751Y-3633089D02*
X16877018Y-3633062D01*
X12842863Y-7171760D02*
X12842390Y-7172321D01*
X16849111Y-4788606D02*
X16849066Y-4787874D01*
X15689501Y-8516354D02*
X15690216Y-8516185D01*
X13024218Y-2604951D02*
X13013437Y-2607453D01*
X16871978Y-7483975D02*
X16872688Y-7483788D01*
X16871935Y-3632372D02*
X16871221Y-3632202D01*
X12410732Y-2003843D02*
X12391693Y-2008612D01*
X12849506Y-3960267D02*
X12849569Y-3960998D01*
X12821949Y-6299774D02*
X12822681Y-6299837D01*
X12836361Y-7487930D02*
X12836967Y-7488346D01*
X14031402Y-2580426D02*
X14031147Y-2581114D01*
X15677783Y-2593240D02*
X15677222Y-2592768D01*
X16873374Y-3632658D02*
X16872653Y-3632523D01*
X14021071Y-8520218D02*
X14021654Y-8520662D01*
X14033069Y-8542028D02*
X14033114Y-8542760D01*
X15682658Y-2596496D02*
X15682015Y-2596142D01*
X14348515Y-2596322D02*
X14347880Y-2595953D01*
X12849210Y-3958086D02*
X12849326Y-3958810D01*
X12828429Y-7484179D02*
X12829129Y-7484400D01*
X15357369Y-2591828D02*
X15356831Y-2592327D01*
X16861400Y-3938754D02*
X16862005Y-3938339D01*
X12850871Y-8317259D02*
X12852269Y-8328237D01*
X12843321Y-4804791D02*
X12842863Y-4805364D01*
X14032254Y-2577618D02*
X14032067Y-2578328D01*
X14005469Y-8514409D02*
X14006199Y-8514472D01*
X14347264Y-8519200D02*
X14347890Y-8518815D01*
X12835746Y-4811657D02*
X12835122Y-4812042D01*
X16849042Y-3958821D02*
X16849159Y-3958096D01*
X15667075Y-2573786D02*
X15666994Y-2573056D01*
X16848800Y-3961009D02*
X16848863Y-3960277D01*
X15677790Y-8522242D02*
X15678364Y-8521784D01*
X16862620Y-3937939D02*
X16863245Y-3937554D01*
X16849174Y-5145673D02*
X16849200Y-5144939D01*
X16854245Y-6313603D02*
X16854645Y-6312988D01*
X14338805Y-2587523D02*
X14338390Y-2586918D01*
X16849614Y-3955942D02*
X16849801Y-3955232D01*
X16858854Y-4808554D02*
X16858316Y-4808054D01*
X17426634Y-9010269D02*
X17435026Y-8992526D01*
X15667425Y-2575959D02*
X15667290Y-2575238D01*
X16849161Y-3609041D02*
X16849027Y-3608319D01*
X15346144Y-8516735D02*
X15346838Y-8516974D01*
X16868380Y-7180416D02*
X16867705Y-7180127D01*
X12831867Y-5996928D02*
X12831192Y-5997217D01*
X15693108Y-8515685D02*
X15693838Y-8515604D01*
X12840892Y-7491649D02*
X12841405Y-7492174D01*
X12295148Y-2073121D02*
X12283456Y-2088886D01*
X16856334Y-3623282D02*
X16855848Y-3622732D01*
X16877755Y-7482972D02*
X16878487Y-7482927D01*
X16866371Y-3630534D02*
X16865704Y-3630228D01*
X12836967Y-5994039D02*
X12836361Y-5994454D01*
X12849425Y-7156451D02*
X12849326Y-7157179D01*
X16854043Y-3620420D02*
X16853628Y-3619815D01*
X13068190Y-8513600D02*
X14003170Y-8514227D01*
X14029960Y-8530789D02*
X14030282Y-8531448D01*
X14333925Y-2576139D02*
X14333790Y-2575417D01*
X16865857Y-7486424D02*
X16866508Y-7486085D01*
X12849650Y-4786394D02*
X12849641Y-4787129D01*
X14353886Y-8516072D02*
X14354586Y-8515851D01*
X16871221Y-3632202D02*
X16870512Y-3632015D01*
X14347256Y-2595568D02*
X14346640Y-2595167D01*
X12649834Y-6299693D02*
X12819749Y-6299693D01*
X16854645Y-6312988D02*
X16855060Y-6312382D01*
X14017347Y-2596722D02*
X14016696Y-2597060D01*
X16850064Y-7512069D02*
X16850090Y-7511335D01*
X16765534Y-8470402D02*
X16774113Y-8463413D01*
X16849293Y-3957374D02*
X16849444Y-3956656D01*
X12847902Y-3613271D02*
X12847646Y-3613959D01*
X12849641Y-3962464D02*
X12849650Y-3963199D01*
X15667747Y-8538094D02*
X15667934Y-8537384D01*
X14333386Y-2571772D02*
X14333359Y-2571039D01*
X12917692Y-2660596D02*
X12909866Y-2668422D01*
X14028115Y-8527621D02*
X14028515Y-8528236D01*
X14336881Y-2584401D02*
X14336543Y-2583750D01*
X12843766Y-7170603D02*
X12843321Y-7171187D01*
X12848141Y-3612577D02*
X12847902Y-3613271D01*
X15687374Y-2598517D02*
X15686680Y-2598279D01*
X15669128Y-8533915D02*
X15669417Y-8533241D01*
X16754537Y-2639152D02*
X16745296Y-2633062D01*
X14333575Y-2573965D02*
X14333494Y-2573236D01*
X16849753Y-6326673D02*
X16849834Y-6325944D01*
X12847646Y-5980354D02*
X12847374Y-5981036D01*
X12849750Y-5146496D02*
X12849750Y-5969494D01*
X16849819Y-7152703D02*
X16849510Y-6329705D01*
X16856907Y-5126321D02*
X16857406Y-5125783D01*
X12355471Y-2023616D02*
X12338636Y-2033706D01*
X14340611Y-2589836D02*
X14340138Y-2589275D01*
X16737828Y-8488640D02*
X16747368Y-8483032D01*
X16850146Y-7156462D02*
X16850064Y-7155733D01*
X12373213Y-2015224D02*
X12355471Y-2023616D01*
X15356837Y-8522974D02*
X15357375Y-8523473D01*
X12849506Y-4789326D02*
X12849425Y-4790056D01*
X12825583Y-7483466D02*
X12826301Y-7483618D01*
X16849606Y-4792239D02*
X16849472Y-4791517D01*
X12982047Y-8495897D02*
X12992325Y-8500002D01*
X12838145Y-7489220D02*
X12838718Y-7489678D01*
X15338221Y-2600038D02*
X15337488Y-2600065D01*
X12840367Y-5124741D02*
X12840892Y-5125253D01*
X12839280Y-3625838D02*
X12838718Y-3626311D01*
X12821949Y-5116577D02*
X12822681Y-5116640D01*
X12849750Y-7512891D02*
X12849750Y-8295159D01*
X16862161Y-5994042D02*
X16861567Y-5993612D01*
X16834592Y-2742574D02*
X16830487Y-2732297D01*
X16859871Y-7490640D02*
X16860421Y-7490154D01*
X14346035Y-2594752D02*
X14345440Y-2594322D01*
X15361197Y-2587389D02*
X15360767Y-2587984D01*
X16867390Y-6302260D02*
X16868065Y-6301971D01*
X12848923Y-5976145D02*
X12848754Y-5976859D01*
X12872073Y-8391359D02*
X12877198Y-8401169D01*
X16860677Y-3627216D02*
X16860093Y-3626772D01*
X15667174Y-2574513D02*
X15667075Y-2573786D01*
X12840892Y-7173934D02*
X12840367Y-7174446D01*
X14349819Y-8517754D02*
X14350479Y-8517433D01*
X12825583Y-3933872D02*
X12826301Y-3934024D01*
X16815128Y-2702893D02*
X16809037Y-2693652D01*
X13035112Y-2602998D02*
X13024218Y-2604951D01*
X12821217Y-6299729D02*
X12821949Y-6299774D01*
X16862012Y-7176810D02*
X16861428Y-7176366D01*
X12849075Y-5140562D02*
X12849210Y-5141284D01*
X14016036Y-2597382D02*
X14015369Y-2597687D01*
X16848910Y-3607595D02*
X16848811Y-3606868D01*
X12824862Y-3632657D02*
X12824137Y-3632774D01*
X12822681Y-5116640D02*
X12823410Y-5116721D01*
X12827015Y-4815400D02*
X12826301Y-4815569D01*
X16876294Y-7483116D02*
X16877023Y-7483035D01*
X12847646Y-3613959D02*
X12847374Y-3614640D01*
X16867705Y-7180127D02*
X16867038Y-7179822D01*
X15357899Y-8523985D02*
X15358412Y-8524511D01*
X12828429Y-3631810D02*
X12827725Y-3632015D01*
X15348880Y-8517792D02*
X15349547Y-8518098D01*
X12842863Y-5988562D02*
X12842390Y-5989123D01*
X12847085Y-3951081D02*
X12847374Y-3951755D01*
X15673179Y-2588522D02*
X15672735Y-2587938D01*
X12819749Y-5116496D02*
X12820484Y-5116505D01*
X12849075Y-7506958D02*
X12849210Y-7507680D01*
X16859404Y-4809040D02*
X16858854Y-4808554D01*
X12840892Y-3624340D02*
X12840367Y-3624853D01*
X16869807Y-3631811D02*
X16869108Y-3631589D01*
X16849484Y-5970338D02*
X16849475Y-5969603D01*
X16850335Y-3613279D02*
X16850097Y-3612585D01*
X16856834Y-3623819D02*
X16856334Y-3623282D01*
X15352124Y-2595819D02*
X15351490Y-2596188D01*
X15696036Y-8515471D02*
X15696771Y-8515462D01*
X16852918Y-4801140D02*
X16852564Y-4800497D01*
X16802487Y-2684731D02*
X16795493Y-2676154D01*
X14024906Y-2590969D02*
X14024394Y-2591495D01*
X14335099Y-8534391D02*
X14335355Y-8533703D01*
X12264974Y-8992526D02*
X12273366Y-9010269D01*
X16863245Y-3937554D02*
X16863879Y-3937184D01*
X15359396Y-8525598D02*
X15359868Y-8526159D01*
X14012632Y-2598743D02*
X14011933Y-2598965D01*
X12846119Y-3949103D02*
X12846457Y-3949754D01*
X16850496Y-7158634D02*
X16850361Y-7157913D01*
X12821949Y-7182610D02*
X12821217Y-7182655D01*
X12841904Y-6309514D02*
X12842390Y-6310064D01*
X16858681Y-7173938D02*
X16858168Y-7173413D01*
X15675615Y-8524213D02*
X15676140Y-8523700D01*
X12882812Y-8410706D02*
X12888902Y-8419947D01*
X13046091Y-2601600D02*
X13035112Y-2602998D01*
X16876134Y-5116640D02*
X16876865Y-5116577D01*
X12843766Y-7494980D02*
X12844196Y-7495575D01*
X16852032Y-5133619D02*
X16852354Y-5132959D01*
X12831867Y-3630533D02*
X12831192Y-3630822D01*
X15693838Y-8515604D02*
X15694569Y-8515542D01*
X12819749Y-7482891D02*
X12820484Y-7482900D01*
X15366614Y-2571641D02*
X15366569Y-2572373D01*
X14333790Y-8539354D02*
X14333925Y-8538632D01*
X15676134Y-2591782D02*
X15675609Y-2591269D01*
X16850245Y-7157189D02*
X16850146Y-7156462D01*
X12649834Y-7482891D02*
X12819749Y-7482891D01*
X16870828Y-6300982D02*
X16871533Y-6300777D01*
X15672309Y-8528139D02*
X15672739Y-8527544D01*
X12845765Y-3617935D02*
X12845396Y-3618569D01*
X14349167Y-8518092D02*
X14349819Y-8517754D01*
X16849834Y-6325944D02*
X16849932Y-6325216D01*
X15688086Y-8516745D02*
X15688791Y-8516541D01*
X12849750Y-2818919D02*
X12849750Y-3603098D01*
X16871798Y-5117392D02*
X16872512Y-5117223D01*
X16848756Y-3961741D02*
X16848800Y-3961009D01*
X12845765Y-5984331D02*
X12845396Y-5984965D01*
X16640813Y-2600280D02*
X16629750Y-2600000D01*
X16873988Y-7182117D02*
X16873270Y-7181965D01*
X16869192Y-7484896D02*
X16869880Y-7484640D01*
X16868859Y-4814549D02*
X16868171Y-4814293D01*
X14021647Y-2593924D02*
X14021063Y-2594368D01*
X14337235Y-2585044D02*
X14336881Y-2584401D01*
X16877620Y-7182610D02*
X16876889Y-7182547D01*
X15668360Y-8535979D02*
X15668599Y-8535285D01*
X16675781Y-8511564D02*
X16686562Y-8509073D01*
X14030282Y-8531448D02*
X14030587Y-8532115D01*
X15670043Y-2583570D02*
X15669721Y-2582910D01*
X12838145Y-6306022D02*
X12838718Y-6306480D01*
X14341097Y-2590386D02*
X14340611Y-2589836D01*
X16866379Y-7179500D02*
X16865728Y-7179162D01*
X16855934Y-6311203D02*
X16856393Y-6310630D01*
X12849210Y-7157903D02*
X12849075Y-7158625D01*
X16854200Y-5129790D02*
X16854615Y-5129185D01*
X15667290Y-8540248D02*
X15667425Y-8539527D01*
X12834488Y-4812411D02*
X12833845Y-4812765D01*
X16850377Y-7508414D02*
X16850493Y-7507689D01*
X14007641Y-2599929D02*
X14006914Y-2600028D01*
X16850097Y-3612585D02*
X16849875Y-3611886D01*
X16863879Y-3937184D02*
X16864522Y-3936830D01*
X15338236Y-8515258D02*
X15338969Y-8515303D01*
X16849620Y-5972535D02*
X16849556Y-5971804D01*
X12840367Y-3624853D02*
X12839830Y-3625352D01*
X12847374Y-3614640D02*
X12847085Y-3615314D01*
X15666994Y-8542430D02*
X15667075Y-8541701D01*
X15671490Y-2586123D02*
X15671105Y-2585498D01*
X16855503Y-3944234D02*
X16855976Y-3943672D01*
X17050166Y-4816296D02*
X16878930Y-4816296D01*
X14334433Y-2578280D02*
X14334246Y-2577571D01*
X12827725Y-3632015D02*
X12827015Y-3632202D01*
X14344283Y-2593420D02*
X14343722Y-2592947D01*
X16852119Y-3617299D02*
X16851781Y-3616648D01*
X12971990Y-8491276D02*
X12982047Y-8495897D01*
X16851135Y-7504826D02*
X16851340Y-7504121D01*
X16855376Y-3622171D02*
X16854917Y-3621598D01*
X12849750Y-3963298D02*
X12849750Y-4786296D01*
X16867726Y-3631095D02*
X16867045Y-3630823D01*
X12847902Y-5979666D02*
X12847646Y-5980354D01*
X16853355Y-3947207D02*
X16853755Y-3946592D01*
X15366650Y-2570173D02*
X15366641Y-2570908D01*
X16662827Y-2602519D02*
X16651849Y-2601121D01*
X12831192Y-6301969D02*
X12831867Y-6302259D01*
X12838145Y-3626769D02*
X12837561Y-3627214D01*
X16850055Y-7512804D02*
X16850064Y-7512069D01*
X14337238Y-8529725D02*
X14337607Y-8529090D01*
X16872825Y-5998767D02*
X16872111Y-5998598D01*
X16850278Y-7509142D02*
X16850377Y-7508414D01*
X15366506Y-8542191D02*
X15366569Y-8542922D01*
X16851800Y-7502727D02*
X16852055Y-7502039D01*
X12847646Y-3952437D02*
X12847902Y-3953125D01*
X15666850Y-2570125D02*
X15666850Y-2400134D01*
X16868414Y-3631351D02*
X16867726Y-3631095D01*
X14033150Y-2570353D02*
X14033141Y-2571087D01*
X16855821Y-4805369D02*
X16855362Y-4804796D01*
X14028515Y-8528236D02*
X14028900Y-8528861D01*
X14032424Y-8537678D02*
X14032576Y-8538396D01*
X16867490Y-4814021D02*
X16866816Y-4813732D01*
X15341141Y-2599750D02*
X15340414Y-2599849D01*
X15666850Y-8545363D02*
X15666859Y-8544628D01*
X12823410Y-5116721D02*
X12824137Y-5116819D01*
X12909866Y-8445657D02*
X12917692Y-8453483D01*
X12849614Y-4787863D02*
X12849569Y-4788595D01*
X16865619Y-5119690D02*
X16866278Y-5119368D01*
X15672305Y-2587343D02*
X15671890Y-2586738D01*
X16825866Y-2722240D02*
X16820742Y-2712430D01*
X15362397Y-2585544D02*
X15362012Y-2586169D01*
X12834488Y-3629213D02*
X12833845Y-3629567D01*
X16878776Y-6299702D02*
X16879511Y-6299693D01*
X16870957Y-4815213D02*
X16870252Y-4815009D01*
X16852328Y-7501357D02*
X16852617Y-7500682D01*
X15695287Y-2599990D02*
X15694554Y-2599945D01*
X14343178Y-8522306D02*
X14343728Y-8521820D01*
X12835746Y-3628459D02*
X12835122Y-3628844D01*
X12842390Y-3943668D02*
X12842863Y-3944229D01*
X12849425Y-5973254D02*
X12849326Y-5973981D01*
X16861272Y-3627646D02*
X16860677Y-3627216D01*
X16858316Y-4808054D02*
X16857791Y-4807542D01*
X12823410Y-7182466D02*
X12822681Y-7182547D01*
X16877886Y-3933307D02*
X16878621Y-3933298D01*
X16849165Y-5146408D02*
X16849174Y-5145673D01*
X12841904Y-4806475D02*
X12841405Y-4807013D01*
X16855363Y-5987410D02*
X16854933Y-5986816D01*
X12854221Y-2774948D02*
X12852269Y-2785842D01*
X12835746Y-3937937D02*
X12836361Y-3938337D01*
X16879955Y-7482891D02*
X17050166Y-7482891D01*
X15336654Y-2600174D02*
X14363354Y-2600305D01*
X14358881Y-8514889D02*
X14359608Y-8514791D01*
X16858363Y-6308455D02*
X16858889Y-6307942D01*
X16879221Y-7482900D02*
X16879955Y-7482891D01*
X12837561Y-7176807D02*
X12836967Y-7177237D01*
X16840253Y-8363087D02*
X16843296Y-8352447D01*
X16859648Y-3940088D02*
X16860221Y-3939629D01*
X14335098Y-2580379D02*
X14334859Y-2579685D01*
X16871533Y-6300777D02*
X16872243Y-6300590D01*
X15679535Y-2594573D02*
X15678940Y-2594143D01*
X16851005Y-7160775D02*
X16850818Y-7160066D01*
X16856738Y-5989128D02*
X16856266Y-5988567D01*
X14010518Y-2599357D02*
X14009804Y-2599526D01*
X16860293Y-7175435D02*
X16859744Y-7174949D01*
X14024912Y-8523616D02*
X14025411Y-8524154D01*
X15693094Y-2599801D02*
X15692366Y-2599702D01*
X16874709Y-7182251D02*
X16873988Y-7182117D01*
X12847085Y-5134279D02*
X12847374Y-5134953D01*
X16856838Y-7493828D02*
X16857310Y-7493266D01*
X15364087Y-8533009D02*
X15364376Y-8533683D01*
X16874543Y-4815972D02*
X16873819Y-4815856D01*
X12824137Y-3632774D02*
X12823410Y-3632873D01*
X15360767Y-2587984D02*
X15360322Y-2588568D01*
X12849326Y-7508404D02*
X12849425Y-7509131D01*
X12849075Y-5975427D02*
X12848923Y-5976145D01*
X12850030Y-2807856D02*
X12849750Y-2818919D01*
X14005453Y-2600172D02*
X14004721Y-2600217D01*
X14006199Y-8514472D02*
X14006928Y-8514554D01*
X16848930Y-4786307D02*
X16848620Y-3963309D01*
X14028512Y-2586349D02*
X14028112Y-2586964D01*
X15694554Y-2599945D02*
X15693823Y-2599882D01*
X16856779Y-4806480D02*
X16856293Y-4805930D01*
X14356001Y-8515460D02*
X14356716Y-8515291D01*
X15341155Y-8515547D02*
X15341879Y-8515664D01*
X15357894Y-2591315D02*
X15357369Y-2591828D01*
X16851153Y-3615322D02*
X16850864Y-3614648D01*
X12833193Y-7486084D02*
X12833845Y-7486422D01*
X14015369Y-2597687D02*
X14014695Y-2597976D01*
X15681390Y-8519709D02*
X15682024Y-8519340D01*
X16853046Y-5131665D02*
X16853415Y-5131030D01*
X16855807Y-5987994D02*
X16855363Y-5987410D01*
X16865174Y-3936492D02*
X16865833Y-3936170D01*
X15667075Y-8541701D02*
X15667174Y-8540973D01*
X14032067Y-2578328D02*
X14031863Y-2579032D01*
X12846119Y-3617292D02*
X12845765Y-3617935D01*
X12848141Y-3953819D02*
X12848362Y-3954518D01*
X12829129Y-5118005D02*
X12829823Y-5118244D01*
X16871353Y-3934194D02*
X16872067Y-3934025D01*
X16869998Y-5997985D02*
X16869304Y-5997746D01*
X17361364Y-2033706D02*
X17344529Y-2023616D01*
X14342640Y-8522806D02*
X14343178Y-8522306D01*
X16851116Y-6320223D02*
X16851355Y-6319529D01*
X14338809Y-8527245D02*
X14339239Y-8526650D01*
X14334077Y-2576857D02*
X14333925Y-2576139D01*
X16875689Y-3933442D02*
X16876420Y-3933379D01*
X16874825Y-3632873D02*
X16874099Y-3632774D01*
X15364648Y-8534364D02*
X15364904Y-8535052D01*
X14021063Y-2594368D02*
X14020469Y-2594798D01*
X15671890Y-2586738D02*
X15671490Y-2586123D01*
X12836361Y-5121535D02*
X12836967Y-5121950D01*
X12848754Y-3955933D02*
X12848923Y-3956647D01*
X12849614Y-3961731D02*
X12849641Y-3962464D01*
X16860093Y-5123286D02*
X16860666Y-5122827D01*
X16774113Y-8463413D02*
X16782327Y-8455998D01*
X16872653Y-3632523D02*
X16871935Y-3632372D01*
X14019872Y-8519373D02*
X14020477Y-8519788D01*
X15688074Y-2598739D02*
X15687374Y-2598517D01*
X16861111Y-6306025D02*
X16861695Y-6305580D01*
X15337503Y-8515230D02*
X15338236Y-8515258D01*
X16859744Y-7174949D02*
X16859206Y-7174450D01*
X12841405Y-5125778D02*
X12841904Y-5126316D01*
X16849916Y-5974715D02*
X16849800Y-5973991D01*
X12829823Y-3935046D02*
X12830511Y-3935301D01*
X12859768Y-8360552D02*
X12863347Y-8371025D01*
X16859531Y-5123758D02*
X16860093Y-5123286D01*
X12831192Y-3630822D02*
X12830511Y-3631094D01*
X12844611Y-6312982D02*
X12845011Y-6313597D01*
X14333431Y-8542267D02*
X14333494Y-8541536D01*
X16860093Y-3626772D02*
X16859520Y-3626314D01*
X14013338Y-8516080D02*
X14014025Y-8516336D01*
X16853415Y-5131030D02*
X16853800Y-5130405D01*
X12835746Y-6304332D02*
X12836361Y-6304733D01*
X16877175Y-5999412D02*
X16876445Y-5999350D01*
X16851431Y-7162179D02*
X16851210Y-7161480D01*
X14024394Y-2591495D02*
X14023869Y-2592007D01*
X16872688Y-7483788D02*
X16873402Y-7483618D01*
X12846119Y-7166886D02*
X12845765Y-7167529D01*
X14032575Y-2576186D02*
X14032424Y-2576904D01*
X12831192Y-7485167D02*
X12831867Y-7485457D01*
X16854117Y-5985596D02*
X16853732Y-5984971D01*
X14333494Y-2573236D02*
X14333431Y-2572505D01*
X14032255Y-8536965D02*
X14032424Y-8537678D01*
X16868171Y-4814293D02*
X16867490Y-4814021D01*
X12847646Y-7502031D02*
X12847902Y-7502718D01*
X12846779Y-3950414D02*
X12847085Y-3951081D01*
X15344741Y-8516308D02*
X15345445Y-8516513D01*
X14357434Y-8515139D02*
X14358156Y-8515005D01*
X12843766Y-5987405D02*
X12843321Y-5987989D01*
X12848754Y-7505526D02*
X12848923Y-7506240D01*
X14336883Y-8530368D02*
X14337238Y-8529725D01*
X17404852Y-2073121D02*
X17391671Y-2058579D01*
X14333386Y-8543000D02*
X14333431Y-8542267D01*
X14020469Y-2594798D02*
X14019864Y-2595213D01*
X12841405Y-5990211D02*
X12840892Y-5990736D01*
X12849075Y-4792229D02*
X12848923Y-4792947D01*
X15366569Y-2572373D02*
X15366506Y-2573104D01*
X16849444Y-3956656D02*
X16849614Y-3955942D01*
X16850627Y-7506968D02*
X16850779Y-7506250D01*
X12819749Y-7182691D02*
X12649834Y-7182691D01*
X12848141Y-4795775D02*
X12847902Y-4796469D01*
X15347514Y-2598069D02*
X15346826Y-2598325D01*
X16850226Y-3953827D02*
X16850465Y-3953133D01*
X16871273Y-7484179D02*
X16871978Y-7483975D01*
X14016047Y-8517203D02*
X14016706Y-8517526D01*
X16651849Y-2601121D02*
X16640813Y-2600280D01*
X12849425Y-6325933D02*
X12849506Y-6326663D01*
X16866723Y-6302566D02*
X16867390Y-6302260D01*
X14341596Y-2590924D02*
X14341097Y-2590386D01*
X15668854Y-2580887D02*
X15668598Y-2580199D01*
X16852799Y-6316157D02*
X16853137Y-6315506D01*
X12848141Y-7162170D02*
X12847902Y-7162864D01*
X12829129Y-7181182D02*
X12828429Y-7181404D01*
X12826301Y-7483618D02*
X12827015Y-7483787D01*
X12888902Y-8419947D02*
X12895453Y-8428868D01*
X15686680Y-2598279D02*
X15685992Y-2598023D01*
X16879375Y-5999493D02*
X16878641Y-5999484D01*
X16849487Y-5142019D02*
X16849603Y-5141294D01*
X16875404Y-5116721D02*
X16876134Y-5116640D01*
X12837561Y-3939182D02*
X12838145Y-3939626D01*
X15667934Y-8537384D02*
X15668138Y-8536679D01*
X16850005Y-3954527D02*
X16850226Y-3953827D01*
X16878331Y-5116505D02*
X16879066Y-5116496D01*
X16642873Y-8515721D02*
X16653908Y-8514893D01*
X12820484Y-5116505D02*
X12821217Y-5116532D01*
X12831867Y-7180126D02*
X12831192Y-7180415D01*
X17269853Y-2000963D02*
X17250250Y-2000000D01*
X14351136Y-2597641D02*
X14350469Y-2597336D01*
X12824137Y-4815972D02*
X12823410Y-4816071D01*
X16631810Y-8515989D02*
X16642873Y-8515721D01*
X14362520Y-2600196D02*
X14361787Y-2600169D01*
X12449750Y-2000000D02*
X12430146Y-2000963D01*
X15366651Y-8715989D02*
X14333349Y-8715989D01*
X15667174Y-8540973D02*
X15667290Y-8540248D01*
X17050250Y-3933297D02*
X17050250Y-4816297D01*
X14032068Y-8536255D02*
X14032255Y-8536965D01*
X12849614Y-5144929D02*
X12849641Y-5145662D01*
X16857474Y-3942059D02*
X16857999Y-3941546D01*
X14358156Y-8515005D02*
X14358881Y-8514889D01*
X12849641Y-7153525D02*
X12849614Y-7154258D01*
X12833193Y-3629905D02*
X12832534Y-3630227D01*
X16863211Y-7177655D02*
X16862606Y-7177240D01*
X12845396Y-7168163D02*
X12845011Y-7168788D01*
X16849066Y-4787874D02*
X16849039Y-4787141D01*
X16874099Y-3632774D02*
X16873374Y-3632658D01*
X16856252Y-7171192D02*
X16855808Y-7170608D01*
X12849425Y-3606858D02*
X12849326Y-3607585D01*
X12849750Y-6329693D02*
X12849750Y-7152691D01*
X16850993Y-3951763D02*
X16851282Y-3951089D01*
X16849932Y-6325216D02*
X16850048Y-6324492D01*
X12843766Y-3621009D02*
X12843321Y-3621593D01*
X12848923Y-4792947D02*
X12848754Y-4793661D01*
X12308329Y-9057411D02*
X12322871Y-9070591D01*
X15354571Y-8521112D02*
X15355154Y-8521556D01*
X12849641Y-3603931D02*
X12849614Y-3604665D01*
X16858444Y-5124744D02*
X16858981Y-5124245D01*
X12827725Y-6300777D02*
X12828429Y-6300981D01*
X15366650Y-2400134D02*
X15366650Y-2570173D01*
X12825583Y-5117070D02*
X12826301Y-5117222D01*
X12844196Y-3620414D02*
X12843766Y-3621009D01*
X15365924Y-8538572D02*
X15366076Y-8539290D01*
X12838718Y-3626311D02*
X12838145Y-3626769D01*
X15682667Y-8518986D02*
X15683319Y-8518649D01*
X12848567Y-7160766D02*
X12848362Y-7161471D01*
X12820484Y-3933307D02*
X12821217Y-3933334D01*
X16832571Y-8383835D02*
X16836675Y-8373558D01*
X15362766Y-2584911D02*
X15362397Y-2585544D01*
X16857279Y-4807017D02*
X16856779Y-4806480D01*
X15365567Y-2578148D02*
X15365363Y-2578853D01*
X12845396Y-5984965D02*
X12845011Y-5985590D01*
X15672735Y-2587938D02*
X15672305Y-2587343D01*
X16850198Y-7509871D02*
X16850278Y-7509142D01*
X14003269Y-8514327D02*
X14004003Y-8514336D01*
X12982047Y-2618182D02*
X12971990Y-2622803D01*
X12845396Y-5131024D02*
X12845765Y-5131658D01*
X16878930Y-4816296D02*
X16878196Y-4816287D01*
X14334247Y-8537200D02*
X14334434Y-8536490D01*
X15353364Y-2595034D02*
X15352749Y-2595434D01*
X14347880Y-2595953D02*
X14347256Y-2595568D01*
X16847744Y-8330774D02*
X16849138Y-8319796D01*
X16850986Y-5978981D02*
X16850765Y-5978282D01*
X15352757Y-8519867D02*
X15353372Y-8520267D01*
X15366641Y-8544387D02*
X15366650Y-8545121D01*
X15354563Y-2594188D02*
X15353969Y-2594618D01*
X15669415Y-2582243D02*
X15669126Y-2581569D01*
X12844196Y-4803612D02*
X12843766Y-4804207D01*
X12895453Y-2685211D02*
X12888902Y-2694132D01*
X16867857Y-3935302D02*
X16868545Y-3935046D01*
X14031147Y-2581114D02*
X14030874Y-2581795D01*
X12846779Y-5133612D02*
X12847085Y-5134279D01*
X16795493Y-2676154D02*
X16788073Y-2667942D01*
X15360322Y-2588568D02*
X15359864Y-2589141D01*
X16852172Y-6317484D02*
X16852477Y-6316817D01*
X16868510Y-7485168D02*
X16869192Y-7484896D01*
X12848567Y-5977568D02*
X12848362Y-5978273D01*
X16854177Y-7168169D02*
X16853808Y-7167536D01*
X16869435Y-6301442D02*
X16870129Y-6301203D01*
X12845011Y-4802392D02*
X12844611Y-4803007D01*
X17269853Y-9115026D02*
X17289268Y-9112146D01*
X12823410Y-3632873D02*
X12822681Y-3632954D01*
X12845011Y-5130399D02*
X12845396Y-5131024D01*
X12649750Y-2400000D02*
X14033152Y-2400000D01*
X16850591Y-3613967D02*
X16850335Y-3613279D01*
X16862005Y-3938339D02*
X16862620Y-3937939D01*
X12819749Y-5999493D02*
X12649834Y-5999493D01*
X14031641Y-2579732D02*
X14031402Y-2580426D01*
X16866501Y-3935864D02*
X16867175Y-3935575D01*
X12838718Y-5992706D02*
X12838145Y-5993165D01*
X12849506Y-5972524D02*
X12849425Y-5973254D01*
X14339679Y-2588702D02*
X14339235Y-2588118D01*
X12829129Y-7484400D02*
X12829823Y-7484639D01*
X14013326Y-2598505D02*
X14012632Y-2598743D01*
X16875567Y-7483215D02*
X16876294Y-7483116D01*
X12849326Y-3958810D02*
X12849425Y-3959538D01*
X14357420Y-2599631D02*
X14356702Y-2599479D01*
X14026827Y-8525838D02*
X14027271Y-8526422D01*
X17377129Y-9070591D02*
X17391671Y-9057411D01*
X14340142Y-8525493D02*
X14340615Y-8524931D01*
X16847909Y-2807376D02*
X16847069Y-2796341D01*
X16849355Y-4790793D02*
X16849256Y-4790066D01*
X12827015Y-5117392D02*
X12827725Y-5117579D01*
X14351822Y-8516838D02*
X14352503Y-8516566D01*
X15679543Y-8520909D02*
X15680149Y-8520494D01*
X15680764Y-8520094D02*
X15681390Y-8519709D01*
X15676678Y-8523201D02*
X15677228Y-8522715D01*
X15683309Y-2596834D02*
X15682658Y-2596496D01*
X16870252Y-4815009D02*
X16869553Y-4814787D01*
X16870574Y-7484401D02*
X16871273Y-7484179D01*
X16858981Y-5124245D02*
X16859531Y-5123758D01*
X14032710Y-2575465D02*
X14032575Y-2576186D01*
X16860221Y-3939629D02*
X16860805Y-3939185D01*
X15359868Y-8526159D02*
X15360327Y-8526732D01*
X14337990Y-2586303D02*
X14337605Y-2585678D01*
X16851210Y-7161480D02*
X16851005Y-7160775D01*
X17404852Y-9042868D02*
X17416544Y-9027103D01*
X12841405Y-6308976D02*
X12841904Y-6309514D01*
X12249750Y-2200000D02*
X12249750Y-8915989D01*
X12846779Y-7165575D02*
X12846457Y-7166235D01*
X16852842Y-3618576D02*
X16852473Y-3617942D01*
X12822681Y-5999349D02*
X12821949Y-5999412D01*
X16877310Y-6299775D02*
X16878042Y-6299730D01*
X16707678Y-8502467D02*
X16717958Y-8498370D01*
X16851926Y-7163560D02*
X16851670Y-7162873D01*
X14333925Y-8538632D02*
X14334077Y-8537914D01*
X14019249Y-2595613D02*
X14018624Y-2595998D01*
X12846779Y-3615982D02*
X12846457Y-3616641D01*
X16850064Y-7155733D02*
X16850001Y-7155002D01*
X16852601Y-3948467D02*
X16852970Y-3947832D01*
X12849614Y-3604665D02*
X12849569Y-3605397D01*
X12847902Y-3953125D02*
X12848141Y-3953819D01*
X12845765Y-7167529D02*
X12845396Y-7168163D01*
X12836967Y-6305148D02*
X12837561Y-6305578D01*
X12258362Y-8974046D02*
X12264974Y-8992526D01*
X12845011Y-6313597D02*
X12845396Y-6314222D01*
X12846457Y-3949754D02*
X12846779Y-3950414D01*
X12848362Y-5978273D02*
X12848141Y-5978973D01*
X12849506Y-7155722D02*
X12849425Y-7156451D01*
X12826301Y-6300420D02*
X12827015Y-6300590D01*
X15685992Y-2598023D02*
X15685310Y-2597751D01*
X14025896Y-8524704D02*
X14026368Y-8525265D01*
X14344290Y-8521348D02*
X14344864Y-8520889D01*
X12902447Y-2676634D02*
X12895453Y-2685211D01*
X16856710Y-7171765D02*
X16856252Y-7171192D01*
X14030280Y-2583136D02*
X14029958Y-2583796D01*
X16857871Y-3624856D02*
X16857346Y-3624344D01*
X16865214Y-7486778D02*
X16865857Y-7486424D01*
X12833845Y-3629567D02*
X12833193Y-3629905D01*
X12834488Y-3937182D02*
X12835122Y-3937552D01*
X16854473Y-3621014D02*
X16854043Y-3620420D01*
X16876579Y-6299838D02*
X16877310Y-6299775D01*
X16877023Y-7483035D02*
X16877755Y-7482972D01*
X16855976Y-3943672D02*
X16856462Y-3943123D01*
X13013437Y-2607453D02*
X13002797Y-2610497D01*
X12835746Y-7178052D02*
X12835122Y-7178437D01*
X14030587Y-8532115D02*
X14030876Y-8532789D01*
X12848567Y-6321619D02*
X12848754Y-6322328D01*
X14363370Y-8514468D02*
X15336670Y-8515121D01*
X16850135Y-7510602D02*
X16850198Y-7509871D01*
X12821949Y-3633017D02*
X12821217Y-3633062D01*
X16856961Y-3942585D02*
X16857474Y-3942059D01*
X16855490Y-6311787D02*
X16855934Y-6311203D01*
X12838145Y-5122824D02*
X12838718Y-5123283D01*
X15670735Y-2584864D02*
X15670381Y-2584221D01*
X14032576Y-8538396D02*
X14032710Y-8539117D01*
X16875715Y-5999269D02*
X16874988Y-5999170D01*
X16878485Y-3633098D02*
X16877751Y-3633089D01*
X14361054Y-2600124D02*
X14360323Y-2600061D01*
X12843321Y-3944802D02*
X12843766Y-3945386D01*
X16857310Y-7493266D02*
X16857796Y-7492716D01*
X14022220Y-2593465D02*
X14021647Y-2593924D01*
X12831867Y-7485457D02*
X12832534Y-7485762D01*
X16868747Y-6301698D02*
X16869435Y-6301442D01*
X16863561Y-4812044D02*
X16862937Y-4811659D01*
X15366614Y-8543654D02*
X15366641Y-8544387D01*
X16859849Y-5992237D02*
X16859299Y-5991751D01*
X16863065Y-5121137D02*
X16863690Y-5120752D01*
X14349158Y-2596676D02*
X14348515Y-2596322D01*
X12836967Y-7488346D02*
X12837561Y-7488775D01*
X16849483Y-3610472D02*
X16849313Y-3609758D01*
X16862767Y-5994457D02*
X16862161Y-5994042D01*
X16848729Y-3962475D02*
X16848756Y-3961741D01*
X12867453Y-8381302D02*
X12872073Y-8391359D01*
X16860983Y-5993168D02*
X16860410Y-5992710D01*
X16852617Y-7500682D02*
X16852922Y-7500015D01*
X16856865Y-6310068D02*
X16857351Y-6309518D01*
X14352492Y-2598203D02*
X14351810Y-2597930D01*
X12847085Y-7500675D02*
X12847374Y-7501349D01*
X12849614Y-5971061D02*
X12849569Y-5971793D01*
X12848362Y-4795075D02*
X12848141Y-4795775D01*
X16868302Y-5118500D02*
X16868990Y-5118244D01*
X15343304Y-2599347D02*
X15342587Y-2599499D01*
X15345445Y-8516513D02*
X15346144Y-8516735D01*
X16871666Y-4815400D02*
X16870957Y-4815213D01*
X17250250Y-9115989D02*
X17269853Y-9115026D01*
X12849750Y-8295159D02*
X12850030Y-8306223D01*
X16862290Y-6305150D02*
X16862895Y-6304735D01*
X15691656Y-8515899D02*
X15692381Y-8515783D01*
X17326787Y-2015224D02*
X17308307Y-2008612D01*
X12829129Y-6301203D02*
X12829823Y-6301441D01*
X12250713Y-2180397D02*
X12249750Y-2200000D01*
X16851904Y-4799187D02*
X16851598Y-4798520D01*
X12841904Y-3623277D02*
X12841405Y-3623815D01*
X12833193Y-5996301D02*
X12832534Y-5996623D01*
X15353372Y-8520267D02*
X15353977Y-8520682D01*
X16867045Y-3630823D02*
X16866371Y-3630534D01*
X12836967Y-3938752D02*
X12837561Y-3939182D01*
X15347525Y-8517230D02*
X15348206Y-8517503D01*
X12823410Y-7483116D02*
X12824137Y-7483215D01*
X12849326Y-5973981D02*
X12849210Y-5974705D01*
X14014695Y-2597976D02*
X14014014Y-2598249D01*
X16862492Y-3628461D02*
X16861877Y-3628061D01*
X15366425Y-8541462D02*
X15366506Y-8542191D01*
X16879066Y-5116496D02*
X17050166Y-5116496D01*
X12829823Y-3631350D02*
X12829129Y-3631589D01*
X15363120Y-2584268D02*
X15362766Y-2584911D01*
X16877463Y-4816260D02*
X16876731Y-4816215D01*
X16850818Y-7160066D02*
X16850648Y-7159352D01*
X15342587Y-2599499D02*
X15341865Y-2599633D01*
X16830487Y-2732297D02*
X16825866Y-2722240D01*
X12847646Y-5135635D02*
X12847902Y-5136323D01*
X15360771Y-8527316D02*
X15361200Y-8527911D01*
X12824862Y-3933738D02*
X12825583Y-3933872D01*
X16849701Y-5973264D02*
X16849620Y-5972535D01*
X17050250Y-6299692D02*
X17050250Y-7182692D01*
X15669723Y-8532573D02*
X15670045Y-8531914D01*
X12838718Y-7175904D02*
X12838145Y-7176363D01*
X14335917Y-8532346D02*
X14336223Y-8531679D01*
X16848621Y-3604676D02*
X16848594Y-3603943D01*
X14022227Y-8521121D02*
X14022788Y-8521593D01*
X16851481Y-5980362D02*
X16851225Y-5979675D01*
X16864393Y-3629569D02*
X16863750Y-3629215D01*
X16850910Y-5136331D02*
X16851165Y-5135643D01*
X12827015Y-6300590D02*
X12827725Y-6300777D01*
X14341102Y-8524381D02*
X14341602Y-8523844D01*
X15365363Y-8536445D02*
X15365568Y-8537149D01*
X12842863Y-7493823D02*
X12843321Y-7494396D01*
X14033006Y-8541297D02*
X14033069Y-8542028D01*
X15355727Y-8522015D02*
X15356288Y-8522487D01*
X16856266Y-5988567D02*
X16855807Y-5987994D01*
X16849956Y-7154269D02*
X16849929Y-7153536D01*
X15366327Y-8540735D02*
X15366425Y-8541462D01*
X17426634Y-2105721D02*
X17416544Y-2088886D01*
X16876889Y-7182547D02*
X16876160Y-7182467D01*
X16861845Y-5121952D02*
X16862450Y-5121537D01*
X15357375Y-8523473D02*
X15357899Y-8523985D01*
X16851438Y-5134961D02*
X16851727Y-5134287D01*
X16865085Y-7178809D02*
X16864451Y-7178439D01*
X16848944Y-3959548D02*
X16849042Y-3958821D01*
X16858959Y-3625842D02*
X16858409Y-3625356D01*
X16653908Y-8514893D02*
X16664886Y-8513506D01*
X16858296Y-7492178D02*
X16858808Y-7491653D01*
X12847085Y-6317477D02*
X12847374Y-6318151D01*
X15366076Y-8539290D02*
X15366210Y-8540011D01*
X17377129Y-2045398D02*
X17361364Y-2033706D01*
X16861428Y-7176366D02*
X16860855Y-7175907D01*
X15668855Y-8534597D02*
X15669128Y-8533915D01*
X12838145Y-3939626D02*
X12838718Y-3940085D01*
X17344529Y-9092374D02*
X17361364Y-9082283D01*
X15353969Y-2594618D02*
X15353364Y-2595034D01*
X14015380Y-8516898D02*
X14016047Y-8517203D01*
X12849569Y-5971793D02*
X12849506Y-5972524D01*
X12849614Y-6328126D02*
X12849641Y-6328860D01*
X12849614Y-7511324D02*
X12849641Y-7512058D01*
X16850250Y-8297699D02*
X16849955Y-7512903D01*
X14336545Y-8531019D02*
X14336883Y-8530368D01*
X14023337Y-8522079D02*
X14023875Y-8522579D01*
X16865704Y-3630228D02*
X16865044Y-3629907D01*
X12848923Y-3609749D02*
X12848754Y-3610463D01*
X12848923Y-3956647D02*
X12849075Y-3957364D01*
X15676672Y-2592281D02*
X15676134Y-2591782D01*
X16849610Y-6329606D02*
X16849619Y-6328871D01*
X14033141Y-8543493D02*
X14033150Y-8544227D01*
X16850671Y-5137025D02*
X16850910Y-5136331D01*
X15671493Y-8529360D02*
X15671893Y-8528744D01*
X16756611Y-8476947D02*
X16765534Y-8470402D01*
X15366326Y-2574561D02*
X15366210Y-2575285D01*
X16865934Y-5996302D02*
X16865283Y-5995965D01*
X12847374Y-6318151D02*
X12847646Y-6318833D01*
X12821949Y-3933379D02*
X12822681Y-3933442D01*
X17050250Y-7482890D02*
X17050250Y-8715989D01*
X12934481Y-2646182D02*
X12925904Y-2653176D01*
X12841405Y-3942580D02*
X12841904Y-3943118D01*
X12831867Y-3935863D02*
X12832534Y-3936168D01*
X12845011Y-7168788D02*
X12844611Y-7169403D01*
X12849569Y-4788595D02*
X12849506Y-4789326D01*
X16856393Y-6310630D02*
X16856865Y-6310068D01*
X16867935Y-5997219D02*
X16867261Y-5996930D01*
X14337605Y-2585678D02*
X14337235Y-2585044D01*
X15692381Y-8515783D02*
X15693108Y-8515685D01*
X16861717Y-4810844D02*
X16861122Y-4810414D01*
X12848141Y-5978973D02*
X12847902Y-5979666D01*
X16848667Y-3605408D02*
X16848621Y-3604676D01*
X16849619Y-6328871D02*
X16849645Y-6328137D01*
X15362012Y-2586169D02*
X15361612Y-2586784D01*
X14333359Y-2571039D02*
X14333350Y-2570304D01*
X15683969Y-2597156D02*
X15683309Y-2596834D01*
X16849889Y-5139854D02*
X16850059Y-5139140D01*
X16848730Y-3606139D02*
X16848667Y-3605408D01*
X12846779Y-5982377D02*
X12846457Y-5983037D01*
X16852671Y-5983044D02*
X16852349Y-5982385D01*
X15668359Y-2579505D02*
X15668138Y-2578806D01*
X12842390Y-7493262D02*
X12842863Y-7493823D01*
X16850765Y-5978282D02*
X16850560Y-5977577D01*
X17450250Y-2200000D02*
X17449287Y-2180397D01*
X12821217Y-7182655D02*
X12820484Y-7182682D01*
X12649750Y-5999494D02*
X12649750Y-5116495D01*
X16849800Y-5973991D02*
X16849701Y-5973264D01*
X15667746Y-2577391D02*
X15667577Y-2576677D01*
X12827015Y-3934194D02*
X12827725Y-3934381D01*
X14356702Y-2599479D02*
X14355988Y-2599310D01*
X15670045Y-8531914D02*
X15670383Y-8531262D01*
X17289268Y-9112146D02*
X17308307Y-9107377D01*
X12840892Y-6308451D02*
X12841405Y-6308976D01*
X14341602Y-8523844D02*
X14342115Y-8523318D01*
X12843321Y-5128000D02*
X12843766Y-5128584D01*
X12825583Y-4815721D02*
X12824862Y-4815855D01*
X12824862Y-6300134D02*
X12825583Y-6300268D01*
X16873819Y-4815856D02*
X16873098Y-4815721D01*
X14009087Y-2599678D02*
X14008365Y-2599813D01*
X16849875Y-3611886D02*
X16849670Y-3611181D01*
X12849210Y-5974705D02*
X12849075Y-5975427D01*
X12840367Y-4808051D02*
X12839830Y-4808550D01*
X14033114Y-2571821D02*
X14033069Y-2572553D01*
X15344031Y-8516121D02*
X15344741Y-8516308D01*
X16854690Y-7496801D02*
X16855090Y-7496186D01*
X14333790Y-2575417D02*
X14333674Y-2574693D01*
X15349536Y-2597202D02*
X15348869Y-2597508D01*
X16852055Y-7502039D02*
X16852328Y-7501357D01*
X14023331Y-2592507D02*
X14022781Y-2592993D01*
X16872512Y-5117223D02*
X16873230Y-5117070D01*
X12835122Y-4812042D02*
X12834488Y-4812411D01*
X12837561Y-5993609D02*
X12836967Y-5994039D01*
X16849039Y-4787141D02*
X16849030Y-4786406D01*
X14336221Y-2583090D02*
X14335915Y-2582423D01*
X16851036Y-4797165D02*
X16850780Y-4796477D01*
X16782327Y-8455998D02*
X16790155Y-8448175D01*
X14363255Y-2600205D02*
X14362520Y-2600196D01*
X12845011Y-3619194D02*
X12844611Y-3619809D01*
X12819749Y-3633098D02*
X12649834Y-3633098D01*
X12829129Y-3631589D02*
X12828429Y-3631810D01*
X12825583Y-3632523D02*
X12824862Y-3632657D01*
X12843321Y-6311198D02*
X12843766Y-6311782D01*
X16861122Y-4810414D02*
X16860538Y-4809970D01*
X16852226Y-4799846D02*
X16851904Y-4799187D01*
X16849511Y-5971071D02*
X16849484Y-5970338D01*
X16852488Y-7164916D02*
X16852199Y-7164241D01*
X12849075Y-7158625D02*
X12848923Y-7159342D01*
X15338969Y-8515303D02*
X15339699Y-8515367D01*
X12848754Y-4793661D02*
X12848567Y-4794370D01*
X16747368Y-8483032D02*
X16756611Y-8476947D01*
X16851610Y-6318841D02*
X16851883Y-6318159D01*
X12822681Y-7483035D02*
X12823410Y-7483116D01*
X12836361Y-5994454D02*
X12835746Y-5994855D01*
X12925904Y-8460903D02*
X12934481Y-8467897D01*
X12823410Y-3933523D02*
X12824137Y-3933621D01*
X12843766Y-4804207D02*
X12843321Y-4804791D01*
X16857669Y-7172875D02*
X16857183Y-7172326D01*
X12373213Y-9100765D02*
X12391693Y-9107377D01*
X16860421Y-7490154D02*
X16860983Y-7489681D01*
X12842390Y-6310064D02*
X12842863Y-6310625D01*
X15666931Y-2572325D02*
X15666886Y-2571593D01*
X14009818Y-8515057D02*
X14010531Y-8515227D01*
X15675609Y-2591269D02*
X15675096Y-2590744D01*
X15681380Y-2595773D02*
X15680756Y-2595388D01*
X12836967Y-3627643D02*
X12836361Y-3628059D01*
X14345440Y-2594322D02*
X14344856Y-2593878D01*
X12835122Y-6303947D02*
X12835746Y-6304332D01*
X16869939Y-3934586D02*
X16870644Y-3934381D01*
X14339684Y-8526066D02*
X14340142Y-8525493D01*
X15685322Y-8517733D02*
X15686003Y-8517460D01*
X14346640Y-2595167D02*
X14346035Y-2594752D01*
X12827015Y-5998597D02*
X12826301Y-5998767D01*
X17050250Y-5116495D02*
X17050250Y-5999494D01*
X14029269Y-8529495D02*
X14029622Y-8530137D01*
X12253593Y-8955007D02*
X12258362Y-8974046D01*
X12841904Y-7172871D02*
X12841405Y-7173409D01*
X16849758Y-4792956D02*
X16849606Y-4792239D01*
X16820742Y-2712430D02*
X16815128Y-2702893D01*
X15666859Y-2570859D02*
X15666850Y-2570125D01*
X16863510Y-6304335D02*
X16864135Y-6303949D01*
X12846119Y-6315499D02*
X12846457Y-6316150D01*
X14031642Y-8534851D02*
X14031863Y-8535551D01*
X16875270Y-4816071D02*
X16874543Y-4815972D01*
X12844611Y-4803007D02*
X12844196Y-4803612D01*
X14340138Y-2589275D02*
X14339679Y-2588702D01*
X15351490Y-2596188D02*
X15350847Y-2596542D01*
X15692366Y-2599702D02*
X15691642Y-2599586D01*
X15358906Y-2590252D02*
X15358406Y-2590790D01*
X12839830Y-7490637D02*
X12840367Y-7491136D01*
X16849313Y-3609758D02*
X16849161Y-3609041D01*
X14334638Y-2578985D02*
X14334433Y-2578280D01*
X15683319Y-8518649D02*
X15683979Y-8518327D01*
X12992325Y-2614077D02*
X12982047Y-2618182D01*
X12355471Y-9092374D02*
X12373213Y-9100765D01*
X15690202Y-2599300D02*
X15689488Y-2599130D01*
X12649750Y-3633099D02*
X12649750Y-2400000D01*
X16864006Y-5995242D02*
X16863382Y-5994857D01*
X17050166Y-5999493D02*
X16879375Y-5999493D01*
X15339699Y-8515367D02*
X15340428Y-8515448D01*
X12838718Y-7489678D02*
X12839280Y-7490151D01*
X12848362Y-7504112D02*
X12848567Y-7504817D01*
X16788073Y-2667942D02*
X16780248Y-2660116D01*
X16876420Y-3933379D02*
X16877153Y-3933334D01*
X16863340Y-7487933D02*
X16863955Y-7487532D01*
X14348524Y-8518446D02*
X14349167Y-8518092D01*
X14017990Y-2596368D02*
X14017347Y-2596722D01*
X16852354Y-5132959D02*
X16852692Y-5132308D01*
X16849645Y-6328137D02*
X16849690Y-6327405D01*
X14003154Y-2600354D02*
X13068190Y-2600480D01*
X17344529Y-2023616D02*
X17326787Y-2015224D01*
X12925904Y-2653176D02*
X12917692Y-2660596D01*
X16855090Y-7496186D02*
X16855505Y-7495580D01*
X16852349Y-5982385D02*
X16852043Y-5981718D01*
X15668598Y-2580199D02*
X15668359Y-2579505D01*
X12841405Y-3623815D02*
X12840892Y-3624340D01*
X12833845Y-4812765D02*
X12833193Y-4813103D01*
X12838718Y-3940085D02*
X12839280Y-3940557D01*
X16866508Y-7486085D02*
X16867168Y-7485763D01*
X16876445Y-5999350D02*
X16875715Y-5999269D01*
X16862140Y-7488778D02*
X16862735Y-7488348D01*
X12828429Y-5998206D02*
X12827725Y-5998410D01*
X16864522Y-3936830D02*
X16865174Y-3936492D01*
X14333674Y-8540079D02*
X14333790Y-8539354D01*
X14351147Y-8517127D02*
X14351822Y-8516838D01*
X14029958Y-2583796D02*
X14029620Y-2584447D01*
X12847374Y-5981036D02*
X12847085Y-5981710D01*
X12824862Y-7483332D02*
X12825583Y-7483466D01*
X15669126Y-2581569D02*
X15668854Y-2580887D01*
X16852692Y-5132308D02*
X16853046Y-5131665D01*
X14031863Y-2579032D02*
X14031641Y-2579732D01*
X14352503Y-8516566D02*
X14353192Y-8516311D01*
X12838718Y-5123283D02*
X12839280Y-5123755D01*
X16850183Y-6323770D02*
X16850334Y-6323052D01*
X14029266Y-2585090D02*
X14028897Y-2585724D01*
X16847069Y-2796341D02*
X16845671Y-2785362D01*
X12430146Y-9115026D02*
X12449750Y-9115989D01*
X12841904Y-3943118D02*
X12842390Y-3943668D01*
X16790155Y-8448175D02*
X16797576Y-8439967D01*
X15690216Y-8516185D02*
X15690934Y-8516033D01*
X15355720Y-2593286D02*
X15355147Y-2593744D01*
X14343728Y-8521820D02*
X14344290Y-8521348D01*
X15351499Y-8519112D02*
X15352133Y-8519482D01*
X16849603Y-5141294D02*
X16849738Y-5140572D01*
X16797576Y-8439967D02*
X16804571Y-8431392D01*
X12829823Y-4814548D02*
X12829129Y-4814787D01*
X15667577Y-8538808D02*
X15667747Y-8538094D01*
X14004721Y-2600217D02*
X14003988Y-2600244D01*
X15691642Y-2599586D02*
X15690920Y-2599452D01*
X12844611Y-5129784D02*
X12845011Y-5130399D01*
X13035112Y-8511081D02*
X13046091Y-8512479D01*
X16851355Y-6319529D02*
X16851610Y-6318841D01*
X16851909Y-3949761D02*
X16852247Y-3949110D01*
X12832534Y-7179821D02*
X12831867Y-7180126D01*
X16855045Y-5128590D02*
X16855489Y-5128005D01*
X14019257Y-8518972D02*
X14019872Y-8519373D01*
X16866816Y-4813732D02*
X16866149Y-4813426D01*
X15687386Y-8516966D02*
X15688086Y-8516745D01*
X12824862Y-7182251D02*
X12824137Y-7182368D01*
X12846119Y-5983688D02*
X12845765Y-5984331D01*
X12835746Y-7487530D02*
X12836361Y-7487930D01*
X16876731Y-4816215D02*
X16876000Y-4816152D01*
X16876865Y-5116577D02*
X16877598Y-5116532D01*
X14349809Y-2597014D02*
X14349158Y-2596676D01*
X16870383Y-5117784D02*
X16871088Y-5117579D01*
X14025411Y-8524154D02*
X14025896Y-8524704D01*
X12827725Y-4815213D02*
X12827015Y-4815400D01*
X16858537Y-3941047D02*
X16859086Y-3940560D01*
X17289268Y-2003843D02*
X17269853Y-2000963D01*
X12822681Y-3933442D02*
X12823410Y-3933523D01*
X14354574Y-2598919D02*
X14353874Y-2598697D01*
X15362015Y-8529131D02*
X15362400Y-8529755D01*
X16874120Y-7483466D02*
X16874842Y-7483332D01*
X12826301Y-3934024D02*
X12827015Y-3934194D01*
X12840367Y-6307938D02*
X12840892Y-6308451D01*
X16872243Y-6300590D02*
X16872957Y-6300420D01*
X16875849Y-6299918D02*
X16876579Y-6299838D01*
X14350469Y-2597336D02*
X14349809Y-2597014D01*
X12836967Y-4810841D02*
X12836361Y-4811257D01*
X16850090Y-7511335D02*
X16850135Y-7510602D01*
X12824137Y-6300017D02*
X12824862Y-6300134D01*
X16867620Y-5118773D02*
X16868302Y-5118500D01*
X12848754Y-5976859D02*
X12848567Y-5977568D01*
X16686562Y-8509073D02*
X16697204Y-8506038D01*
X16862895Y-6304735D02*
X16863510Y-6304335D01*
X16879086Y-7182682D02*
X16878353Y-7182655D01*
X16850450Y-5137725D02*
X16850671Y-5137025D01*
X13002797Y-8503582D02*
X13013437Y-8506626D01*
X16852473Y-3617942D02*
X16852119Y-3617299D01*
X16863955Y-7487532D02*
X16864580Y-7487147D01*
X15669721Y-2582910D02*
X15669415Y-2582243D01*
X16673721Y-2604471D02*
X16662827Y-2602519D01*
X12823410Y-4816071D02*
X12822681Y-4816152D01*
X15366650Y-8545121D02*
X15366650Y-8715905D01*
X15690920Y-2599452D02*
X15690202Y-2599300D01*
X15366210Y-2575285D02*
X15366075Y-2576007D01*
X17441638Y-2141943D02*
X17435026Y-2123463D01*
X16853287Y-4801774D02*
X16852918Y-4801140D01*
X17450250Y-8915989D02*
X17450250Y-2200000D01*
X12449750Y-9115989D02*
X17250250Y-9115989D01*
X12847902Y-7502718D02*
X12848141Y-7503412D01*
X17446407Y-2160982D02*
X17441638Y-2141943D01*
X16858409Y-3625356D02*
X16857871Y-3624856D01*
X12830511Y-6301697D02*
X12831192Y-6301969D01*
X14346043Y-8520015D02*
X14346649Y-8519600D01*
X12856723Y-8349912D02*
X12859768Y-8360552D01*
X14333350Y-2570304D02*
X14333350Y-2400134D01*
X16858761Y-5991252D02*
X16858236Y-5990740D01*
X14031148Y-8533470D02*
X14031404Y-8534158D01*
X15672739Y-8527544D02*
X15673184Y-8526960D01*
X16865489Y-4813105D02*
X16864838Y-4812767D01*
X12821217Y-3633062D02*
X12820484Y-3633089D01*
X12831867Y-4813731D02*
X12831192Y-4814020D01*
X12845396Y-6314222D02*
X12845765Y-6314856D01*
X15363780Y-2582957D02*
X15363458Y-2583616D01*
X14356716Y-8515291D02*
X14357434Y-8515139D01*
X12821217Y-5999457D02*
X12820484Y-5999484D01*
X16849308Y-5143475D02*
X16849389Y-5142746D01*
X14334638Y-8535785D02*
X14334860Y-8535085D01*
X16871142Y-7181404D02*
X16870443Y-7181183D01*
X14359608Y-8514791D02*
X14360338Y-8514710D01*
X12844196Y-5129179D02*
X12844611Y-5129784D01*
X14342634Y-2591962D02*
X14342109Y-2591449D01*
X16855362Y-4804796D02*
X16854918Y-4804212D01*
X15673184Y-8526960D02*
X15673642Y-8526387D01*
X16853454Y-7166893D02*
X16853116Y-7166242D01*
X16849256Y-4790066D02*
X16849175Y-4789337D01*
X15366641Y-2570908D02*
X15366614Y-2571641D01*
X12820484Y-3633089D02*
X12819749Y-3633098D01*
X12835746Y-5994855D02*
X12835122Y-5995240D01*
X12849326Y-5142008D02*
X12849425Y-5142736D01*
X15670381Y-2584221D02*
X15670043Y-2583570D01*
X12844196Y-6312377D02*
X12844611Y-6312982D01*
X12848141Y-6320214D02*
X12848362Y-6320914D01*
X12849569Y-7510592D02*
X12849614Y-7511324D01*
X12867453Y-2732776D02*
X12863347Y-2743054D01*
X15366506Y-2573104D02*
X15366425Y-2573834D01*
X12842390Y-3622728D02*
X12841904Y-3623277D01*
X12827015Y-7483787D02*
X12827725Y-7483974D01*
X16857919Y-5125257D02*
X16858444Y-5124744D01*
X12848754Y-7160056D02*
X12848567Y-7160766D01*
X16697204Y-8506038D02*
X16707678Y-8502467D01*
D11*
D10*
X12804750Y-3648131D02*
X12834750Y-3678131D01*
X12834750Y-3648131D02*
X12804750Y-3678131D01*
X12804750Y-3708164D02*
X12834750Y-3738164D01*
X12834750Y-3708164D02*
X12804750Y-3738164D01*
X12804750Y-3768198D02*
X12834750Y-3798198D01*
X12834750Y-3768198D02*
X12804750Y-3798198D01*
X12804750Y-3828231D02*
X12834750Y-3858231D01*
X12834750Y-3828231D02*
X12804750Y-3858231D01*
X12804750Y-3888264D02*
X12834750Y-3918264D01*
X12834750Y-3888264D02*
X12804750Y-3918264D01*
X12804750Y-4831329D02*
X12834750Y-4861329D01*
X12834750Y-4831329D02*
X12804750Y-4861329D01*
X12804750Y-4891362D02*
X12834750Y-4921362D01*
X12834750Y-4891362D02*
X12804750Y-4921362D01*
X12804750Y-4951396D02*
X12834750Y-4981396D01*
X12834750Y-4951396D02*
X12804750Y-4981396D01*
X12804750Y-5011429D02*
X12834750Y-5041429D01*
X12834750Y-5011429D02*
X12804750Y-5041429D01*
X12804750Y-5071462D02*
X12834750Y-5101462D01*
X12834750Y-5071462D02*
X12804750Y-5101462D01*
X12804750Y-6014527D02*
X12834750Y-6044527D01*
X12834750Y-6014527D02*
X12804750Y-6044527D01*
X12804750Y-6074560D02*
X12834750Y-6104560D01*
X12834750Y-6074560D02*
X12804750Y-6104560D01*
X12804750Y-6134593D02*
X12834750Y-6164593D01*
X12834750Y-6134593D02*
X12804750Y-6164593D01*
X12804750Y-6194627D02*
X12834750Y-6224627D01*
X12834750Y-6194627D02*
X12804750Y-6224627D01*
X12804750Y-6254660D02*
X12834750Y-6284660D01*
X12834750Y-6254660D02*
X12804750Y-6284660D01*
X12804750Y-7197725D02*
X12834750Y-7227725D01*
X12834750Y-7197725D02*
X12804750Y-7227725D01*
X12804750Y-7257758D02*
X12834750Y-7287758D01*
X12834750Y-7257758D02*
X12804750Y-7287758D01*
X12804750Y-7317791D02*
X12834750Y-7347791D01*
X12834750Y-7317791D02*
X12804750Y-7347791D01*
X12804750Y-7377825D02*
X12834750Y-7407825D01*
X12834750Y-7377825D02*
X12804750Y-7407825D01*
X12804750Y-7437858D02*
X12834750Y-7467858D01*
X12834750Y-7437858D02*
X12804750Y-7467858D01*
X12834750Y-1985000D02*
X12864750Y-2015000D01*
X12864750Y-1985000D02*
X12834750Y-2015000D01*
X12834750Y-2051667D02*
X12864750Y-2081667D01*
X12864750Y-2051667D02*
X12834750Y-2081667D01*
X12834750Y-2118333D02*
X12864750Y-2148333D01*
X12864750Y-2118333D02*
X12834750Y-2148333D01*
X12834750Y-2185000D02*
X12864750Y-2215000D01*
X12864750Y-2185000D02*
X12834750Y-2215000D01*
X12834750Y-2251667D02*
X12864750Y-2281667D01*
X12864750Y-2251667D02*
X12834750Y-2281667D01*
X12834750Y-2318333D02*
X12864750Y-2348333D01*
X12864750Y-2318333D02*
X12834750Y-2348333D01*
X12834750Y-2385000D02*
X12864750Y-2415000D01*
X12864750Y-2385000D02*
X12834750Y-2415000D01*
X12834750Y-8700989D02*
X12864750Y-8730989D01*
X12864750Y-8700989D02*
X12834750Y-8730989D01*
X12834750Y-8767656D02*
X12864750Y-8797656D01*
X12864750Y-8767656D02*
X12834750Y-8797656D01*
X12834750Y-8834323D02*
X12864750Y-8864323D01*
X12864750Y-8834323D02*
X12834750Y-8864323D01*
X12834750Y-8900989D02*
X12864750Y-8930989D01*
X12864750Y-8900989D02*
X12834750Y-8930989D01*
X12834750Y-8967656D02*
X12864750Y-8997656D01*
X12864750Y-8967656D02*
X12834750Y-8997656D01*
X12834750Y-9034323D02*
X12864750Y-9064323D01*
X12864750Y-9034323D02*
X12834750Y-9064323D01*
X12834750Y-9100989D02*
X12864750Y-9130989D01*
X12864750Y-9100989D02*
X12834750Y-9130989D01*
X14048183Y-2555346D02*
X14078183Y-2585346D01*
X14078183Y-2555346D02*
X14048183Y-2585346D01*
X14048183Y-8529267D02*
X14078183Y-8559267D01*
X14078183Y-8529267D02*
X14048183Y-8559267D01*
X14108217Y-2555338D02*
X14138217Y-2585338D01*
X14138217Y-2555338D02*
X14108217Y-2585338D01*
X14108217Y-8529307D02*
X14138217Y-8559307D01*
X14138217Y-8529307D02*
X14108217Y-8559307D01*
X14168250Y-2555329D02*
X14198250Y-2585329D01*
X14198250Y-2555329D02*
X14168250Y-2585329D01*
X14168250Y-8529347D02*
X14198250Y-8559347D01*
X14198250Y-8529347D02*
X14168250Y-8559347D01*
X14228283Y-2555321D02*
X14258283Y-2585321D01*
X14258283Y-2555321D02*
X14228283Y-2585321D01*
X14228283Y-8529388D02*
X14258283Y-8559388D01*
X14258283Y-8529388D02*
X14228283Y-8559388D01*
X14288317Y-2555313D02*
X14318317Y-2585313D01*
X14318317Y-2555313D02*
X14288317Y-2585313D01*
X14288317Y-8529428D02*
X14318317Y-8559428D01*
X14318317Y-8529428D02*
X14288317Y-8559428D01*
X15381683Y-2555166D02*
X15411683Y-2585166D01*
X15411683Y-2555166D02*
X15381683Y-2585166D01*
X15381683Y-8530161D02*
X15411683Y-8560161D01*
X15411683Y-8530161D02*
X15381683Y-8560161D01*
X15441717Y-2555158D02*
X15471717Y-2585158D01*
X15471717Y-2555158D02*
X15441717Y-2585158D01*
X15441717Y-8530201D02*
X15471717Y-8560201D01*
X15471717Y-8530201D02*
X15441717Y-8560201D01*
X15501750Y-2555150D02*
X15531750Y-2585150D01*
X15531750Y-2555150D02*
X15501750Y-2585150D01*
X15501750Y-8530242D02*
X15531750Y-8560242D01*
X15531750Y-8530242D02*
X15501750Y-8560242D01*
X15561783Y-2555142D02*
X15591783Y-2585142D01*
X15591783Y-2555142D02*
X15561783Y-2585142D01*
X15561783Y-8530282D02*
X15591783Y-8560282D01*
X15591783Y-8530282D02*
X15561783Y-8560282D01*
X15621817Y-2555134D02*
X15651817Y-2585134D01*
X15651817Y-2555134D02*
X15621817Y-2585134D01*
X15621817Y-8530322D02*
X15651817Y-8560322D01*
X15651817Y-8530322D02*
X15621817Y-8560322D01*
X16835250Y-1985000D02*
X16865250Y-2015000D01*
X16865250Y-1985000D02*
X16835250Y-2015000D01*
X16835250Y-2051667D02*
X16865250Y-2081667D01*
X16865250Y-2051667D02*
X16835250Y-2081667D01*
X16835250Y-2118333D02*
X16865250Y-2148333D01*
X16865250Y-2118333D02*
X16835250Y-2148333D01*
X16835250Y-2185000D02*
X16865250Y-2215000D01*
X16865250Y-2185000D02*
X16835250Y-2215000D01*
X16835250Y-2251667D02*
X16865250Y-2281667D01*
X16865250Y-2251667D02*
X16835250Y-2281667D01*
X16835250Y-2318333D02*
X16865250Y-2348333D01*
X16865250Y-2318333D02*
X16835250Y-2348333D01*
X16835250Y-2385000D02*
X16865250Y-2415000D01*
X16865250Y-2385000D02*
X16835250Y-2415000D01*
X16835250Y-8700989D02*
X16865250Y-8730989D01*
X16865250Y-8700989D02*
X16835250Y-8730989D01*
X16835250Y-8767656D02*
X16865250Y-8797656D01*
X16865250Y-8767656D02*
X16835250Y-8797656D01*
X16835250Y-8834323D02*
X16865250Y-8864323D01*
X16865250Y-8834323D02*
X16835250Y-8864323D01*
X16835250Y-8900989D02*
X16865250Y-8930989D01*
X16865250Y-8900989D02*
X16835250Y-8930989D01*
X16835250Y-8967656D02*
X16865250Y-8997656D01*
X16865250Y-8967656D02*
X16835250Y-8997656D01*
X16835250Y-9034323D02*
X16865250Y-9064323D01*
X16865250Y-9034323D02*
X16835250Y-9064323D01*
X16835250Y-9100989D02*
X16865250Y-9130989D01*
X16865250Y-9100989D02*
X16835250Y-9130989D01*
X16863507Y-3648131D02*
X16893507Y-3678131D01*
X16893507Y-3648131D02*
X16863507Y-3678131D01*
X16863530Y-3708164D02*
X16893530Y-3738164D01*
X16893530Y-3708164D02*
X16863530Y-3738164D01*
X16863552Y-3768198D02*
X16893552Y-3798198D01*
X16893552Y-3768198D02*
X16863552Y-3798198D01*
X16863575Y-3828231D02*
X16893575Y-3858231D01*
X16893575Y-3828231D02*
X16863575Y-3858231D01*
X16863598Y-3888264D02*
X16893598Y-3918264D01*
X16893598Y-3888264D02*
X16863598Y-3918264D01*
X16863952Y-4831329D02*
X16893952Y-4861329D01*
X16893952Y-4831329D02*
X16863952Y-4861329D01*
X16863975Y-4891362D02*
X16893975Y-4921362D01*
X16893975Y-4891362D02*
X16863975Y-4921362D01*
X16863997Y-4951396D02*
X16893997Y-4981396D01*
X16893997Y-4951396D02*
X16863997Y-4981396D01*
X16864020Y-5011429D02*
X16894020Y-5041429D01*
X16894020Y-5011429D02*
X16864020Y-5041429D01*
X16864042Y-5071462D02*
X16894042Y-5101462D01*
X16894042Y-5071462D02*
X16864042Y-5101462D01*
X16864397Y-6014527D02*
X16894397Y-6044527D01*
X16894397Y-6014527D02*
X16864397Y-6044527D01*
X16864420Y-6074560D02*
X16894420Y-6104560D01*
X16894420Y-6074560D02*
X16864420Y-6104560D01*
X16864442Y-6134593D02*
X16894442Y-6164593D01*
X16894442Y-6134593D02*
X16864442Y-6164593D01*
X16864465Y-6194627D02*
X16894465Y-6224627D01*
X16894465Y-6194627D02*
X16864465Y-6224627D01*
X16864487Y-6254660D02*
X16894487Y-6284660D01*
X16894487Y-6254660D02*
X16864487Y-6284660D01*
X16864842Y-7197725D02*
X16894842Y-7227725D01*
X16894842Y-7197725D02*
X16864842Y-7227725D01*
X16864865Y-7257758D02*
X16894865Y-7287758D01*
X16894865Y-7257758D02*
X16864865Y-7287758D01*
X16864887Y-7317791D02*
X16894887Y-7347791D01*
X16894887Y-7317791D02*
X16864887Y-7347791D01*
X16864910Y-7377825D02*
X16894910Y-7407825D01*
X16894910Y-7377825D02*
X16864910Y-7407825D01*
X16864932Y-7437858D02*
X16894932Y-7467858D01*
X16894932Y-7437858D02*
X16864932Y-7467858D01*
X14589690Y-3226739D02*
G75*
G02*
X14524690Y-3226739I-32500J0D01*
G01*
X14524690Y-3226739D02*
G75*
G02*
X14589690Y-3226739I32500J0D01*
G01*
X15167690Y-3226739D02*
G75*
G02*
X15102690Y-3226739I-32500J0D01*
G01*
X15102690Y-3226739D02*
G75*
G02*
X15167690Y-3226739I32500J0D01*
G01*
D12*
X13068190Y-2708920D02*
X13068190Y-2928919D01*
X12958190Y-2818919D02*
X13178190Y-2818919D01*
X13068190Y-8185159D02*
X13068190Y-8405160D01*
X12958190Y-8295159D02*
X13178190Y-8295159D01*
X16629270Y-2708920D02*
X16629270Y-2928919D01*
X16519270Y-2818919D02*
X16739270Y-2818919D01*
X16629270Y-8185159D02*
X16629270Y-8405160D01*
X16519270Y-8295159D02*
X16739270Y-8295159D01*
D11*
X12505527Y-9432473D02*
X12505527Y-9232473D01*
X12505527Y-9232473D02*
X12553146Y-9232473D01*
X12553146Y-9232473D02*
X12581717Y-9241997D01*
X12581717Y-9241997D02*
X12600765Y-9261045D01*
X12600765Y-9261045D02*
X12610289Y-9280092D01*
X12610289Y-9280092D02*
X12619812Y-9318187D01*
X12619812Y-9318187D02*
X12619812Y-9346759D01*
X12619812Y-9346759D02*
X12610289Y-9384854D01*
X12610289Y-9384854D02*
X12600765Y-9403902D01*
X12600765Y-9403902D02*
X12581717Y-9422949D01*
X12581717Y-9422949D02*
X12553146Y-9432473D01*
X12553146Y-9432473D02*
X12505527Y-9432473D01*
X12705527Y-9432473D02*
X12705527Y-9299140D01*
X12705527Y-9337235D02*
X12715051Y-9318187D01*
X12715051Y-9318187D02*
X12724574Y-9308664D01*
X12724574Y-9308664D02*
X12743622Y-9299140D01*
X12743622Y-9299140D02*
X12762670Y-9299140D01*
X12829336Y-9432473D02*
X12829336Y-9299140D01*
X12829336Y-9232473D02*
X12819812Y-9241997D01*
X12819812Y-9241997D02*
X12829336Y-9251521D01*
X12829336Y-9251521D02*
X12838860Y-9241997D01*
X12838860Y-9241997D02*
X12829336Y-9232473D01*
X12829336Y-9232473D02*
X12829336Y-9251521D01*
X12953146Y-9432473D02*
X12934098Y-9422949D01*
X12934098Y-9422949D02*
X12924574Y-9403902D01*
X12924574Y-9403902D02*
X12924574Y-9232473D01*
X13057908Y-9432473D02*
X13038860Y-9422949D01*
X13038860Y-9422949D02*
X13029336Y-9403902D01*
X13029336Y-9403902D02*
X13029336Y-9232473D01*
X13286479Y-9432473D02*
X13286479Y-9232473D01*
X13286479Y-9232473D02*
X13353146Y-9375330D01*
X13353146Y-9375330D02*
X13419812Y-9232473D01*
X13419812Y-9232473D02*
X13419812Y-9432473D01*
X13600765Y-9432473D02*
X13600765Y-9327711D01*
X13600765Y-9327711D02*
X13591241Y-9308664D01*
X13591241Y-9308664D02*
X13572193Y-9299140D01*
X13572193Y-9299140D02*
X13534098Y-9299140D01*
X13534098Y-9299140D02*
X13515051Y-9308664D01*
X13600765Y-9422949D02*
X13581717Y-9432473D01*
X13581717Y-9432473D02*
X13534098Y-9432473D01*
X13534098Y-9432473D02*
X13515051Y-9422949D01*
X13515051Y-9422949D02*
X13505527Y-9403902D01*
X13505527Y-9403902D02*
X13505527Y-9384854D01*
X13505527Y-9384854D02*
X13515051Y-9365806D01*
X13515051Y-9365806D02*
X13534098Y-9356283D01*
X13534098Y-9356283D02*
X13581717Y-9356283D01*
X13581717Y-9356283D02*
X13600765Y-9346759D01*
X13696003Y-9299140D02*
X13696003Y-9499140D01*
X13696003Y-9308664D02*
X13715051Y-9299140D01*
X13715051Y-9299140D02*
X13753146Y-9299140D01*
X13753146Y-9299140D02*
X13772193Y-9308664D01*
X13772193Y-9308664D02*
X13781717Y-9318187D01*
X13781717Y-9318187D02*
X13791241Y-9337235D01*
X13791241Y-9337235D02*
X13791241Y-9394378D01*
X13791241Y-9394378D02*
X13781717Y-9413425D01*
X13781717Y-9413425D02*
X13772193Y-9422949D01*
X13772193Y-9422949D02*
X13753146Y-9432473D01*
X13753146Y-9432473D02*
X13715051Y-9432473D01*
X13715051Y-9432473D02*
X13696003Y-9422949D01*
X13876955Y-9413425D02*
X13886479Y-9422949D01*
X13886479Y-9422949D02*
X13876955Y-9432473D01*
X13876955Y-9432473D02*
X13867432Y-9422949D01*
X13867432Y-9422949D02*
X13876955Y-9413425D01*
X13876955Y-9413425D02*
X13876955Y-9432473D01*
X13876955Y-9308664D02*
X13886479Y-9318187D01*
X13886479Y-9318187D02*
X13876955Y-9327711D01*
X13876955Y-9327711D02*
X13867432Y-9318187D01*
X13867432Y-9318187D02*
X13876955Y-9308664D01*
X13876955Y-9308664D02*
X13876955Y-9327711D01*
D10*
X12214750Y-9745989D02*
X12244750Y-9775989D01*
X12244750Y-9745989D02*
X12214750Y-9775989D01*
D11*
X12543622Y-9652473D02*
X12562670Y-9652473D01*
X12562670Y-9652473D02*
X12581717Y-9661997D01*
X12581717Y-9661997D02*
X12591241Y-9671521D01*
X12591241Y-9671521D02*
X12600765Y-9690568D01*
X12600765Y-9690568D02*
X12610289Y-9728664D01*
X12610289Y-9728664D02*
X12610289Y-9776283D01*
X12610289Y-9776283D02*
X12600765Y-9814378D01*
X12600765Y-9814378D02*
X12591241Y-9833425D01*
X12591241Y-9833425D02*
X12581717Y-9842949D01*
X12581717Y-9842949D02*
X12562670Y-9852473D01*
X12562670Y-9852473D02*
X12543622Y-9852473D01*
X12543622Y-9852473D02*
X12524574Y-9842949D01*
X12524574Y-9842949D02*
X12515051Y-9833425D01*
X12515051Y-9833425D02*
X12505527Y-9814378D01*
X12505527Y-9814378D02*
X12496003Y-9776283D01*
X12496003Y-9776283D02*
X12496003Y-9728664D01*
X12496003Y-9728664D02*
X12505527Y-9690568D01*
X12505527Y-9690568D02*
X12515051Y-9671521D01*
X12515051Y-9671521D02*
X12524574Y-9661997D01*
X12524574Y-9661997D02*
X12543622Y-9652473D01*
X12696003Y-9833425D02*
X12705527Y-9842949D01*
X12705527Y-9842949D02*
X12696003Y-9852473D01*
X12696003Y-9852473D02*
X12686479Y-9842949D01*
X12686479Y-9842949D02*
X12696003Y-9833425D01*
X12696003Y-9833425D02*
X12696003Y-9852473D01*
X12772193Y-9652473D02*
X12896003Y-9652473D01*
X12896003Y-9652473D02*
X12829336Y-9728664D01*
X12829336Y-9728664D02*
X12857908Y-9728664D01*
X12857908Y-9728664D02*
X12876955Y-9738187D01*
X12876955Y-9738187D02*
X12886479Y-9747711D01*
X12886479Y-9747711D02*
X12896003Y-9766759D01*
X12896003Y-9766759D02*
X12896003Y-9814378D01*
X12896003Y-9814378D02*
X12886479Y-9833425D01*
X12886479Y-9833425D02*
X12876955Y-9842949D01*
X12876955Y-9842949D02*
X12857908Y-9852473D01*
X12857908Y-9852473D02*
X12800765Y-9852473D01*
X12800765Y-9852473D02*
X12781717Y-9842949D01*
X12781717Y-9842949D02*
X12772193Y-9833425D01*
X13019812Y-9652473D02*
X13038860Y-9652473D01*
X13038860Y-9652473D02*
X13057908Y-9661997D01*
X13057908Y-9661997D02*
X13067432Y-9671521D01*
X13067432Y-9671521D02*
X13076955Y-9690568D01*
X13076955Y-9690568D02*
X13086479Y-9728664D01*
X13086479Y-9728664D02*
X13086479Y-9776283D01*
X13086479Y-9776283D02*
X13076955Y-9814378D01*
X13076955Y-9814378D02*
X13067432Y-9833425D01*
X13067432Y-9833425D02*
X13057908Y-9842949D01*
X13057908Y-9842949D02*
X13038860Y-9852473D01*
X13038860Y-9852473D02*
X13019812Y-9852473D01*
X13019812Y-9852473D02*
X13000765Y-9842949D01*
X13000765Y-9842949D02*
X12991241Y-9833425D01*
X12991241Y-9833425D02*
X12981717Y-9814378D01*
X12981717Y-9814378D02*
X12972193Y-9776283D01*
X12972193Y-9776283D02*
X12972193Y-9728664D01*
X12972193Y-9728664D02*
X12981717Y-9690568D01*
X12981717Y-9690568D02*
X12991241Y-9671521D01*
X12991241Y-9671521D02*
X13000765Y-9661997D01*
X13000765Y-9661997D02*
X13019812Y-9652473D01*
X13210289Y-9652473D02*
X13229336Y-9652473D01*
X13229336Y-9652473D02*
X13248384Y-9661997D01*
X13248384Y-9661997D02*
X13257908Y-9671521D01*
X13257908Y-9671521D02*
X13267432Y-9690568D01*
X13267432Y-9690568D02*
X13276955Y-9728664D01*
X13276955Y-9728664D02*
X13276955Y-9776283D01*
X13276955Y-9776283D02*
X13267432Y-9814378D01*
X13267432Y-9814378D02*
X13257908Y-9833425D01*
X13257908Y-9833425D02*
X13248384Y-9842949D01*
X13248384Y-9842949D02*
X13229336Y-9852473D01*
X13229336Y-9852473D02*
X13210289Y-9852473D01*
X13210289Y-9852473D02*
X13191241Y-9842949D01*
X13191241Y-9842949D02*
X13181717Y-9833425D01*
X13181717Y-9833425D02*
X13172193Y-9814378D01*
X13172193Y-9814378D02*
X13162670Y-9776283D01*
X13162670Y-9776283D02*
X13162670Y-9728664D01*
X13162670Y-9728664D02*
X13172193Y-9690568D01*
X13172193Y-9690568D02*
X13181717Y-9671521D01*
X13181717Y-9671521D02*
X13191241Y-9661997D01*
X13191241Y-9661997D02*
X13210289Y-9652473D01*
X13362670Y-9852473D02*
X13362670Y-9719140D01*
X13362670Y-9738187D02*
X13372193Y-9728664D01*
X13372193Y-9728664D02*
X13391241Y-9719140D01*
X13391241Y-9719140D02*
X13419813Y-9719140D01*
X13419813Y-9719140D02*
X13438860Y-9728664D01*
X13438860Y-9728664D02*
X13448384Y-9747711D01*
X13448384Y-9747711D02*
X13448384Y-9852473D01*
X13448384Y-9747711D02*
X13457908Y-9728664D01*
X13457908Y-9728664D02*
X13476955Y-9719140D01*
X13476955Y-9719140D02*
X13505527Y-9719140D01*
X13505527Y-9719140D02*
X13524574Y-9728664D01*
X13524574Y-9728664D02*
X13534098Y-9747711D01*
X13534098Y-9747711D02*
X13534098Y-9852473D01*
X13629336Y-9852473D02*
X13629336Y-9719140D01*
X13629336Y-9738187D02*
X13638860Y-9728664D01*
X13638860Y-9728664D02*
X13657908Y-9719140D01*
X13657908Y-9719140D02*
X13686479Y-9719140D01*
X13686479Y-9719140D02*
X13705527Y-9728664D01*
X13705527Y-9728664D02*
X13715051Y-9747711D01*
X13715051Y-9747711D02*
X13715051Y-9852473D01*
X13715051Y-9747711D02*
X13724574Y-9728664D01*
X13724574Y-9728664D02*
X13743622Y-9719140D01*
X13743622Y-9719140D02*
X13772193Y-9719140D01*
X13772193Y-9719140D02*
X13791241Y-9728664D01*
X13791241Y-9728664D02*
X13800765Y-9747711D01*
X13800765Y-9747711D02*
X13800765Y-9852473D01*
X14191241Y-9642949D02*
X14019813Y-9900092D01*
X14448384Y-9652473D02*
X14467432Y-9652473D01*
X14467432Y-9652473D02*
X14486479Y-9661997D01*
X14486479Y-9661997D02*
X14496003Y-9671521D01*
X14496003Y-9671521D02*
X14505527Y-9690568D01*
X14505527Y-9690568D02*
X14515051Y-9728664D01*
X14515051Y-9728664D02*
X14515051Y-9776283D01*
X14515051Y-9776283D02*
X14505527Y-9814378D01*
X14505527Y-9814378D02*
X14496003Y-9833425D01*
X14496003Y-9833425D02*
X14486479Y-9842949D01*
X14486479Y-9842949D02*
X14467432Y-9852473D01*
X14467432Y-9852473D02*
X14448384Y-9852473D01*
X14448384Y-9852473D02*
X14429336Y-9842949D01*
X14429336Y-9842949D02*
X14419813Y-9833425D01*
X14419813Y-9833425D02*
X14410289Y-9814378D01*
X14410289Y-9814378D02*
X14400765Y-9776283D01*
X14400765Y-9776283D02*
X14400765Y-9728664D01*
X14400765Y-9728664D02*
X14410289Y-9690568D01*
X14410289Y-9690568D02*
X14419813Y-9671521D01*
X14419813Y-9671521D02*
X14429336Y-9661997D01*
X14429336Y-9661997D02*
X14448384Y-9652473D01*
X14600765Y-9833425D02*
X14610289Y-9842949D01*
X14610289Y-9842949D02*
X14600765Y-9852473D01*
X14600765Y-9852473D02*
X14591241Y-9842949D01*
X14591241Y-9842949D02*
X14600765Y-9833425D01*
X14600765Y-9833425D02*
X14600765Y-9852473D01*
X14734098Y-9652473D02*
X14753146Y-9652473D01*
X14753146Y-9652473D02*
X14772194Y-9661997D01*
X14772194Y-9661997D02*
X14781717Y-9671521D01*
X14781717Y-9671521D02*
X14791241Y-9690568D01*
X14791241Y-9690568D02*
X14800765Y-9728664D01*
X14800765Y-9728664D02*
X14800765Y-9776283D01*
X14800765Y-9776283D02*
X14791241Y-9814378D01*
X14791241Y-9814378D02*
X14781717Y-9833425D01*
X14781717Y-9833425D02*
X14772194Y-9842949D01*
X14772194Y-9842949D02*
X14753146Y-9852473D01*
X14753146Y-9852473D02*
X14734098Y-9852473D01*
X14734098Y-9852473D02*
X14715051Y-9842949D01*
X14715051Y-9842949D02*
X14705527Y-9833425D01*
X14705527Y-9833425D02*
X14696003Y-9814378D01*
X14696003Y-9814378D02*
X14686479Y-9776283D01*
X14686479Y-9776283D02*
X14686479Y-9728664D01*
X14686479Y-9728664D02*
X14696003Y-9690568D01*
X14696003Y-9690568D02*
X14705527Y-9671521D01*
X14705527Y-9671521D02*
X14715051Y-9661997D01*
X14715051Y-9661997D02*
X14734098Y-9652473D01*
X14991241Y-9852473D02*
X14876956Y-9852473D01*
X14934098Y-9852473D02*
X14934098Y-9652473D01*
X14934098Y-9652473D02*
X14915051Y-9681045D01*
X14915051Y-9681045D02*
X14896003Y-9700092D01*
X14896003Y-9700092D02*
X14876956Y-9709616D01*
X15181717Y-9852473D02*
X15067432Y-9852473D01*
X15124575Y-9852473D02*
X15124575Y-9652473D01*
X15124575Y-9652473D02*
X15105527Y-9681045D01*
X15105527Y-9681045D02*
X15086479Y-9700092D01*
X15086479Y-9700092D02*
X15067432Y-9709616D01*
X15296003Y-9738187D02*
X15276956Y-9728664D01*
X15276956Y-9728664D02*
X15267432Y-9719140D01*
X15267432Y-9719140D02*
X15257908Y-9700092D01*
X15257908Y-9700092D02*
X15257908Y-9690568D01*
X15257908Y-9690568D02*
X15267432Y-9671521D01*
X15267432Y-9671521D02*
X15276956Y-9661997D01*
X15276956Y-9661997D02*
X15296003Y-9652473D01*
X15296003Y-9652473D02*
X15334098Y-9652473D01*
X15334098Y-9652473D02*
X15353146Y-9661997D01*
X15353146Y-9661997D02*
X15362670Y-9671521D01*
X15362670Y-9671521D02*
X15372194Y-9690568D01*
X15372194Y-9690568D02*
X15372194Y-9700092D01*
X15372194Y-9700092D02*
X15362670Y-9719140D01*
X15362670Y-9719140D02*
X15353146Y-9728664D01*
X15353146Y-9728664D02*
X15334098Y-9738187D01*
X15334098Y-9738187D02*
X15296003Y-9738187D01*
X15296003Y-9738187D02*
X15276956Y-9747711D01*
X15276956Y-9747711D02*
X15267432Y-9757235D01*
X15267432Y-9757235D02*
X15257908Y-9776283D01*
X15257908Y-9776283D02*
X15257908Y-9814378D01*
X15257908Y-9814378D02*
X15267432Y-9833425D01*
X15267432Y-9833425D02*
X15276956Y-9842949D01*
X15276956Y-9842949D02*
X15296003Y-9852473D01*
X15296003Y-9852473D02*
X15334098Y-9852473D01*
X15334098Y-9852473D02*
X15353146Y-9842949D01*
X15353146Y-9842949D02*
X15362670Y-9833425D01*
X15362670Y-9833425D02*
X15372194Y-9814378D01*
X15372194Y-9814378D02*
X15372194Y-9776283D01*
X15372194Y-9776283D02*
X15362670Y-9757235D01*
X15362670Y-9757235D02*
X15353146Y-9747711D01*
X15353146Y-9747711D02*
X15334098Y-9738187D01*
X15448384Y-9652473D02*
X15448384Y-9690568D01*
X15524575Y-9652473D02*
X15524575Y-9690568D01*
X15819813Y-9928664D02*
X15810289Y-9919140D01*
X15810289Y-9919140D02*
X15791241Y-9890568D01*
X15791241Y-9890568D02*
X15781718Y-9871521D01*
X15781718Y-9871521D02*
X15772194Y-9842949D01*
X15772194Y-9842949D02*
X15762670Y-9795330D01*
X15762670Y-9795330D02*
X15762670Y-9757235D01*
X15762670Y-9757235D02*
X15772194Y-9709616D01*
X15772194Y-9709616D02*
X15781718Y-9681045D01*
X15781718Y-9681045D02*
X15791241Y-9661997D01*
X15791241Y-9661997D02*
X15810289Y-9633425D01*
X15810289Y-9633425D02*
X15819813Y-9623902D01*
X15924575Y-9738187D02*
X15905527Y-9728664D01*
X15905527Y-9728664D02*
X15896003Y-9719140D01*
X15896003Y-9719140D02*
X15886479Y-9700092D01*
X15886479Y-9700092D02*
X15886479Y-9690568D01*
X15886479Y-9690568D02*
X15896003Y-9671521D01*
X15896003Y-9671521D02*
X15905527Y-9661997D01*
X15905527Y-9661997D02*
X15924575Y-9652473D01*
X15924575Y-9652473D02*
X15962670Y-9652473D01*
X15962670Y-9652473D02*
X15981718Y-9661997D01*
X15981718Y-9661997D02*
X15991241Y-9671521D01*
X15991241Y-9671521D02*
X16000765Y-9690568D01*
X16000765Y-9690568D02*
X16000765Y-9700092D01*
X16000765Y-9700092D02*
X15991241Y-9719140D01*
X15991241Y-9719140D02*
X15981718Y-9728664D01*
X15981718Y-9728664D02*
X15962670Y-9738187D01*
X15962670Y-9738187D02*
X15924575Y-9738187D01*
X15924575Y-9738187D02*
X15905527Y-9747711D01*
X15905527Y-9747711D02*
X15896003Y-9757235D01*
X15896003Y-9757235D02*
X15886479Y-9776283D01*
X15886479Y-9776283D02*
X15886479Y-9814378D01*
X15886479Y-9814378D02*
X15896003Y-9833425D01*
X15896003Y-9833425D02*
X15905527Y-9842949D01*
X15905527Y-9842949D02*
X15924575Y-9852473D01*
X15924575Y-9852473D02*
X15962670Y-9852473D01*
X15962670Y-9852473D02*
X15981718Y-9842949D01*
X15981718Y-9842949D02*
X15991241Y-9833425D01*
X15991241Y-9833425D02*
X16000765Y-9814378D01*
X16000765Y-9814378D02*
X16000765Y-9776283D01*
X16000765Y-9776283D02*
X15991241Y-9757235D01*
X15991241Y-9757235D02*
X15981718Y-9747711D01*
X15981718Y-9747711D02*
X15962670Y-9738187D01*
X16115051Y-9738187D02*
X16096003Y-9728664D01*
X16096003Y-9728664D02*
X16086479Y-9719140D01*
X16086479Y-9719140D02*
X16076956Y-9700092D01*
X16076956Y-9700092D02*
X16076956Y-9690568D01*
X16076956Y-9690568D02*
X16086479Y-9671521D01*
X16086479Y-9671521D02*
X16096003Y-9661997D01*
X16096003Y-9661997D02*
X16115051Y-9652473D01*
X16115051Y-9652473D02*
X16153146Y-9652473D01*
X16153146Y-9652473D02*
X16172194Y-9661997D01*
X16172194Y-9661997D02*
X16181718Y-9671521D01*
X16181718Y-9671521D02*
X16191241Y-9690568D01*
X16191241Y-9690568D02*
X16191241Y-9700092D01*
X16191241Y-9700092D02*
X16181718Y-9719140D01*
X16181718Y-9719140D02*
X16172194Y-9728664D01*
X16172194Y-9728664D02*
X16153146Y-9738187D01*
X16153146Y-9738187D02*
X16115051Y-9738187D01*
X16115051Y-9738187D02*
X16096003Y-9747711D01*
X16096003Y-9747711D02*
X16086479Y-9757235D01*
X16086479Y-9757235D02*
X16076956Y-9776283D01*
X16076956Y-9776283D02*
X16076956Y-9814378D01*
X16076956Y-9814378D02*
X16086479Y-9833425D01*
X16086479Y-9833425D02*
X16096003Y-9842949D01*
X16096003Y-9842949D02*
X16115051Y-9852473D01*
X16115051Y-9852473D02*
X16153146Y-9852473D01*
X16153146Y-9852473D02*
X16172194Y-9842949D01*
X16172194Y-9842949D02*
X16181718Y-9833425D01*
X16181718Y-9833425D02*
X16191241Y-9814378D01*
X16191241Y-9814378D02*
X16191241Y-9776283D01*
X16191241Y-9776283D02*
X16181718Y-9757235D01*
X16181718Y-9757235D02*
X16172194Y-9747711D01*
X16172194Y-9747711D02*
X16153146Y-9738187D01*
X16429337Y-9852473D02*
X16429337Y-9652473D01*
X16515051Y-9852473D02*
X16515051Y-9747711D01*
X16515051Y-9747711D02*
X16505527Y-9728664D01*
X16505527Y-9728664D02*
X16486480Y-9719140D01*
X16486480Y-9719140D02*
X16457908Y-9719140D01*
X16457908Y-9719140D02*
X16438860Y-9728664D01*
X16438860Y-9728664D02*
X16429337Y-9738187D01*
X16638860Y-9852473D02*
X16619813Y-9842949D01*
X16619813Y-9842949D02*
X16610289Y-9833425D01*
X16610289Y-9833425D02*
X16600765Y-9814378D01*
X16600765Y-9814378D02*
X16600765Y-9757235D01*
X16600765Y-9757235D02*
X16610289Y-9738187D01*
X16610289Y-9738187D02*
X16619813Y-9728664D01*
X16619813Y-9728664D02*
X16638860Y-9719140D01*
X16638860Y-9719140D02*
X16667432Y-9719140D01*
X16667432Y-9719140D02*
X16686480Y-9728664D01*
X16686480Y-9728664D02*
X16696003Y-9738187D01*
X16696003Y-9738187D02*
X16705527Y-9757235D01*
X16705527Y-9757235D02*
X16705527Y-9814378D01*
X16705527Y-9814378D02*
X16696003Y-9833425D01*
X16696003Y-9833425D02*
X16686480Y-9842949D01*
X16686480Y-9842949D02*
X16667432Y-9852473D01*
X16667432Y-9852473D02*
X16638860Y-9852473D01*
X16819813Y-9852473D02*
X16800765Y-9842949D01*
X16800765Y-9842949D02*
X16791242Y-9823902D01*
X16791242Y-9823902D02*
X16791242Y-9652473D01*
X16972194Y-9842949D02*
X16953146Y-9852473D01*
X16953146Y-9852473D02*
X16915051Y-9852473D01*
X16915051Y-9852473D02*
X16896003Y-9842949D01*
X16896003Y-9842949D02*
X16886480Y-9823902D01*
X16886480Y-9823902D02*
X16886480Y-9747711D01*
X16886480Y-9747711D02*
X16896003Y-9728664D01*
X16896003Y-9728664D02*
X16915051Y-9719140D01*
X16915051Y-9719140D02*
X16953146Y-9719140D01*
X16953146Y-9719140D02*
X16972194Y-9728664D01*
X16972194Y-9728664D02*
X16981718Y-9747711D01*
X16981718Y-9747711D02*
X16981718Y-9766759D01*
X16981718Y-9766759D02*
X16886480Y-9785806D01*
X17057908Y-9842949D02*
X17076956Y-9852473D01*
X17076956Y-9852473D02*
X17115051Y-9852473D01*
X17115051Y-9852473D02*
X17134099Y-9842949D01*
X17134099Y-9842949D02*
X17143623Y-9823902D01*
X17143623Y-9823902D02*
X17143623Y-9814378D01*
X17143623Y-9814378D02*
X17134099Y-9795330D01*
X17134099Y-9795330D02*
X17115051Y-9785806D01*
X17115051Y-9785806D02*
X17086480Y-9785806D01*
X17086480Y-9785806D02*
X17067432Y-9776283D01*
X17067432Y-9776283D02*
X17057908Y-9757235D01*
X17057908Y-9757235D02*
X17057908Y-9747711D01*
X17057908Y-9747711D02*
X17067432Y-9728664D01*
X17067432Y-9728664D02*
X17086480Y-9719140D01*
X17086480Y-9719140D02*
X17115051Y-9719140D01*
X17115051Y-9719140D02*
X17134099Y-9728664D01*
X17210289Y-9928664D02*
X17219813Y-9919140D01*
X17219813Y-9919140D02*
X17238861Y-9890568D01*
X17238861Y-9890568D02*
X17248384Y-9871521D01*
X17248384Y-9871521D02*
X17257908Y-9842949D01*
X17257908Y-9842949D02*
X17267432Y-9795330D01*
X17267432Y-9795330D02*
X17267432Y-9757235D01*
X17267432Y-9757235D02*
X17257908Y-9709616D01*
X17257908Y-9709616D02*
X17248384Y-9681045D01*
X17248384Y-9681045D02*
X17238861Y-9661997D01*
X17238861Y-9661997D02*
X17219813Y-9633425D01*
X17219813Y-9633425D02*
X17210289Y-9623902D01*
X17572194Y-9928664D02*
X17562670Y-9919140D01*
X17562670Y-9919140D02*
X17543623Y-9890568D01*
X17543623Y-9890568D02*
X17534099Y-9871521D01*
X17534099Y-9871521D02*
X17524575Y-9842949D01*
X17524575Y-9842949D02*
X17515051Y-9795330D01*
X17515051Y-9795330D02*
X17515051Y-9757235D01*
X17515051Y-9757235D02*
X17524575Y-9709616D01*
X17524575Y-9709616D02*
X17534099Y-9681045D01*
X17534099Y-9681045D02*
X17543623Y-9661997D01*
X17543623Y-9661997D02*
X17562670Y-9633425D01*
X17562670Y-9633425D02*
X17572194Y-9623902D01*
X17648384Y-9719140D02*
X17648384Y-9852473D01*
X17648384Y-9738187D02*
X17657908Y-9728664D01*
X17657908Y-9728664D02*
X17676956Y-9719140D01*
X17676956Y-9719140D02*
X17705527Y-9719140D01*
X17705527Y-9719140D02*
X17724575Y-9728664D01*
X17724575Y-9728664D02*
X17734099Y-9747711D01*
X17734099Y-9747711D02*
X17734099Y-9852473D01*
X17857908Y-9852473D02*
X17838861Y-9842949D01*
X17838861Y-9842949D02*
X17829337Y-9833425D01*
X17829337Y-9833425D02*
X17819813Y-9814378D01*
X17819813Y-9814378D02*
X17819813Y-9757235D01*
X17819813Y-9757235D02*
X17829337Y-9738187D01*
X17829337Y-9738187D02*
X17838861Y-9728664D01*
X17838861Y-9728664D02*
X17857908Y-9719140D01*
X17857908Y-9719140D02*
X17886480Y-9719140D01*
X17886480Y-9719140D02*
X17905527Y-9728664D01*
X17905527Y-9728664D02*
X17915051Y-9738187D01*
X17915051Y-9738187D02*
X17924575Y-9757235D01*
X17924575Y-9757235D02*
X17924575Y-9814378D01*
X17924575Y-9814378D02*
X17915051Y-9833425D01*
X17915051Y-9833425D02*
X17905527Y-9842949D01*
X17905527Y-9842949D02*
X17886480Y-9852473D01*
X17886480Y-9852473D02*
X17857908Y-9852473D01*
X17981718Y-9719140D02*
X18057908Y-9719140D01*
X18010289Y-9652473D02*
X18010289Y-9823902D01*
X18010289Y-9823902D02*
X18019813Y-9842949D01*
X18019813Y-9842949D02*
X18038861Y-9852473D01*
X18038861Y-9852473D02*
X18057908Y-9852473D01*
X18276956Y-9719140D02*
X18276956Y-9919140D01*
X18276956Y-9728664D02*
X18296004Y-9719140D01*
X18296004Y-9719140D02*
X18334099Y-9719140D01*
X18334099Y-9719140D02*
X18353146Y-9728664D01*
X18353146Y-9728664D02*
X18362670Y-9738187D01*
X18362670Y-9738187D02*
X18372194Y-9757235D01*
X18372194Y-9757235D02*
X18372194Y-9814378D01*
X18372194Y-9814378D02*
X18362670Y-9833425D01*
X18362670Y-9833425D02*
X18353146Y-9842949D01*
X18353146Y-9842949D02*
X18334099Y-9852473D01*
X18334099Y-9852473D02*
X18296004Y-9852473D01*
X18296004Y-9852473D02*
X18276956Y-9842949D01*
X18486480Y-9852473D02*
X18467432Y-9842949D01*
X18467432Y-9842949D02*
X18457908Y-9823902D01*
X18457908Y-9823902D02*
X18457908Y-9652473D01*
X18648385Y-9852473D02*
X18648385Y-9747711D01*
X18648385Y-9747711D02*
X18638861Y-9728664D01*
X18638861Y-9728664D02*
X18619813Y-9719140D01*
X18619813Y-9719140D02*
X18581718Y-9719140D01*
X18581718Y-9719140D02*
X18562670Y-9728664D01*
X18648385Y-9842949D02*
X18629337Y-9852473D01*
X18629337Y-9852473D02*
X18581718Y-9852473D01*
X18581718Y-9852473D02*
X18562670Y-9842949D01*
X18562670Y-9842949D02*
X18553146Y-9823902D01*
X18553146Y-9823902D02*
X18553146Y-9804854D01*
X18553146Y-9804854D02*
X18562670Y-9785806D01*
X18562670Y-9785806D02*
X18581718Y-9776283D01*
X18581718Y-9776283D02*
X18629337Y-9776283D01*
X18629337Y-9776283D02*
X18648385Y-9766759D01*
X18715051Y-9719140D02*
X18791242Y-9719140D01*
X18743623Y-9652473D02*
X18743623Y-9823902D01*
X18743623Y-9823902D02*
X18753146Y-9842949D01*
X18753146Y-9842949D02*
X18772194Y-9852473D01*
X18772194Y-9852473D02*
X18791242Y-9852473D01*
X18934099Y-9842949D02*
X18915051Y-9852473D01*
X18915051Y-9852473D02*
X18876956Y-9852473D01*
X18876956Y-9852473D02*
X18857908Y-9842949D01*
X18857908Y-9842949D02*
X18848385Y-9823902D01*
X18848385Y-9823902D02*
X18848385Y-9747711D01*
X18848385Y-9747711D02*
X18857908Y-9728664D01*
X18857908Y-9728664D02*
X18876956Y-9719140D01*
X18876956Y-9719140D02*
X18915051Y-9719140D01*
X18915051Y-9719140D02*
X18934099Y-9728664D01*
X18934099Y-9728664D02*
X18943623Y-9747711D01*
X18943623Y-9747711D02*
X18943623Y-9766759D01*
X18943623Y-9766759D02*
X18848385Y-9785806D01*
X19115051Y-9852473D02*
X19115051Y-9652473D01*
X19115051Y-9842949D02*
X19096004Y-9852473D01*
X19096004Y-9852473D02*
X19057908Y-9852473D01*
X19057908Y-9852473D02*
X19038861Y-9842949D01*
X19038861Y-9842949D02*
X19029337Y-9833425D01*
X19029337Y-9833425D02*
X19019813Y-9814378D01*
X19019813Y-9814378D02*
X19019813Y-9757235D01*
X19019813Y-9757235D02*
X19029337Y-9738187D01*
X19029337Y-9738187D02*
X19038861Y-9728664D01*
X19038861Y-9728664D02*
X19057908Y-9719140D01*
X19057908Y-9719140D02*
X19096004Y-9719140D01*
X19096004Y-9719140D02*
X19115051Y-9728664D01*
X19191242Y-9928664D02*
X19200766Y-9919140D01*
X19200766Y-9919140D02*
X19219813Y-9890568D01*
X19219813Y-9890568D02*
X19229337Y-9871521D01*
X19229337Y-9871521D02*
X19238861Y-9842949D01*
X19238861Y-9842949D02*
X19248385Y-9795330D01*
X19248385Y-9795330D02*
X19248385Y-9757235D01*
X19248385Y-9757235D02*
X19238861Y-9709616D01*
X19238861Y-9709616D02*
X19229337Y-9681045D01*
X19229337Y-9681045D02*
X19219813Y-9661997D01*
X19219813Y-9661997D02*
X19200766Y-9633425D01*
X19200766Y-9633425D02*
X19191242Y-9623902D01*
D10*
X12244750Y-10024989D02*
G75*
G02*
X12179750Y-10024989I-32500J0D01*
G01*
X12179750Y-10024989D02*
G75*
G02*
X12244750Y-10024989I32500J0D01*
G01*
D11*
X12543622Y-9916473D02*
X12562670Y-9916473D01*
X12562670Y-9916473D02*
X12581717Y-9925997D01*
X12581717Y-9925997D02*
X12591241Y-9935521D01*
X12591241Y-9935521D02*
X12600765Y-9954568D01*
X12600765Y-9954568D02*
X12610289Y-9992664D01*
X12610289Y-9992664D02*
X12610289Y-10040283D01*
X12610289Y-10040283D02*
X12600765Y-10078378D01*
X12600765Y-10078378D02*
X12591241Y-10097425D01*
X12591241Y-10097425D02*
X12581717Y-10106949D01*
X12581717Y-10106949D02*
X12562670Y-10116473D01*
X12562670Y-10116473D02*
X12543622Y-10116473D01*
X12543622Y-10116473D02*
X12524574Y-10106949D01*
X12524574Y-10106949D02*
X12515051Y-10097425D01*
X12515051Y-10097425D02*
X12505527Y-10078378D01*
X12505527Y-10078378D02*
X12496003Y-10040283D01*
X12496003Y-10040283D02*
X12496003Y-9992664D01*
X12496003Y-9992664D02*
X12505527Y-9954568D01*
X12505527Y-9954568D02*
X12515051Y-9935521D01*
X12515051Y-9935521D02*
X12524574Y-9925997D01*
X12524574Y-9925997D02*
X12543622Y-9916473D01*
X12696003Y-10097425D02*
X12705527Y-10106949D01*
X12705527Y-10106949D02*
X12696003Y-10116473D01*
X12696003Y-10116473D02*
X12686479Y-10106949D01*
X12686479Y-10106949D02*
X12696003Y-10097425D01*
X12696003Y-10097425D02*
X12696003Y-10116473D01*
X12876955Y-9916473D02*
X12838860Y-9916473D01*
X12838860Y-9916473D02*
X12819812Y-9925997D01*
X12819812Y-9925997D02*
X12810289Y-9935521D01*
X12810289Y-9935521D02*
X12791241Y-9964092D01*
X12791241Y-9964092D02*
X12781717Y-10002187D01*
X12781717Y-10002187D02*
X12781717Y-10078378D01*
X12781717Y-10078378D02*
X12791241Y-10097425D01*
X12791241Y-10097425D02*
X12800765Y-10106949D01*
X12800765Y-10106949D02*
X12819812Y-10116473D01*
X12819812Y-10116473D02*
X12857908Y-10116473D01*
X12857908Y-10116473D02*
X12876955Y-10106949D01*
X12876955Y-10106949D02*
X12886479Y-10097425D01*
X12886479Y-10097425D02*
X12896003Y-10078378D01*
X12896003Y-10078378D02*
X12896003Y-10030759D01*
X12896003Y-10030759D02*
X12886479Y-10011711D01*
X12886479Y-10011711D02*
X12876955Y-10002187D01*
X12876955Y-10002187D02*
X12857908Y-9992664D01*
X12857908Y-9992664D02*
X12819812Y-9992664D01*
X12819812Y-9992664D02*
X12800765Y-10002187D01*
X12800765Y-10002187D02*
X12791241Y-10011711D01*
X12791241Y-10011711D02*
X12781717Y-10030759D01*
X13076955Y-9916473D02*
X12981717Y-9916473D01*
X12981717Y-9916473D02*
X12972193Y-10011711D01*
X12972193Y-10011711D02*
X12981717Y-10002187D01*
X12981717Y-10002187D02*
X13000765Y-9992664D01*
X13000765Y-9992664D02*
X13048384Y-9992664D01*
X13048384Y-9992664D02*
X13067432Y-10002187D01*
X13067432Y-10002187D02*
X13076955Y-10011711D01*
X13076955Y-10011711D02*
X13086479Y-10030759D01*
X13086479Y-10030759D02*
X13086479Y-10078378D01*
X13086479Y-10078378D02*
X13076955Y-10097425D01*
X13076955Y-10097425D02*
X13067432Y-10106949D01*
X13067432Y-10106949D02*
X13048384Y-10116473D01*
X13048384Y-10116473D02*
X13000765Y-10116473D01*
X13000765Y-10116473D02*
X12981717Y-10106949D01*
X12981717Y-10106949D02*
X12972193Y-10097425D01*
X13210289Y-9916473D02*
X13229336Y-9916473D01*
X13229336Y-9916473D02*
X13248384Y-9925997D01*
X13248384Y-9925997D02*
X13257908Y-9935521D01*
X13257908Y-9935521D02*
X13267432Y-9954568D01*
X13267432Y-9954568D02*
X13276955Y-9992664D01*
X13276955Y-9992664D02*
X13276955Y-10040283D01*
X13276955Y-10040283D02*
X13267432Y-10078378D01*
X13267432Y-10078378D02*
X13257908Y-10097425D01*
X13257908Y-10097425D02*
X13248384Y-10106949D01*
X13248384Y-10106949D02*
X13229336Y-10116473D01*
X13229336Y-10116473D02*
X13210289Y-10116473D01*
X13210289Y-10116473D02*
X13191241Y-10106949D01*
X13191241Y-10106949D02*
X13181717Y-10097425D01*
X13181717Y-10097425D02*
X13172193Y-10078378D01*
X13172193Y-10078378D02*
X13162670Y-10040283D01*
X13162670Y-10040283D02*
X13162670Y-9992664D01*
X13162670Y-9992664D02*
X13172193Y-9954568D01*
X13172193Y-9954568D02*
X13181717Y-9935521D01*
X13181717Y-9935521D02*
X13191241Y-9925997D01*
X13191241Y-9925997D02*
X13210289Y-9916473D01*
X13362670Y-10116473D02*
X13362670Y-9983140D01*
X13362670Y-10002187D02*
X13372193Y-9992664D01*
X13372193Y-9992664D02*
X13391241Y-9983140D01*
X13391241Y-9983140D02*
X13419813Y-9983140D01*
X13419813Y-9983140D02*
X13438860Y-9992664D01*
X13438860Y-9992664D02*
X13448384Y-10011711D01*
X13448384Y-10011711D02*
X13448384Y-10116473D01*
X13448384Y-10011711D02*
X13457908Y-9992664D01*
X13457908Y-9992664D02*
X13476955Y-9983140D01*
X13476955Y-9983140D02*
X13505527Y-9983140D01*
X13505527Y-9983140D02*
X13524574Y-9992664D01*
X13524574Y-9992664D02*
X13534098Y-10011711D01*
X13534098Y-10011711D02*
X13534098Y-10116473D01*
X13629336Y-10116473D02*
X13629336Y-9983140D01*
X13629336Y-10002187D02*
X13638860Y-9992664D01*
X13638860Y-9992664D02*
X13657908Y-9983140D01*
X13657908Y-9983140D02*
X13686479Y-9983140D01*
X13686479Y-9983140D02*
X13705527Y-9992664D01*
X13705527Y-9992664D02*
X13715051Y-10011711D01*
X13715051Y-10011711D02*
X13715051Y-10116473D01*
X13715051Y-10011711D02*
X13724574Y-9992664D01*
X13724574Y-9992664D02*
X13743622Y-9983140D01*
X13743622Y-9983140D02*
X13772193Y-9983140D01*
X13772193Y-9983140D02*
X13791241Y-9992664D01*
X13791241Y-9992664D02*
X13800765Y-10011711D01*
X13800765Y-10011711D02*
X13800765Y-10116473D01*
X14191241Y-9906949D02*
X14019813Y-10164092D01*
X14448384Y-9916473D02*
X14467432Y-9916473D01*
X14467432Y-9916473D02*
X14486479Y-9925997D01*
X14486479Y-9925997D02*
X14496003Y-9935521D01*
X14496003Y-9935521D02*
X14505527Y-9954568D01*
X14505527Y-9954568D02*
X14515051Y-9992664D01*
X14515051Y-9992664D02*
X14515051Y-10040283D01*
X14515051Y-10040283D02*
X14505527Y-10078378D01*
X14505527Y-10078378D02*
X14496003Y-10097425D01*
X14496003Y-10097425D02*
X14486479Y-10106949D01*
X14486479Y-10106949D02*
X14467432Y-10116473D01*
X14467432Y-10116473D02*
X14448384Y-10116473D01*
X14448384Y-10116473D02*
X14429336Y-10106949D01*
X14429336Y-10106949D02*
X14419813Y-10097425D01*
X14419813Y-10097425D02*
X14410289Y-10078378D01*
X14410289Y-10078378D02*
X14400765Y-10040283D01*
X14400765Y-10040283D02*
X14400765Y-9992664D01*
X14400765Y-9992664D02*
X14410289Y-9954568D01*
X14410289Y-9954568D02*
X14419813Y-9935521D01*
X14419813Y-9935521D02*
X14429336Y-9925997D01*
X14429336Y-9925997D02*
X14448384Y-9916473D01*
X14600765Y-10097425D02*
X14610289Y-10106949D01*
X14610289Y-10106949D02*
X14600765Y-10116473D01*
X14600765Y-10116473D02*
X14591241Y-10106949D01*
X14591241Y-10106949D02*
X14600765Y-10097425D01*
X14600765Y-10097425D02*
X14600765Y-10116473D01*
X14734098Y-9916473D02*
X14753146Y-9916473D01*
X14753146Y-9916473D02*
X14772194Y-9925997D01*
X14772194Y-9925997D02*
X14781717Y-9935521D01*
X14781717Y-9935521D02*
X14791241Y-9954568D01*
X14791241Y-9954568D02*
X14800765Y-9992664D01*
X14800765Y-9992664D02*
X14800765Y-10040283D01*
X14800765Y-10040283D02*
X14791241Y-10078378D01*
X14791241Y-10078378D02*
X14781717Y-10097425D01*
X14781717Y-10097425D02*
X14772194Y-10106949D01*
X14772194Y-10106949D02*
X14753146Y-10116473D01*
X14753146Y-10116473D02*
X14734098Y-10116473D01*
X14734098Y-10116473D02*
X14715051Y-10106949D01*
X14715051Y-10106949D02*
X14705527Y-10097425D01*
X14705527Y-10097425D02*
X14696003Y-10078378D01*
X14696003Y-10078378D02*
X14686479Y-10040283D01*
X14686479Y-10040283D02*
X14686479Y-9992664D01*
X14686479Y-9992664D02*
X14696003Y-9954568D01*
X14696003Y-9954568D02*
X14705527Y-9935521D01*
X14705527Y-9935521D02*
X14715051Y-9925997D01*
X14715051Y-9925997D02*
X14734098Y-9916473D01*
X14876956Y-9935521D02*
X14886479Y-9925997D01*
X14886479Y-9925997D02*
X14905527Y-9916473D01*
X14905527Y-9916473D02*
X14953146Y-9916473D01*
X14953146Y-9916473D02*
X14972194Y-9925997D01*
X14972194Y-9925997D02*
X14981717Y-9935521D01*
X14981717Y-9935521D02*
X14991241Y-9954568D01*
X14991241Y-9954568D02*
X14991241Y-9973616D01*
X14991241Y-9973616D02*
X14981717Y-10002187D01*
X14981717Y-10002187D02*
X14867432Y-10116473D01*
X14867432Y-10116473D02*
X14991241Y-10116473D01*
X15172194Y-9916473D02*
X15076956Y-9916473D01*
X15076956Y-9916473D02*
X15067432Y-10011711D01*
X15067432Y-10011711D02*
X15076956Y-10002187D01*
X15076956Y-10002187D02*
X15096003Y-9992664D01*
X15096003Y-9992664D02*
X15143622Y-9992664D01*
X15143622Y-9992664D02*
X15162670Y-10002187D01*
X15162670Y-10002187D02*
X15172194Y-10011711D01*
X15172194Y-10011711D02*
X15181717Y-10030759D01*
X15181717Y-10030759D02*
X15181717Y-10078378D01*
X15181717Y-10078378D02*
X15172194Y-10097425D01*
X15172194Y-10097425D02*
X15162670Y-10106949D01*
X15162670Y-10106949D02*
X15143622Y-10116473D01*
X15143622Y-10116473D02*
X15096003Y-10116473D01*
X15096003Y-10116473D02*
X15076956Y-10106949D01*
X15076956Y-10106949D02*
X15067432Y-10097425D01*
X15353146Y-9916473D02*
X15315051Y-9916473D01*
X15315051Y-9916473D02*
X15296003Y-9925997D01*
X15296003Y-9925997D02*
X15286479Y-9935521D01*
X15286479Y-9935521D02*
X15267432Y-9964092D01*
X15267432Y-9964092D02*
X15257908Y-10002187D01*
X15257908Y-10002187D02*
X15257908Y-10078378D01*
X15257908Y-10078378D02*
X15267432Y-10097425D01*
X15267432Y-10097425D02*
X15276956Y-10106949D01*
X15276956Y-10106949D02*
X15296003Y-10116473D01*
X15296003Y-10116473D02*
X15334098Y-10116473D01*
X15334098Y-10116473D02*
X15353146Y-10106949D01*
X15353146Y-10106949D02*
X15362670Y-10097425D01*
X15362670Y-10097425D02*
X15372194Y-10078378D01*
X15372194Y-10078378D02*
X15372194Y-10030759D01*
X15372194Y-10030759D02*
X15362670Y-10011711D01*
X15362670Y-10011711D02*
X15353146Y-10002187D01*
X15353146Y-10002187D02*
X15334098Y-9992664D01*
X15334098Y-9992664D02*
X15296003Y-9992664D01*
X15296003Y-9992664D02*
X15276956Y-10002187D01*
X15276956Y-10002187D02*
X15267432Y-10011711D01*
X15267432Y-10011711D02*
X15257908Y-10030759D01*
X15448384Y-9916473D02*
X15448384Y-9954568D01*
X15524575Y-9916473D02*
X15524575Y-9954568D01*
X15819813Y-10192664D02*
X15810289Y-10183140D01*
X15810289Y-10183140D02*
X15791241Y-10154568D01*
X15791241Y-10154568D02*
X15781718Y-10135521D01*
X15781718Y-10135521D02*
X15772194Y-10106949D01*
X15772194Y-10106949D02*
X15762670Y-10059330D01*
X15762670Y-10059330D02*
X15762670Y-10021235D01*
X15762670Y-10021235D02*
X15772194Y-9973616D01*
X15772194Y-9973616D02*
X15781718Y-9945045D01*
X15781718Y-9945045D02*
X15791241Y-9925997D01*
X15791241Y-9925997D02*
X15810289Y-9897425D01*
X15810289Y-9897425D02*
X15819813Y-9887902D01*
X15886479Y-9935521D02*
X15896003Y-9925997D01*
X15896003Y-9925997D02*
X15915051Y-9916473D01*
X15915051Y-9916473D02*
X15962670Y-9916473D01*
X15962670Y-9916473D02*
X15981718Y-9925997D01*
X15981718Y-9925997D02*
X15991241Y-9935521D01*
X15991241Y-9935521D02*
X16000765Y-9954568D01*
X16000765Y-9954568D02*
X16000765Y-9973616D01*
X16000765Y-9973616D02*
X15991241Y-10002187D01*
X15991241Y-10002187D02*
X15876956Y-10116473D01*
X15876956Y-10116473D02*
X16000765Y-10116473D01*
X16238860Y-10116473D02*
X16238860Y-9916473D01*
X16324575Y-10116473D02*
X16324575Y-10011711D01*
X16324575Y-10011711D02*
X16315051Y-9992664D01*
X16315051Y-9992664D02*
X16296003Y-9983140D01*
X16296003Y-9983140D02*
X16267432Y-9983140D01*
X16267432Y-9983140D02*
X16248384Y-9992664D01*
X16248384Y-9992664D02*
X16238860Y-10002187D01*
X16448384Y-10116473D02*
X16429337Y-10106949D01*
X16429337Y-10106949D02*
X16419813Y-10097425D01*
X16419813Y-10097425D02*
X16410289Y-10078378D01*
X16410289Y-10078378D02*
X16410289Y-10021235D01*
X16410289Y-10021235D02*
X16419813Y-10002187D01*
X16419813Y-10002187D02*
X16429337Y-9992664D01*
X16429337Y-9992664D02*
X16448384Y-9983140D01*
X16448384Y-9983140D02*
X16476956Y-9983140D01*
X16476956Y-9983140D02*
X16496003Y-9992664D01*
X16496003Y-9992664D02*
X16505527Y-10002187D01*
X16505527Y-10002187D02*
X16515051Y-10021235D01*
X16515051Y-10021235D02*
X16515051Y-10078378D01*
X16515051Y-10078378D02*
X16505527Y-10097425D01*
X16505527Y-10097425D02*
X16496003Y-10106949D01*
X16496003Y-10106949D02*
X16476956Y-10116473D01*
X16476956Y-10116473D02*
X16448384Y-10116473D01*
X16629337Y-10116473D02*
X16610289Y-10106949D01*
X16610289Y-10106949D02*
X16600765Y-10087902D01*
X16600765Y-10087902D02*
X16600765Y-9916473D01*
X16781718Y-10106949D02*
X16762670Y-10116473D01*
X16762670Y-10116473D02*
X16724575Y-10116473D01*
X16724575Y-10116473D02*
X16705527Y-10106949D01*
X16705527Y-10106949D02*
X16696003Y-10087902D01*
X16696003Y-10087902D02*
X16696003Y-10011711D01*
X16696003Y-10011711D02*
X16705527Y-9992664D01*
X16705527Y-9992664D02*
X16724575Y-9983140D01*
X16724575Y-9983140D02*
X16762670Y-9983140D01*
X16762670Y-9983140D02*
X16781718Y-9992664D01*
X16781718Y-9992664D02*
X16791242Y-10011711D01*
X16791242Y-10011711D02*
X16791242Y-10030759D01*
X16791242Y-10030759D02*
X16696003Y-10049806D01*
X16867432Y-10106949D02*
X16886480Y-10116473D01*
X16886480Y-10116473D02*
X16924575Y-10116473D01*
X16924575Y-10116473D02*
X16943623Y-10106949D01*
X16943623Y-10106949D02*
X16953146Y-10087902D01*
X16953146Y-10087902D02*
X16953146Y-10078378D01*
X16953146Y-10078378D02*
X16943623Y-10059330D01*
X16943623Y-10059330D02*
X16924575Y-10049806D01*
X16924575Y-10049806D02*
X16896003Y-10049806D01*
X16896003Y-10049806D02*
X16876956Y-10040283D01*
X16876956Y-10040283D02*
X16867432Y-10021235D01*
X16867432Y-10021235D02*
X16867432Y-10011711D01*
X16867432Y-10011711D02*
X16876956Y-9992664D01*
X16876956Y-9992664D02*
X16896003Y-9983140D01*
X16896003Y-9983140D02*
X16924575Y-9983140D01*
X16924575Y-9983140D02*
X16943623Y-9992664D01*
X17019813Y-10192664D02*
X17029337Y-10183140D01*
X17029337Y-10183140D02*
X17048384Y-10154568D01*
X17048384Y-10154568D02*
X17057908Y-10135521D01*
X17057908Y-10135521D02*
X17067432Y-10106949D01*
X17067432Y-10106949D02*
X17076956Y-10059330D01*
X17076956Y-10059330D02*
X17076956Y-10021235D01*
X17076956Y-10021235D02*
X17067432Y-9973616D01*
X17067432Y-9973616D02*
X17057908Y-9945045D01*
X17057908Y-9945045D02*
X17048384Y-9925997D01*
X17048384Y-9925997D02*
X17029337Y-9897425D01*
X17029337Y-9897425D02*
X17019813Y-9887902D01*
X17381718Y-10192664D02*
X17372194Y-10183140D01*
X17372194Y-10183140D02*
X17353146Y-10154568D01*
X17353146Y-10154568D02*
X17343623Y-10135521D01*
X17343623Y-10135521D02*
X17334099Y-10106949D01*
X17334099Y-10106949D02*
X17324575Y-10059330D01*
X17324575Y-10059330D02*
X17324575Y-10021235D01*
X17324575Y-10021235D02*
X17334099Y-9973616D01*
X17334099Y-9973616D02*
X17343623Y-9945045D01*
X17343623Y-9945045D02*
X17353146Y-9925997D01*
X17353146Y-9925997D02*
X17372194Y-9897425D01*
X17372194Y-9897425D02*
X17381718Y-9887902D01*
X17457908Y-9983140D02*
X17457908Y-10116473D01*
X17457908Y-10002187D02*
X17467432Y-9992664D01*
X17467432Y-9992664D02*
X17486480Y-9983140D01*
X17486480Y-9983140D02*
X17515051Y-9983140D01*
X17515051Y-9983140D02*
X17534099Y-9992664D01*
X17534099Y-9992664D02*
X17543623Y-10011711D01*
X17543623Y-10011711D02*
X17543623Y-10116473D01*
X17667432Y-10116473D02*
X17648384Y-10106949D01*
X17648384Y-10106949D02*
X17638861Y-10097425D01*
X17638861Y-10097425D02*
X17629337Y-10078378D01*
X17629337Y-10078378D02*
X17629337Y-10021235D01*
X17629337Y-10021235D02*
X17638861Y-10002187D01*
X17638861Y-10002187D02*
X17648384Y-9992664D01*
X17648384Y-9992664D02*
X17667432Y-9983140D01*
X17667432Y-9983140D02*
X17696004Y-9983140D01*
X17696004Y-9983140D02*
X17715051Y-9992664D01*
X17715051Y-9992664D02*
X17724575Y-10002187D01*
X17724575Y-10002187D02*
X17734099Y-10021235D01*
X17734099Y-10021235D02*
X17734099Y-10078378D01*
X17734099Y-10078378D02*
X17724575Y-10097425D01*
X17724575Y-10097425D02*
X17715051Y-10106949D01*
X17715051Y-10106949D02*
X17696004Y-10116473D01*
X17696004Y-10116473D02*
X17667432Y-10116473D01*
X17791242Y-9983140D02*
X17867432Y-9983140D01*
X17819813Y-9916473D02*
X17819813Y-10087902D01*
X17819813Y-10087902D02*
X17829337Y-10106949D01*
X17829337Y-10106949D02*
X17848384Y-10116473D01*
X17848384Y-10116473D02*
X17867432Y-10116473D01*
X18086480Y-9983140D02*
X18086480Y-10183140D01*
X18086480Y-9992664D02*
X18105527Y-9983140D01*
X18105527Y-9983140D02*
X18143623Y-9983140D01*
X18143623Y-9983140D02*
X18162670Y-9992664D01*
X18162670Y-9992664D02*
X18172194Y-10002187D01*
X18172194Y-10002187D02*
X18181718Y-10021235D01*
X18181718Y-10021235D02*
X18181718Y-10078378D01*
X18181718Y-10078378D02*
X18172194Y-10097425D01*
X18172194Y-10097425D02*
X18162670Y-10106949D01*
X18162670Y-10106949D02*
X18143623Y-10116473D01*
X18143623Y-10116473D02*
X18105527Y-10116473D01*
X18105527Y-10116473D02*
X18086480Y-10106949D01*
X18296004Y-10116473D02*
X18276956Y-10106949D01*
X18276956Y-10106949D02*
X18267432Y-10087902D01*
X18267432Y-10087902D02*
X18267432Y-9916473D01*
X18457908Y-10116473D02*
X18457908Y-10011711D01*
X18457908Y-10011711D02*
X18448385Y-9992664D01*
X18448385Y-9992664D02*
X18429337Y-9983140D01*
X18429337Y-9983140D02*
X18391242Y-9983140D01*
X18391242Y-9983140D02*
X18372194Y-9992664D01*
X18457908Y-10106949D02*
X18438861Y-10116473D01*
X18438861Y-10116473D02*
X18391242Y-10116473D01*
X18391242Y-10116473D02*
X18372194Y-10106949D01*
X18372194Y-10106949D02*
X18362670Y-10087902D01*
X18362670Y-10087902D02*
X18362670Y-10068854D01*
X18362670Y-10068854D02*
X18372194Y-10049806D01*
X18372194Y-10049806D02*
X18391242Y-10040283D01*
X18391242Y-10040283D02*
X18438861Y-10040283D01*
X18438861Y-10040283D02*
X18457908Y-10030759D01*
X18524575Y-9983140D02*
X18600765Y-9983140D01*
X18553146Y-9916473D02*
X18553146Y-10087902D01*
X18553146Y-10087902D02*
X18562670Y-10106949D01*
X18562670Y-10106949D02*
X18581718Y-10116473D01*
X18581718Y-10116473D02*
X18600765Y-10116473D01*
X18743623Y-10106949D02*
X18724575Y-10116473D01*
X18724575Y-10116473D02*
X18686480Y-10116473D01*
X18686480Y-10116473D02*
X18667432Y-10106949D01*
X18667432Y-10106949D02*
X18657908Y-10087902D01*
X18657908Y-10087902D02*
X18657908Y-10011711D01*
X18657908Y-10011711D02*
X18667432Y-9992664D01*
X18667432Y-9992664D02*
X18686480Y-9983140D01*
X18686480Y-9983140D02*
X18724575Y-9983140D01*
X18724575Y-9983140D02*
X18743623Y-9992664D01*
X18743623Y-9992664D02*
X18753146Y-10011711D01*
X18753146Y-10011711D02*
X18753146Y-10030759D01*
X18753146Y-10030759D02*
X18657908Y-10049806D01*
X18924575Y-10116473D02*
X18924575Y-9916473D01*
X18924575Y-10106949D02*
X18905527Y-10116473D01*
X18905527Y-10116473D02*
X18867432Y-10116473D01*
X18867432Y-10116473D02*
X18848385Y-10106949D01*
X18848385Y-10106949D02*
X18838861Y-10097425D01*
X18838861Y-10097425D02*
X18829337Y-10078378D01*
X18829337Y-10078378D02*
X18829337Y-10021235D01*
X18829337Y-10021235D02*
X18838861Y-10002187D01*
X18838861Y-10002187D02*
X18848385Y-9992664D01*
X18848385Y-9992664D02*
X18867432Y-9983140D01*
X18867432Y-9983140D02*
X18905527Y-9983140D01*
X18905527Y-9983140D02*
X18924575Y-9992664D01*
X19000766Y-10192664D02*
X19010289Y-10183140D01*
X19010289Y-10183140D02*
X19029337Y-10154568D01*
X19029337Y-10154568D02*
X19038861Y-10135521D01*
X19038861Y-10135521D02*
X19048385Y-10106949D01*
X19048385Y-10106949D02*
X19057908Y-10059330D01*
X19057908Y-10059330D02*
X19057908Y-10021235D01*
X19057908Y-10021235D02*
X19048385Y-9973616D01*
X19048385Y-9973616D02*
X19038861Y-9945045D01*
X19038861Y-9945045D02*
X19029337Y-9925997D01*
X19029337Y-9925997D02*
X19010289Y-9897425D01*
X19010289Y-9897425D02*
X19000766Y-9887902D01*
X12144750Y-10188989D02*
X12144750Y-10388989D01*
X12044750Y-10288989D02*
X12244750Y-10288989D01*
X12496003Y-10199521D02*
X12505527Y-10189997D01*
X12505527Y-10189997D02*
X12524574Y-10180473D01*
X12524574Y-10180473D02*
X12572193Y-10180473D01*
X12572193Y-10180473D02*
X12591241Y-10189997D01*
X12591241Y-10189997D02*
X12600765Y-10199521D01*
X12600765Y-10199521D02*
X12610289Y-10218568D01*
X12610289Y-10218568D02*
X12610289Y-10237616D01*
X12610289Y-10237616D02*
X12600765Y-10266187D01*
X12600765Y-10266187D02*
X12486479Y-10380473D01*
X12486479Y-10380473D02*
X12610289Y-10380473D01*
X12696003Y-10361425D02*
X12705527Y-10370949D01*
X12705527Y-10370949D02*
X12696003Y-10380473D01*
X12696003Y-10380473D02*
X12686479Y-10370949D01*
X12686479Y-10370949D02*
X12696003Y-10361425D01*
X12696003Y-10361425D02*
X12696003Y-10380473D01*
X12781717Y-10199521D02*
X12791241Y-10189997D01*
X12791241Y-10189997D02*
X12810289Y-10180473D01*
X12810289Y-10180473D02*
X12857908Y-10180473D01*
X12857908Y-10180473D02*
X12876955Y-10189997D01*
X12876955Y-10189997D02*
X12886479Y-10199521D01*
X12886479Y-10199521D02*
X12896003Y-10218568D01*
X12896003Y-10218568D02*
X12896003Y-10237616D01*
X12896003Y-10237616D02*
X12886479Y-10266187D01*
X12886479Y-10266187D02*
X12772193Y-10380473D01*
X12772193Y-10380473D02*
X12896003Y-10380473D01*
X13019812Y-10180473D02*
X13038860Y-10180473D01*
X13038860Y-10180473D02*
X13057908Y-10189997D01*
X13057908Y-10189997D02*
X13067432Y-10199521D01*
X13067432Y-10199521D02*
X13076955Y-10218568D01*
X13076955Y-10218568D02*
X13086479Y-10256664D01*
X13086479Y-10256664D02*
X13086479Y-10304283D01*
X13086479Y-10304283D02*
X13076955Y-10342378D01*
X13076955Y-10342378D02*
X13067432Y-10361425D01*
X13067432Y-10361425D02*
X13057908Y-10370949D01*
X13057908Y-10370949D02*
X13038860Y-10380473D01*
X13038860Y-10380473D02*
X13019812Y-10380473D01*
X13019812Y-10380473D02*
X13000765Y-10370949D01*
X13000765Y-10370949D02*
X12991241Y-10361425D01*
X12991241Y-10361425D02*
X12981717Y-10342378D01*
X12981717Y-10342378D02*
X12972193Y-10304283D01*
X12972193Y-10304283D02*
X12972193Y-10256664D01*
X12972193Y-10256664D02*
X12981717Y-10218568D01*
X12981717Y-10218568D02*
X12991241Y-10199521D01*
X12991241Y-10199521D02*
X13000765Y-10189997D01*
X13000765Y-10189997D02*
X13019812Y-10180473D01*
X13210289Y-10180473D02*
X13229336Y-10180473D01*
X13229336Y-10180473D02*
X13248384Y-10189997D01*
X13248384Y-10189997D02*
X13257908Y-10199521D01*
X13257908Y-10199521D02*
X13267432Y-10218568D01*
X13267432Y-10218568D02*
X13276955Y-10256664D01*
X13276955Y-10256664D02*
X13276955Y-10304283D01*
X13276955Y-10304283D02*
X13267432Y-10342378D01*
X13267432Y-10342378D02*
X13257908Y-10361425D01*
X13257908Y-10361425D02*
X13248384Y-10370949D01*
X13248384Y-10370949D02*
X13229336Y-10380473D01*
X13229336Y-10380473D02*
X13210289Y-10380473D01*
X13210289Y-10380473D02*
X13191241Y-10370949D01*
X13191241Y-10370949D02*
X13181717Y-10361425D01*
X13181717Y-10361425D02*
X13172193Y-10342378D01*
X13172193Y-10342378D02*
X13162670Y-10304283D01*
X13162670Y-10304283D02*
X13162670Y-10256664D01*
X13162670Y-10256664D02*
X13172193Y-10218568D01*
X13172193Y-10218568D02*
X13181717Y-10199521D01*
X13181717Y-10199521D02*
X13191241Y-10189997D01*
X13191241Y-10189997D02*
X13210289Y-10180473D01*
X13362670Y-10380473D02*
X13362670Y-10247140D01*
X13362670Y-10266187D02*
X13372193Y-10256664D01*
X13372193Y-10256664D02*
X13391241Y-10247140D01*
X13391241Y-10247140D02*
X13419813Y-10247140D01*
X13419813Y-10247140D02*
X13438860Y-10256664D01*
X13438860Y-10256664D02*
X13448384Y-10275711D01*
X13448384Y-10275711D02*
X13448384Y-10380473D01*
X13448384Y-10275711D02*
X13457908Y-10256664D01*
X13457908Y-10256664D02*
X13476955Y-10247140D01*
X13476955Y-10247140D02*
X13505527Y-10247140D01*
X13505527Y-10247140D02*
X13524574Y-10256664D01*
X13524574Y-10256664D02*
X13534098Y-10275711D01*
X13534098Y-10275711D02*
X13534098Y-10380473D01*
X13629336Y-10380473D02*
X13629336Y-10247140D01*
X13629336Y-10266187D02*
X13638860Y-10256664D01*
X13638860Y-10256664D02*
X13657908Y-10247140D01*
X13657908Y-10247140D02*
X13686479Y-10247140D01*
X13686479Y-10247140D02*
X13705527Y-10256664D01*
X13705527Y-10256664D02*
X13715051Y-10275711D01*
X13715051Y-10275711D02*
X13715051Y-10380473D01*
X13715051Y-10275711D02*
X13724574Y-10256664D01*
X13724574Y-10256664D02*
X13743622Y-10247140D01*
X13743622Y-10247140D02*
X13772193Y-10247140D01*
X13772193Y-10247140D02*
X13791241Y-10256664D01*
X13791241Y-10256664D02*
X13800765Y-10275711D01*
X13800765Y-10275711D02*
X13800765Y-10380473D01*
X14191241Y-10170949D02*
X14019813Y-10428092D01*
X14448384Y-10180473D02*
X14467432Y-10180473D01*
X14467432Y-10180473D02*
X14486479Y-10189997D01*
X14486479Y-10189997D02*
X14496003Y-10199521D01*
X14496003Y-10199521D02*
X14505527Y-10218568D01*
X14505527Y-10218568D02*
X14515051Y-10256664D01*
X14515051Y-10256664D02*
X14515051Y-10304283D01*
X14515051Y-10304283D02*
X14505527Y-10342378D01*
X14505527Y-10342378D02*
X14496003Y-10361425D01*
X14496003Y-10361425D02*
X14486479Y-10370949D01*
X14486479Y-10370949D02*
X14467432Y-10380473D01*
X14467432Y-10380473D02*
X14448384Y-10380473D01*
X14448384Y-10380473D02*
X14429336Y-10370949D01*
X14429336Y-10370949D02*
X14419813Y-10361425D01*
X14419813Y-10361425D02*
X14410289Y-10342378D01*
X14410289Y-10342378D02*
X14400765Y-10304283D01*
X14400765Y-10304283D02*
X14400765Y-10256664D01*
X14400765Y-10256664D02*
X14410289Y-10218568D01*
X14410289Y-10218568D02*
X14419813Y-10199521D01*
X14419813Y-10199521D02*
X14429336Y-10189997D01*
X14429336Y-10189997D02*
X14448384Y-10180473D01*
X14600765Y-10361425D02*
X14610289Y-10370949D01*
X14610289Y-10370949D02*
X14600765Y-10380473D01*
X14600765Y-10380473D02*
X14591241Y-10370949D01*
X14591241Y-10370949D02*
X14600765Y-10361425D01*
X14600765Y-10361425D02*
X14600765Y-10380473D01*
X14734098Y-10180473D02*
X14753146Y-10180473D01*
X14753146Y-10180473D02*
X14772194Y-10189997D01*
X14772194Y-10189997D02*
X14781717Y-10199521D01*
X14781717Y-10199521D02*
X14791241Y-10218568D01*
X14791241Y-10218568D02*
X14800765Y-10256664D01*
X14800765Y-10256664D02*
X14800765Y-10304283D01*
X14800765Y-10304283D02*
X14791241Y-10342378D01*
X14791241Y-10342378D02*
X14781717Y-10361425D01*
X14781717Y-10361425D02*
X14772194Y-10370949D01*
X14772194Y-10370949D02*
X14753146Y-10380473D01*
X14753146Y-10380473D02*
X14734098Y-10380473D01*
X14734098Y-10380473D02*
X14715051Y-10370949D01*
X14715051Y-10370949D02*
X14705527Y-10361425D01*
X14705527Y-10361425D02*
X14696003Y-10342378D01*
X14696003Y-10342378D02*
X14686479Y-10304283D01*
X14686479Y-10304283D02*
X14686479Y-10256664D01*
X14686479Y-10256664D02*
X14696003Y-10218568D01*
X14696003Y-10218568D02*
X14705527Y-10199521D01*
X14705527Y-10199521D02*
X14715051Y-10189997D01*
X14715051Y-10189997D02*
X14734098Y-10180473D01*
X14915051Y-10266187D02*
X14896003Y-10256664D01*
X14896003Y-10256664D02*
X14886479Y-10247140D01*
X14886479Y-10247140D02*
X14876956Y-10228092D01*
X14876956Y-10228092D02*
X14876956Y-10218568D01*
X14876956Y-10218568D02*
X14886479Y-10199521D01*
X14886479Y-10199521D02*
X14896003Y-10189997D01*
X14896003Y-10189997D02*
X14915051Y-10180473D01*
X14915051Y-10180473D02*
X14953146Y-10180473D01*
X14953146Y-10180473D02*
X14972194Y-10189997D01*
X14972194Y-10189997D02*
X14981717Y-10199521D01*
X14981717Y-10199521D02*
X14991241Y-10218568D01*
X14991241Y-10218568D02*
X14991241Y-10228092D01*
X14991241Y-10228092D02*
X14981717Y-10247140D01*
X14981717Y-10247140D02*
X14972194Y-10256664D01*
X14972194Y-10256664D02*
X14953146Y-10266187D01*
X14953146Y-10266187D02*
X14915051Y-10266187D01*
X14915051Y-10266187D02*
X14896003Y-10275711D01*
X14896003Y-10275711D02*
X14886479Y-10285235D01*
X14886479Y-10285235D02*
X14876956Y-10304283D01*
X14876956Y-10304283D02*
X14876956Y-10342378D01*
X14876956Y-10342378D02*
X14886479Y-10361425D01*
X14886479Y-10361425D02*
X14896003Y-10370949D01*
X14896003Y-10370949D02*
X14915051Y-10380473D01*
X14915051Y-10380473D02*
X14953146Y-10380473D01*
X14953146Y-10380473D02*
X14972194Y-10370949D01*
X14972194Y-10370949D02*
X14981717Y-10361425D01*
X14981717Y-10361425D02*
X14991241Y-10342378D01*
X14991241Y-10342378D02*
X14991241Y-10304283D01*
X14991241Y-10304283D02*
X14981717Y-10285235D01*
X14981717Y-10285235D02*
X14972194Y-10275711D01*
X14972194Y-10275711D02*
X14953146Y-10266187D01*
X15162670Y-10180473D02*
X15124575Y-10180473D01*
X15124575Y-10180473D02*
X15105527Y-10189997D01*
X15105527Y-10189997D02*
X15096003Y-10199521D01*
X15096003Y-10199521D02*
X15076956Y-10228092D01*
X15076956Y-10228092D02*
X15067432Y-10266187D01*
X15067432Y-10266187D02*
X15067432Y-10342378D01*
X15067432Y-10342378D02*
X15076956Y-10361425D01*
X15076956Y-10361425D02*
X15086479Y-10370949D01*
X15086479Y-10370949D02*
X15105527Y-10380473D01*
X15105527Y-10380473D02*
X15143622Y-10380473D01*
X15143622Y-10380473D02*
X15162670Y-10370949D01*
X15162670Y-10370949D02*
X15172194Y-10361425D01*
X15172194Y-10361425D02*
X15181717Y-10342378D01*
X15181717Y-10342378D02*
X15181717Y-10294759D01*
X15181717Y-10294759D02*
X15172194Y-10275711D01*
X15172194Y-10275711D02*
X15162670Y-10266187D01*
X15162670Y-10266187D02*
X15143622Y-10256664D01*
X15143622Y-10256664D02*
X15105527Y-10256664D01*
X15105527Y-10256664D02*
X15086479Y-10266187D01*
X15086479Y-10266187D02*
X15076956Y-10275711D01*
X15076956Y-10275711D02*
X15067432Y-10294759D01*
X15353146Y-10180473D02*
X15315051Y-10180473D01*
X15315051Y-10180473D02*
X15296003Y-10189997D01*
X15296003Y-10189997D02*
X15286479Y-10199521D01*
X15286479Y-10199521D02*
X15267432Y-10228092D01*
X15267432Y-10228092D02*
X15257908Y-10266187D01*
X15257908Y-10266187D02*
X15257908Y-10342378D01*
X15257908Y-10342378D02*
X15267432Y-10361425D01*
X15267432Y-10361425D02*
X15276956Y-10370949D01*
X15276956Y-10370949D02*
X15296003Y-10380473D01*
X15296003Y-10380473D02*
X15334098Y-10380473D01*
X15334098Y-10380473D02*
X15353146Y-10370949D01*
X15353146Y-10370949D02*
X15362670Y-10361425D01*
X15362670Y-10361425D02*
X15372194Y-10342378D01*
X15372194Y-10342378D02*
X15372194Y-10294759D01*
X15372194Y-10294759D02*
X15362670Y-10275711D01*
X15362670Y-10275711D02*
X15353146Y-10266187D01*
X15353146Y-10266187D02*
X15334098Y-10256664D01*
X15334098Y-10256664D02*
X15296003Y-10256664D01*
X15296003Y-10256664D02*
X15276956Y-10266187D01*
X15276956Y-10266187D02*
X15267432Y-10275711D01*
X15267432Y-10275711D02*
X15257908Y-10294759D01*
X15448384Y-10180473D02*
X15448384Y-10218568D01*
X15524575Y-10180473D02*
X15524575Y-10218568D01*
X15819813Y-10456664D02*
X15810289Y-10447140D01*
X15810289Y-10447140D02*
X15791241Y-10418568D01*
X15791241Y-10418568D02*
X15781718Y-10399521D01*
X15781718Y-10399521D02*
X15772194Y-10370949D01*
X15772194Y-10370949D02*
X15762670Y-10323330D01*
X15762670Y-10323330D02*
X15762670Y-10285235D01*
X15762670Y-10285235D02*
X15772194Y-10237616D01*
X15772194Y-10237616D02*
X15781718Y-10209045D01*
X15781718Y-10209045D02*
X15791241Y-10189997D01*
X15791241Y-10189997D02*
X15810289Y-10161425D01*
X15810289Y-10161425D02*
X15819813Y-10151902D01*
X15981718Y-10247140D02*
X15981718Y-10380473D01*
X15934098Y-10170949D02*
X15886479Y-10313806D01*
X15886479Y-10313806D02*
X16010289Y-10313806D01*
X16238860Y-10380473D02*
X16238860Y-10180473D01*
X16324575Y-10380473D02*
X16324575Y-10275711D01*
X16324575Y-10275711D02*
X16315051Y-10256664D01*
X16315051Y-10256664D02*
X16296003Y-10247140D01*
X16296003Y-10247140D02*
X16267432Y-10247140D01*
X16267432Y-10247140D02*
X16248384Y-10256664D01*
X16248384Y-10256664D02*
X16238860Y-10266187D01*
X16448384Y-10380473D02*
X16429337Y-10370949D01*
X16429337Y-10370949D02*
X16419813Y-10361425D01*
X16419813Y-10361425D02*
X16410289Y-10342378D01*
X16410289Y-10342378D02*
X16410289Y-10285235D01*
X16410289Y-10285235D02*
X16419813Y-10266187D01*
X16419813Y-10266187D02*
X16429337Y-10256664D01*
X16429337Y-10256664D02*
X16448384Y-10247140D01*
X16448384Y-10247140D02*
X16476956Y-10247140D01*
X16476956Y-10247140D02*
X16496003Y-10256664D01*
X16496003Y-10256664D02*
X16505527Y-10266187D01*
X16505527Y-10266187D02*
X16515051Y-10285235D01*
X16515051Y-10285235D02*
X16515051Y-10342378D01*
X16515051Y-10342378D02*
X16505527Y-10361425D01*
X16505527Y-10361425D02*
X16496003Y-10370949D01*
X16496003Y-10370949D02*
X16476956Y-10380473D01*
X16476956Y-10380473D02*
X16448384Y-10380473D01*
X16629337Y-10380473D02*
X16610289Y-10370949D01*
X16610289Y-10370949D02*
X16600765Y-10351902D01*
X16600765Y-10351902D02*
X16600765Y-10180473D01*
X16781718Y-10370949D02*
X16762670Y-10380473D01*
X16762670Y-10380473D02*
X16724575Y-10380473D01*
X16724575Y-10380473D02*
X16705527Y-10370949D01*
X16705527Y-10370949D02*
X16696003Y-10351902D01*
X16696003Y-10351902D02*
X16696003Y-10275711D01*
X16696003Y-10275711D02*
X16705527Y-10256664D01*
X16705527Y-10256664D02*
X16724575Y-10247140D01*
X16724575Y-10247140D02*
X16762670Y-10247140D01*
X16762670Y-10247140D02*
X16781718Y-10256664D01*
X16781718Y-10256664D02*
X16791242Y-10275711D01*
X16791242Y-10275711D02*
X16791242Y-10294759D01*
X16791242Y-10294759D02*
X16696003Y-10313806D01*
X16867432Y-10370949D02*
X16886480Y-10380473D01*
X16886480Y-10380473D02*
X16924575Y-10380473D01*
X16924575Y-10380473D02*
X16943623Y-10370949D01*
X16943623Y-10370949D02*
X16953146Y-10351902D01*
X16953146Y-10351902D02*
X16953146Y-10342378D01*
X16953146Y-10342378D02*
X16943623Y-10323330D01*
X16943623Y-10323330D02*
X16924575Y-10313806D01*
X16924575Y-10313806D02*
X16896003Y-10313806D01*
X16896003Y-10313806D02*
X16876956Y-10304283D01*
X16876956Y-10304283D02*
X16867432Y-10285235D01*
X16867432Y-10285235D02*
X16867432Y-10275711D01*
X16867432Y-10275711D02*
X16876956Y-10256664D01*
X16876956Y-10256664D02*
X16896003Y-10247140D01*
X16896003Y-10247140D02*
X16924575Y-10247140D01*
X16924575Y-10247140D02*
X16943623Y-10256664D01*
X17019813Y-10456664D02*
X17029337Y-10447140D01*
X17029337Y-10447140D02*
X17048384Y-10418568D01*
X17048384Y-10418568D02*
X17057908Y-10399521D01*
X17057908Y-10399521D02*
X17067432Y-10370949D01*
X17067432Y-10370949D02*
X17076956Y-10323330D01*
X17076956Y-10323330D02*
X17076956Y-10285235D01*
X17076956Y-10285235D02*
X17067432Y-10237616D01*
X17067432Y-10237616D02*
X17057908Y-10209045D01*
X17057908Y-10209045D02*
X17048384Y-10189997D01*
X17048384Y-10189997D02*
X17029337Y-10161425D01*
X17029337Y-10161425D02*
X17019813Y-10151902D01*
X17381718Y-10456664D02*
X17372194Y-10447140D01*
X17372194Y-10447140D02*
X17353146Y-10418568D01*
X17353146Y-10418568D02*
X17343623Y-10399521D01*
X17343623Y-10399521D02*
X17334099Y-10370949D01*
X17334099Y-10370949D02*
X17324575Y-10323330D01*
X17324575Y-10323330D02*
X17324575Y-10285235D01*
X17324575Y-10285235D02*
X17334099Y-10237616D01*
X17334099Y-10237616D02*
X17343623Y-10209045D01*
X17343623Y-10209045D02*
X17353146Y-10189997D01*
X17353146Y-10189997D02*
X17372194Y-10161425D01*
X17372194Y-10161425D02*
X17381718Y-10151902D01*
X17457908Y-10247140D02*
X17457908Y-10380473D01*
X17457908Y-10266187D02*
X17467432Y-10256664D01*
X17467432Y-10256664D02*
X17486480Y-10247140D01*
X17486480Y-10247140D02*
X17515051Y-10247140D01*
X17515051Y-10247140D02*
X17534099Y-10256664D01*
X17534099Y-10256664D02*
X17543623Y-10275711D01*
X17543623Y-10275711D02*
X17543623Y-10380473D01*
X17667432Y-10380473D02*
X17648384Y-10370949D01*
X17648384Y-10370949D02*
X17638861Y-10361425D01*
X17638861Y-10361425D02*
X17629337Y-10342378D01*
X17629337Y-10342378D02*
X17629337Y-10285235D01*
X17629337Y-10285235D02*
X17638861Y-10266187D01*
X17638861Y-10266187D02*
X17648384Y-10256664D01*
X17648384Y-10256664D02*
X17667432Y-10247140D01*
X17667432Y-10247140D02*
X17696004Y-10247140D01*
X17696004Y-10247140D02*
X17715051Y-10256664D01*
X17715051Y-10256664D02*
X17724575Y-10266187D01*
X17724575Y-10266187D02*
X17734099Y-10285235D01*
X17734099Y-10285235D02*
X17734099Y-10342378D01*
X17734099Y-10342378D02*
X17724575Y-10361425D01*
X17724575Y-10361425D02*
X17715051Y-10370949D01*
X17715051Y-10370949D02*
X17696004Y-10380473D01*
X17696004Y-10380473D02*
X17667432Y-10380473D01*
X17791242Y-10247140D02*
X17867432Y-10247140D01*
X17819813Y-10180473D02*
X17819813Y-10351902D01*
X17819813Y-10351902D02*
X17829337Y-10370949D01*
X17829337Y-10370949D02*
X17848384Y-10380473D01*
X17848384Y-10380473D02*
X17867432Y-10380473D01*
X18086480Y-10247140D02*
X18086480Y-10447140D01*
X18086480Y-10256664D02*
X18105527Y-10247140D01*
X18105527Y-10247140D02*
X18143623Y-10247140D01*
X18143623Y-10247140D02*
X18162670Y-10256664D01*
X18162670Y-10256664D02*
X18172194Y-10266187D01*
X18172194Y-10266187D02*
X18181718Y-10285235D01*
X18181718Y-10285235D02*
X18181718Y-10342378D01*
X18181718Y-10342378D02*
X18172194Y-10361425D01*
X18172194Y-10361425D02*
X18162670Y-10370949D01*
X18162670Y-10370949D02*
X18143623Y-10380473D01*
X18143623Y-10380473D02*
X18105527Y-10380473D01*
X18105527Y-10380473D02*
X18086480Y-10370949D01*
X18296004Y-10380473D02*
X18276956Y-10370949D01*
X18276956Y-10370949D02*
X18267432Y-10351902D01*
X18267432Y-10351902D02*
X18267432Y-10180473D01*
X18457908Y-10380473D02*
X18457908Y-10275711D01*
X18457908Y-10275711D02*
X18448385Y-10256664D01*
X18448385Y-10256664D02*
X18429337Y-10247140D01*
X18429337Y-10247140D02*
X18391242Y-10247140D01*
X18391242Y-10247140D02*
X18372194Y-10256664D01*
X18457908Y-10370949D02*
X18438861Y-10380473D01*
X18438861Y-10380473D02*
X18391242Y-10380473D01*
X18391242Y-10380473D02*
X18372194Y-10370949D01*
X18372194Y-10370949D02*
X18362670Y-10351902D01*
X18362670Y-10351902D02*
X18362670Y-10332854D01*
X18362670Y-10332854D02*
X18372194Y-10313806D01*
X18372194Y-10313806D02*
X18391242Y-10304283D01*
X18391242Y-10304283D02*
X18438861Y-10304283D01*
X18438861Y-10304283D02*
X18457908Y-10294759D01*
X18524575Y-10247140D02*
X18600765Y-10247140D01*
X18553146Y-10180473D02*
X18553146Y-10351902D01*
X18553146Y-10351902D02*
X18562670Y-10370949D01*
X18562670Y-10370949D02*
X18581718Y-10380473D01*
X18581718Y-10380473D02*
X18600765Y-10380473D01*
X18743623Y-10370949D02*
X18724575Y-10380473D01*
X18724575Y-10380473D02*
X18686480Y-10380473D01*
X18686480Y-10380473D02*
X18667432Y-10370949D01*
X18667432Y-10370949D02*
X18657908Y-10351902D01*
X18657908Y-10351902D02*
X18657908Y-10275711D01*
X18657908Y-10275711D02*
X18667432Y-10256664D01*
X18667432Y-10256664D02*
X18686480Y-10247140D01*
X18686480Y-10247140D02*
X18724575Y-10247140D01*
X18724575Y-10247140D02*
X18743623Y-10256664D01*
X18743623Y-10256664D02*
X18753146Y-10275711D01*
X18753146Y-10275711D02*
X18753146Y-10294759D01*
X18753146Y-10294759D02*
X18657908Y-10313806D01*
X18924575Y-10380473D02*
X18924575Y-10180473D01*
X18924575Y-10370949D02*
X18905527Y-10380473D01*
X18905527Y-10380473D02*
X18867432Y-10380473D01*
X18867432Y-10380473D02*
X18848385Y-10370949D01*
X18848385Y-10370949D02*
X18838861Y-10361425D01*
X18838861Y-10361425D02*
X18829337Y-10342378D01*
X18829337Y-10342378D02*
X18829337Y-10285235D01*
X18829337Y-10285235D02*
X18838861Y-10266187D01*
X18838861Y-10266187D02*
X18848385Y-10256664D01*
X18848385Y-10256664D02*
X18867432Y-10247140D01*
X18867432Y-10247140D02*
X18905527Y-10247140D01*
X18905527Y-10247140D02*
X18924575Y-10256664D01*
X19000766Y-10456664D02*
X19010289Y-10447140D01*
X19010289Y-10447140D02*
X19029337Y-10418568D01*
X19029337Y-10418568D02*
X19038861Y-10399521D01*
X19038861Y-10399521D02*
X19048385Y-10370949D01*
X19048385Y-10370949D02*
X19057908Y-10323330D01*
X19057908Y-10323330D02*
X19057908Y-10285235D01*
X19057908Y-10285235D02*
X19048385Y-10237616D01*
X19048385Y-10237616D02*
X19038861Y-10209045D01*
X19038861Y-10209045D02*
X19029337Y-10189997D01*
X19029337Y-10189997D02*
X19010289Y-10161425D01*
X19010289Y-10161425D02*
X19000766Y-10151902D01*
M02*
