M48
; DRILL file {KiCad 9.0.7} date 2026-03-11T18:16:00+0530
; FORMAT={-:-/ absolute / metric / decimal}
; #@! TF.CreationDate,2026-03-11T18:16:00+05:30
; #@! TF.GenerationSoftware,Kicad,Pcbnew,9.0.7
; #@! TF.FileFunction,Plated,1,2,PTH
FMAT,2
METRIC
; #@! TA.AperFunction,Plated,PTH,ViaDrill
T1C0.250
; #@! TA.AperFunction,Plated,PTH,ComponentDrill
T2C0.250
; #@! TA.AperFunction,Plated,PTH,ViaDrill
T3C0.300
; #@! TA.AperFunction,Plated,PTH,ComponentDrill
T4C0.300
; #@! TA.AperFunction,Plated,PTH,ComponentDrill
T5C0.600
; #@! TA.AperFunction,Plated,PTH,ComponentDrill
T6C0.800
; #@! TA.AperFunction,Plated,PTH,ComponentDrill
T7C1.000
; #@! TA.AperFunction,Plated,PTH,ComponentDrill
T8C1.300
%
G90
G05
T1
X133.464Y-70.618
X134.957Y-62.523
X135.009Y-64.698
X135.432Y-72.106
X135.583Y-64.891
X136.522Y-61.449
X138.758Y-65.095
X140.105Y-67.789
X140.2Y-71.07
X140.388Y-60.65
X140.461Y-63.469
X143.078Y-65.045
X144.982Y-34.641
X145.795Y-64.994
X146.023Y-59.761
X147.37Y-63.063
X147.497Y-61.489
X149.692Y-65.607
X149.881Y-63.165
X150.115Y-57.61
X150.595Y-62.073
X151.565Y-34.734
X152.551Y-63.571
X152.653Y-54.834
X154.558Y-53.411
X155.091Y-61.209
X155.65Y-56.307
X155.675Y-57.475
X155.675Y-58.822
X155.802Y-60.041
X156.209Y-61.997
X157.631Y-60.676
X160.248Y-61.666
X160.298Y-63.165
X160.307Y-64.105
X160.451Y-58.11
X161.365Y-38.73
X162.178Y-38.07
X162.178Y-38.73
X162.686Y-55.697
X162.686Y-56.866
X162.686Y-58.034
X162.686Y-59.126
X162.991Y-75.738
T2
X139.468Y-64.179
X139.468Y-65.629
X139.468Y-67.079
X140.918Y-64.179
X140.918Y-65.629
X140.918Y-67.079
X142.368Y-64.179
X142.368Y-65.629
X142.368Y-67.079
T3
X129.31Y-31.821
X129.691Y-71.471
X129.818Y-73.985
X129.818Y-80.081
X130.072Y-31.821
X130.225Y-77.948
X130.275Y-65.324
X130.275Y-66.848
X130.326Y-60.168
X130.758Y-62.809
X130.758Y-64.333
X130.834Y-31.821
X130.936Y-61.489
X131.266Y-65.222
X131.266Y-66.34
X131.393Y-74.316
X131.596Y-31.821
X132.358Y-31.821
X132.447Y-67.911
X132.866Y-75.509
X132.866Y-77.033
X132.866Y-78.557
X132.866Y-80.081
X132.866Y-81.605
X133.12Y-31.821
X133.882Y-32.583
X133.882Y-33.345
X133.882Y-34.107
X134.172Y-84.045
X134.72Y-59.304
X135.406Y-43.505
X135.406Y-44.775
X135.406Y-46.045
X135.406Y-47.341
X135.838Y-55.774
X136.041Y-48.128
X136.244Y-59.304
X136.371Y-75.586
X136.371Y-76.195
X136.371Y-76.805
X136.371Y-77.414
X136.676Y-43.505
X136.676Y-44.775
X136.676Y-46.045
X136.676Y-47.341
X136.712Y-84.045
X136.778Y-60.498
X137.311Y-57.221
X137.946Y-55.189
X137.946Y-73.604
X138.607Y-58.517
X138.708Y-55.697
X139.216Y-53.107
X139.252Y-84.045
X139.47Y-56.459
X139.978Y-53.107
X140.232Y-56.078
X140.74Y-53.107
X140.74Y-73.35
X140.944Y-75.306
X140.944Y-75.916
X141.792Y-84.045
X143.064Y-58.243
X143.064Y-59.068
X143.992Y-75.586
X143.992Y-76.195
X143.992Y-76.805
X143.992Y-77.414
X144.296Y-84.045
X144.703Y-60.549
X145.058Y-69.008
X145.16Y-61.387
X145.312Y-49.855
X145.312Y-50.617
X145.312Y-51.379
X145.858Y-69.008
X145.998Y-49.5
X145.998Y-50.262
X145.998Y-51.024
X146.074Y-54.529
X146.074Y-55.291
X146.074Y-56.053
X146.074Y-71.953
X146.658Y-69.007
X146.836Y-84.045
X147.231Y-53.919
X147.231Y-57.756
X147.344Y-41.981
X147.344Y-45.029
X147.37Y-40.813
X147.37Y-41.397
X147.458Y-69.008
X147.496Y-60.549
X147.852Y-28.672
X148.134Y-59.558
X148.208Y-32.05
X148.284Y-65.349
X148.335Y-67.991
X148.36Y-64.384
X148.419Y-56.332
X148.519Y-34.946
X148.589Y-75.306
X148.589Y-75.916
X148.614Y-71.953
X149.376Y-28.672
X149.376Y-84.045
X150.062Y-68.499
X150.138Y-52.903
X150.926Y-51.633
X151.154Y-49.093
X151.154Y-50.363
X151.154Y-71.953
X151.612Y-40.61
X151.612Y-41.219
X151.612Y-41.829
X151.612Y-42.439
X151.612Y-43.048
X151.612Y-75.586
X151.612Y-76.195
X151.612Y-76.805
X151.612Y-77.414
X151.815Y-62.657
X151.916Y-84.045
X152.678Y-69.464
X152.704Y-48.306
X152.704Y-49.474
X152.937Y-50.482
X153.186Y-46.807
X153.44Y-62.835
X153.44Y-69.464
X153.593Y-50.846
X153.916Y-62.04
X153.999Y-60.346
X154.558Y-52.243
X154.609Y-73.046
X154.609Y-74.49
X154.71Y-84.045
X154.812Y-67.889
X154.812Y-68.651
X154.863Y-44.267
X154.984Y-50.242
X154.985Y-50.994
X155.218Y-70.429
X155.282Y-47.76
X155.472Y-67.127
X155.472Y-67.889
X155.955Y-74.49
X156.107Y-44.115
X156.209Y-75.306
X156.209Y-75.916
X156.234Y-38.933
X156.234Y-67.127
X156.234Y-67.889
X156.234Y-70.937
X156.666Y-49.347
X156.996Y-65.654
X156.996Y-66.365
X156.996Y-67.127
X156.996Y-67.889
X156.996Y-68.651
X156.996Y-70.429
X157.25Y-84.045
X157.453Y-50.084
X157.504Y-38.171
X157.52Y-50.957
X158.19Y-64.206
X158.214Y-60.092
X158.215Y-50.795
X158.266Y-44.064
X158.266Y-66.365
X158.276Y-49.34
X158.774Y-36.393
X158.977Y-51.557
X158.977Y-52.141
X159.231Y-44.064
X159.231Y-49.043
X159.231Y-75.586
X159.231Y-76.195
X159.231Y-76.805
X159.231Y-77.414
X159.384Y-60.498
X159.536Y-66.365
X159.79Y-84.045
X160.07Y-50.033
X160.527Y-51.887
X161.06Y-53.742
X161.263Y-45.69
X161.543Y-53.005
X161.556Y-44.102
X161.695Y-54.478
X162.041Y-62.076
X162.33Y-84.045
X162.635Y-62.606
X162.94Y-47.823
X163.677Y-34.285
X163.905Y-47.087
X163.905Y-55.951
X163.905Y-63.597
X164.174Y-72.472
X164.174Y-73.31
X164.286Y-35.377
X164.317Y-40.173
X164.317Y-41.011
X165.15Y-30.78
X165.251Y-80.081
X166.674Y-30.78
X166.775Y-80.081
T4
X165.086Y-32.482
X165.086Y-34.412
X165.086Y-36.343
X165.086Y-38.273
X165.086Y-72.868
X165.086Y-74.798
X165.086Y-76.729
X165.086Y-78.659
X165.112Y-40.559
X165.112Y-42.489
X165.112Y-44.42
X165.112Y-46.35
X165.112Y-48.636
X165.112Y-50.567
X165.112Y-52.497
X165.112Y-54.427
X165.112Y-56.713
X165.112Y-58.644
X165.112Y-60.574
X165.112Y-62.505
X165.112Y-64.791
X165.112Y-66.721
X165.112Y-68.651
X165.112Y-70.582
X165.632Y-32.177
X165.632Y-32.787
X165.632Y-34.107
X165.632Y-34.717
X165.632Y-36.038
X165.632Y-36.647
X165.632Y-37.968
X165.632Y-38.578
X165.632Y-72.563
X165.632Y-73.173
X165.632Y-74.493
X165.632Y-75.103
X165.632Y-76.424
X165.632Y-77.033
X165.632Y-78.354
X165.632Y-78.964
X165.658Y-40.254
X165.658Y-40.864
X165.658Y-42.185
X165.658Y-42.794
X165.658Y-44.115
X165.658Y-44.725
X165.658Y-46.045
X165.658Y-46.655
X165.658Y-48.331
X165.658Y-48.941
X165.658Y-50.262
X165.658Y-50.871
X165.658Y-52.192
X165.658Y-52.802
X165.658Y-54.123
X165.658Y-54.732
X165.658Y-56.409
X165.658Y-57.018
X165.658Y-58.339
X165.658Y-58.949
X165.658Y-60.269
X165.658Y-60.879
X165.658Y-62.2
X165.658Y-62.809
X165.658Y-64.486
X165.658Y-65.095
X165.658Y-66.416
X165.658Y-67.026
X165.658Y-68.347
X165.658Y-68.956
X165.658Y-70.277
X165.658Y-70.887
X166.445Y-32.482
X166.445Y-34.412
X166.445Y-36.343
X166.445Y-38.273
X166.445Y-72.868
X166.445Y-74.798
X166.445Y-76.729
X166.445Y-78.659
X166.47Y-40.559
X166.47Y-42.489
X166.47Y-44.42
X166.47Y-46.35
X166.47Y-48.636
X166.47Y-50.567
X166.47Y-52.497
X166.47Y-54.427
X166.47Y-56.713
X166.47Y-58.644
X166.47Y-60.574
X166.47Y-62.505
X166.47Y-64.791
X166.47Y-66.721
X166.47Y-68.651
X166.47Y-70.582
T6
X156.046Y-69.363
X158.546Y-69.363
T7
X130.809Y-40.051
X130.809Y-42.591
X130.809Y-45.131
X130.809Y-47.671
X130.809Y-50.211
X130.809Y-52.751
X130.809Y-55.291
X130.809Y-57.831
X133.349Y-40.051
X133.349Y-42.591
X133.349Y-45.131
X133.349Y-47.671
X133.349Y-50.211
X133.349Y-52.751
X133.349Y-55.291
X133.349Y-57.831
X134.492Y-80.005
X134.492Y-82.545
X135.732Y-28.463
X137.032Y-80.005
X137.032Y-82.545
X139.572Y-80.005
X139.572Y-82.545
X140.732Y-28.463
X142.112Y-80.005
X142.112Y-82.545
X144.652Y-80.005
X144.652Y-82.545
X147.192Y-80.005
X147.192Y-82.545
X149.732Y-80.005
X149.732Y-82.545
X152.272Y-80.005
X152.272Y-82.545
X154.812Y-80.005
X154.812Y-82.545
X156.332Y-28.463
X157.352Y-80.005
X157.352Y-82.545
X159.892Y-80.005
X159.892Y-82.545
X161.332Y-28.463
X162.432Y-80.005
X162.432Y-82.545
T8
X134.732Y-30.963
X141.732Y-30.963
X155.332Y-30.963
X162.332Y-30.963
T5
X144.142Y-28.887G85X144.142Y-28.287
G05
X144.142Y-33.317G85X144.142Y-32.217
G05
X152.782Y-28.887G85X152.782Y-28.287
G05
X152.782Y-33.317G85X152.782Y-32.217
G05
M30
