M48
; DRILL file {KiCad 9.0.7} date 2026-03-11T18:16:00+0530
; FORMAT={-:-/ absolute / metric / decimal}
; #@! TF.CreationDate,2026-03-11T18:16:00+05:30
; #@! TF.GenerationSoftware,Kicad,Pcbnew,9.0.7
; #@! TF.FileFunction,NonPlated,1,2,NPTH
FMAT,2
METRIC
; #@! TA.AperFunction,NonPlated,NPTH,ComponentDrill
T1C0.300
; #@! TA.AperFunction,NonPlated,NPTH,ComponentDrill
T2C0.650
; #@! TA.AperFunction,NonPlated,NPTH,ComponentDrill
T3C2.200
%
G90
G05
T1
X128.197Y-36.631
X128.197Y-37.232
X128.197Y-37.832
X128.197Y-38.432
X128.197Y-39.033
X128.197Y-48.463
X128.197Y-49.064
X128.197Y-49.664
X128.197Y-50.264
X128.197Y-50.865
X128.197Y-60.295
X128.197Y-60.896
X128.197Y-61.496
X128.197Y-62.096
X128.197Y-62.697
X128.197Y-72.127
X128.197Y-72.728
X128.197Y-73.328
X128.197Y-73.928
X128.197Y-74.529
X128.498Y-20.0
X128.498Y-20.667
X128.498Y-21.333
X128.498Y-22.0
X128.498Y-22.667
X128.498Y-23.333
X128.498Y-24.0
X128.498Y-87.16
X128.498Y-87.827
X128.498Y-88.493
X128.498Y-89.16
X128.498Y-89.827
X128.498Y-90.493
X128.498Y-91.16
X140.632Y-25.703
X140.632Y-85.443
X141.232Y-25.703
X141.232Y-85.443
X141.832Y-25.703
X141.832Y-85.443
X142.433Y-25.703
X142.433Y-85.444
X143.033Y-25.703
X143.033Y-85.444
X153.967Y-25.702
X153.967Y-85.452
X154.567Y-25.702
X154.567Y-85.452
X155.167Y-25.701
X155.167Y-85.452
X155.768Y-25.701
X155.768Y-85.453
X156.368Y-25.701
X156.368Y-85.453
X168.502Y-20.0
X168.502Y-20.667
X168.502Y-21.333
X168.502Y-22.0
X168.502Y-22.667
X168.502Y-23.333
X168.502Y-24.0
X168.502Y-87.16
X168.502Y-87.827
X168.502Y-88.493
X168.502Y-89.16
X168.502Y-89.827
X168.502Y-90.493
X168.502Y-91.16
X168.785Y-36.631
X168.785Y-37.232
X168.786Y-37.832
X168.786Y-38.432
X168.786Y-39.033
X168.79Y-48.463
X168.79Y-49.064
X168.79Y-49.664
X168.79Y-50.264
X168.79Y-50.865
X168.794Y-60.295
X168.794Y-60.896
X168.794Y-61.496
X168.795Y-62.096
X168.795Y-62.697
X168.798Y-72.127
X168.799Y-72.728
X168.799Y-73.328
X168.799Y-73.928
X168.799Y-74.529
T2
X145.572Y-32.267
X151.352Y-32.267
T3
X130.682Y-28.189
X130.682Y-82.952
X166.293Y-28.189
X166.293Y-82.952
M30
