%TF.GenerationSoftware,KiCad,Pcbnew,9.0.7*%
%TF.CreationDate,2026-03-11T18:15:50+05:30*%
%TF.ProjectId,dragonfly_v0-1_Ribs,64726167-6f6e-4666-9c79-5f76302d315f,rev?*%
%TF.SameCoordinates,Original*%
%TF.FileFunction,Soldermask,Bot*%
%TF.FilePolarity,Negative*%
%FSLAX46Y46*%
G04 Gerber Fmt 4.6, Leading zero omitted, Abs format (unit mm)*
G04 Created by KiCad (PCBNEW 9.0.7) date 2026-03-11 18:15:50*
%MOMM*%
%LPD*%
G01*
G04 APERTURE LIST*
G04 Aperture macros list*
%AMRoundRect*
0 Rectangle with rounded corners*
0 $1 Rounding radius*
0 $2 $3 $4 $5 $6 $7 $8 $9 X,Y pos of 4 corners*
0 Add a 4 corners polygon primitive as box body*
4,1,4,$2,$3,$4,$5,$6,$7,$8,$9,$2,$3,0*
0 Add four circle primitives for the rounded corners*
1,1,$1+$1,$2,$3*
1,1,$1+$1,$4,$5*
1,1,$1+$1,$6,$7*
1,1,$1+$1,$8,$9*
0 Add four rect primitives between the rounded corners*
20,1,$1+$1,$2,$3,$4,$5,0*
20,1,$1+$1,$4,$5,$6,$7,0*
20,1,$1+$1,$6,$7,$8,$9,0*
20,1,$1+$1,$8,$9,$2,$3,0*%
G04 Aperture macros list end*
%ADD10C,2.200000*%
%ADD11C,0.300000*%
%ADD12RoundRect,0.250000X0.900000X0.500000X-0.900000X0.500000X-0.900000X-0.500000X0.900000X-0.500000X0*%
%ADD13C,0.800000*%
%ADD14C,1.950000*%
%ADD15R,1.700000X1.700000*%
%ADD16C,1.700000*%
%ADD17C,0.650000*%
%ADD18O,1.000000X2.100000*%
%ADD19O,1.000000X1.600000*%
%ADD20C,1.600000*%
%ADD21RoundRect,0.250001X-1.074999X0.462499X-1.074999X-0.462499X1.074999X-0.462499X1.074999X0.462499X0*%
G04 APERTURE END LIST*
D10*
%TO.C,H4*%
X166292700Y-82951595D03*
%TD*%
D11*
%TO.C,KiKit_MB_10_2*%
X153966833Y-25701660D03*
%TD*%
%TO.C,KiKit_MB_2_6*%
X128197500Y-48463291D03*
%TD*%
%TO.C,KiKit_MB_7_5*%
X168794648Y-62096268D03*
%TD*%
%TO.C,KiKit_MB_16_6*%
X168502500Y-90493226D03*
%TD*%
%TO.C,KiKit_MB_12_2*%
X156368166Y-85453220D03*
%TD*%
%TO.C,KiKit_MB_13_5*%
X128497500Y-22666667D03*
%TD*%
%TO.C,KiKit_MB_3_6*%
X128197500Y-60295269D03*
%TD*%
D12*
%TO.C,J10*%
X165911700Y-56713395D03*
D13*
X165657700Y-56408595D03*
X165657700Y-57018195D03*
X166470500Y-56713395D03*
D12*
X165911700Y-58643795D03*
D13*
X165657700Y-58338995D03*
X165657700Y-58948595D03*
X166470500Y-58643795D03*
D12*
X165911700Y-60574195D03*
D13*
X165657700Y-60269395D03*
X165657700Y-60878995D03*
X166470500Y-60574195D03*
D12*
X165911700Y-62504595D03*
D13*
X165657700Y-62199795D03*
X165657700Y-62809395D03*
X166470500Y-62504595D03*
%TD*%
D11*
%TO.C,KiKit_MB_14_6*%
X168502500Y-23333334D03*
%TD*%
%TO.C,KiKit_MB_7_3*%
X168794196Y-60895602D03*
%TD*%
%TO.C,KiKit_MB_1_6*%
X128197500Y-36631312D03*
%TD*%
D14*
%TO.C,SW2*%
X162331900Y-30962795D03*
X155331900Y-30962795D03*
D15*
X161331900Y-28462795D03*
D16*
X156331900Y-28462795D03*
%TD*%
D11*
%TO.C,KiKit_MB_4_2*%
X128197500Y-74528581D03*
%TD*%
%TO.C,KiKit_MB_3_5*%
X128197500Y-60895602D03*
%TD*%
%TO.C,KiKit_MB_4_5*%
X128197500Y-72727581D03*
%TD*%
D12*
%TO.C,J8*%
X165911700Y-40558995D03*
D13*
X165657700Y-40254195D03*
X165657700Y-40863795D03*
X166470500Y-40558995D03*
D12*
X165911700Y-42489395D03*
D13*
X165657700Y-42184595D03*
X165657700Y-42794195D03*
X166470500Y-42489395D03*
D12*
X165911700Y-44419795D03*
D13*
X165657700Y-44114995D03*
X165657700Y-44724595D03*
X166470500Y-44419795D03*
D12*
X165911700Y-46350195D03*
D13*
X165657700Y-46045395D03*
X165657700Y-46654995D03*
X166470500Y-46350195D03*
%TD*%
D11*
%TO.C,KiKit_MB_10_6*%
X156368166Y-25701337D03*
%TD*%
%TO.C,KiKit_MB_13_6*%
X128497500Y-23333334D03*
%TD*%
%TO.C,KiKit_MB_10_4*%
X155167499Y-25701498D03*
%TD*%
%TO.C,KiKit_MB_15_3*%
X128497500Y-88493226D03*
%TD*%
%TO.C,KiKit_MB_8_4*%
X168798871Y-73327914D03*
%TD*%
%TO.C,KiKit_MB_16_1*%
X168502500Y-87159893D03*
%TD*%
%TO.C,KiKit_MB_10_3*%
X154567166Y-25701579D03*
%TD*%
%TO.C,KiKit_MB_1_2*%
X128197500Y-39032645D03*
%TD*%
%TO.C,KiKit_MB_11_4*%
X141832500Y-85443472D03*
%TD*%
%TO.C,KiKit_MB_4_4*%
X128197500Y-73327914D03*
%TD*%
%TO.C,KiKit_MB_3_4*%
X128197500Y-61495935D03*
%TD*%
%TO.C,KiKit_MB_8_6*%
X168799323Y-74528581D03*
%TD*%
%TO.C,KiKit_MB_4_6*%
X128197500Y-72127248D03*
%TD*%
%TO.C,KiKit_MB_11_2*%
X143033167Y-85444278D03*
%TD*%
%TO.C,KiKit_MB_9_2*%
X140631834Y-25703456D03*
%TD*%
%TO.C,KiKit_MB_6_6*%
X168790424Y-50864624D03*
%TD*%
%TO.C,KiKit_MB_11_5*%
X141232167Y-85443070D03*
%TD*%
%TO.C,KiKit_MB_9_4*%
X141832500Y-25703294D03*
%TD*%
D12*
%TO.C,J9*%
X165911700Y-48636195D03*
D13*
X165657700Y-48331395D03*
X165657700Y-48940995D03*
X166470500Y-48636195D03*
D12*
X165911700Y-50566595D03*
D13*
X165657700Y-50261795D03*
X165657700Y-50871395D03*
X166470500Y-50566595D03*
D12*
X165911700Y-52496995D03*
D13*
X165657700Y-52192195D03*
X165657700Y-52801795D03*
X166470500Y-52496995D03*
D12*
X165911700Y-54427395D03*
D13*
X165657700Y-54122595D03*
X165657700Y-54732195D03*
X166470500Y-54427395D03*
%TD*%
D11*
%TO.C,KiKit_MB_1_5*%
X128197500Y-37231645D03*
%TD*%
%TO.C,KiKit_MB_7_4*%
X168794422Y-61495935D03*
%TD*%
%TO.C,KiKit_MB_16_3*%
X168502500Y-88493226D03*
%TD*%
%TO.C,KiKit_MB_8_5*%
X168799097Y-73928247D03*
%TD*%
%TO.C,KiKit_MB_11_3*%
X142432834Y-85443875D03*
%TD*%
%TO.C,KiKit_MB_13_1*%
X128497500Y-20000000D03*
%TD*%
%TO.C,KiKit_MB_3_2*%
X128197500Y-62696602D03*
%TD*%
%TO.C,KiKit_MB_14_2*%
X168502500Y-20666667D03*
%TD*%
D15*
%TO.C,J16*%
X154811900Y-80005195D03*
D16*
X154811900Y-82545195D03*
X152271900Y-80005195D03*
X152271900Y-82545195D03*
X149731900Y-80005195D03*
X149731900Y-82545195D03*
%TD*%
D11*
%TO.C,KiKit_MB_6_3*%
X168789747Y-49063624D03*
%TD*%
%TO.C,KiKit_MB_16_4*%
X168502500Y-89159893D03*
%TD*%
%TO.C,KiKit_MB_14_4*%
X168502500Y-22000000D03*
%TD*%
%TO.C,KiKit_MB_2_3*%
X128197500Y-50264291D03*
%TD*%
D17*
%TO.C,J1*%
X151351900Y-32267395D03*
X145571900Y-32267395D03*
D18*
X152781900Y-32767395D03*
D19*
X152781900Y-28587395D03*
D18*
X144141900Y-32767395D03*
D19*
X144141900Y-28587395D03*
%TD*%
D15*
%TO.C,J17*%
X162431900Y-80005195D03*
D16*
X162431900Y-82545195D03*
X159891900Y-80005195D03*
X159891900Y-82545195D03*
X157351900Y-80005195D03*
X157351900Y-82545195D03*
%TD*%
D14*
%TO.C,SW1*%
X141732500Y-30962795D03*
X134732500Y-30962795D03*
D15*
X140732500Y-28462795D03*
D16*
X135732500Y-28462795D03*
%TD*%
D12*
%TO.C,J12*%
X165886300Y-72867795D03*
D13*
X165632300Y-72562995D03*
X165632300Y-73172595D03*
X166445100Y-72867795D03*
D12*
X165886300Y-74798195D03*
D13*
X165632300Y-74493395D03*
X165632300Y-75102995D03*
X166445100Y-74798195D03*
D12*
X165886300Y-76728595D03*
D13*
X165632300Y-76423795D03*
X165632300Y-77033395D03*
X166445100Y-76728595D03*
D12*
X165886300Y-78658995D03*
D13*
X165632300Y-78354195D03*
X165632300Y-78963795D03*
X166445100Y-78658995D03*
%TD*%
D11*
%TO.C,KiKit_MB_10_5*%
X155767833Y-25701417D03*
%TD*%
%TO.C,KiKit_MB_7_6*%
X168794873Y-62696602D03*
%TD*%
%TO.C,KiKit_MB_8_3*%
X168798645Y-72727581D03*
%TD*%
%TO.C,KiKit_MB_12_5*%
X154567166Y-85452013D03*
%TD*%
%TO.C,KiKit_MB_9_6*%
X143033167Y-25703132D03*
%TD*%
%TO.C,KiKit_MB_4_3*%
X128197500Y-73928247D03*
%TD*%
%TO.C,KiKit_MB_12_4*%
X155167499Y-85452415D03*
%TD*%
%TO.C,KiKit_MB_6_2*%
X168789521Y-48463291D03*
%TD*%
%TO.C,KiKit_MB_13_3*%
X128497500Y-21333334D03*
%TD*%
D15*
%TO.C,J14*%
X139571900Y-80005195D03*
D16*
X139571900Y-82545195D03*
X137031900Y-80005195D03*
X137031900Y-82545195D03*
X134491900Y-80005195D03*
X134491900Y-82545195D03*
%TD*%
D11*
%TO.C,KiKit_MB_1_4*%
X128197500Y-37831978D03*
%TD*%
D10*
%TO.C,H1*%
X130681900Y-28189195D03*
%TD*%
D11*
%TO.C,KiKit_MB_15_4*%
X128497500Y-89159893D03*
%TD*%
%TO.C,KiKit_MB_5_5*%
X168785749Y-38432312D03*
%TD*%
%TO.C,KiKit_MB_11_6*%
X140631834Y-85442667D03*
%TD*%
%TO.C,KiKit_MB_13_4*%
X128497500Y-22000000D03*
%TD*%
%TO.C,KiKit_MB_5_3*%
X168785298Y-37231645D03*
%TD*%
%TO.C,KiKit_MB_16_2*%
X168502500Y-87826559D03*
%TD*%
D15*
%TO.C,J6*%
X133348900Y-40050995D03*
D16*
X130808900Y-40050995D03*
X133348900Y-42590995D03*
X130808900Y-42590995D03*
X133348900Y-45130995D03*
X130808900Y-45130995D03*
X133348900Y-47670995D03*
X130808900Y-47670995D03*
X133348900Y-50210995D03*
X130808900Y-50210995D03*
X133348900Y-52750995D03*
X130808900Y-52750995D03*
X133348900Y-55290995D03*
X130808900Y-55290995D03*
X133348900Y-57830995D03*
X130808900Y-57830995D03*
%TD*%
D11*
%TO.C,KiKit_MB_16_5*%
X168502500Y-89826559D03*
%TD*%
%TO.C,KiKit_MB_9_3*%
X141232167Y-25703375D03*
%TD*%
%TO.C,KiKit_MB_15_5*%
X128497500Y-89826559D03*
%TD*%
%TO.C,KiKit_MB_2_5*%
X128197500Y-49063624D03*
%TD*%
%TO.C,KiKit_MB_14_3*%
X168502500Y-21333334D03*
%TD*%
D12*
%TO.C,J3*%
X165886300Y-32481795D03*
D13*
X165632300Y-32176995D03*
X165632300Y-32786595D03*
X166445100Y-32481795D03*
D12*
X165886300Y-34412195D03*
D13*
X165632300Y-34107395D03*
X165632300Y-34716995D03*
X166445100Y-34412195D03*
D12*
X165886300Y-36342595D03*
D13*
X165632300Y-36037795D03*
X165632300Y-36647395D03*
X166445100Y-36342595D03*
D12*
X165886300Y-38272995D03*
D13*
X165632300Y-37968195D03*
X165632300Y-38577795D03*
X166445100Y-38272995D03*
%TD*%
D11*
%TO.C,KiKit_MB_1_3*%
X128197500Y-38432312D03*
%TD*%
%TO.C,KiKit_MB_15_6*%
X128497500Y-90493226D03*
%TD*%
%TO.C,KiKit_MB_3_3*%
X128197500Y-62096268D03*
%TD*%
%TO.C,KiKit_MB_2_4*%
X128197500Y-49663957D03*
%TD*%
%TO.C,KiKit_MB_14_7*%
X168502500Y-24000000D03*
%TD*%
%TO.C,KiKit_MB_8_2*%
X168798420Y-72127248D03*
%TD*%
%TO.C,KiKit_MB_6_5*%
X168790198Y-50264291D03*
%TD*%
%TO.C,KiKit_MB_5_6*%
X168785975Y-39032645D03*
%TD*%
%TO.C,KiKit_MB_15_1*%
X128497500Y-87159893D03*
%TD*%
%TO.C,KiKit_MB_13_2*%
X128497500Y-20666667D03*
%TD*%
%TO.C,KiKit_MB_14_5*%
X168502500Y-22666667D03*
%TD*%
%TO.C,KiKit_MB_15_2*%
X128497500Y-87826559D03*
%TD*%
%TO.C,KiKit_MB_6_4*%
X168789973Y-49663957D03*
%TD*%
%TO.C,KiKit_MB_2_2*%
X128197500Y-50864624D03*
%TD*%
%TO.C,KiKit_MB_13_7*%
X128497500Y-24000000D03*
%TD*%
%TO.C,KiKit_MB_15_7*%
X128497500Y-91159893D03*
%TD*%
%TO.C,KiKit_MB_12_6*%
X153966833Y-85451610D03*
%TD*%
%TO.C,KiKit_MB_14_1*%
X168502500Y-20000000D03*
%TD*%
D12*
%TO.C,J11*%
X165911700Y-64790595D03*
D13*
X165657700Y-64485795D03*
X165657700Y-65095395D03*
X166470500Y-64790595D03*
D12*
X165911700Y-66720995D03*
D13*
X165657700Y-66416195D03*
X165657700Y-67025795D03*
X166470500Y-66720995D03*
D12*
X165911700Y-68651395D03*
D13*
X165657700Y-68346595D03*
X165657700Y-68956195D03*
X166470500Y-68651395D03*
D12*
X165911700Y-70581795D03*
D13*
X165657700Y-70276995D03*
X165657700Y-70886595D03*
X166470500Y-70581795D03*
%TD*%
D10*
%TO.C,H2*%
X166292700Y-28189195D03*
%TD*%
%TO.C,H3*%
X130681900Y-82951595D03*
%TD*%
D11*
%TO.C,KiKit_MB_5_4*%
X168785523Y-37831978D03*
%TD*%
D20*
%TO.C,C33*%
X158545700Y-69362595D03*
X156045700Y-69362595D03*
%TD*%
D11*
%TO.C,KiKit_MB_16_7*%
X168502500Y-91159893D03*
%TD*%
D15*
%TO.C,J15*%
X147191900Y-80005195D03*
D16*
X147191900Y-82545195D03*
X144651900Y-80005195D03*
X144651900Y-82545195D03*
X142111900Y-80005195D03*
X142111900Y-82545195D03*
%TD*%
D11*
%TO.C,KiKit_MB_7_2*%
X168793970Y-60295269D03*
%TD*%
%TO.C,KiKit_MB_5_2*%
X168785072Y-36631312D03*
%TD*%
%TO.C,KiKit_MB_12_3*%
X155767833Y-85452818D03*
%TD*%
%TO.C,KiKit_MB_9_5*%
X142432834Y-25703213D03*
%TD*%
D21*
%TO.C,L3*%
X160806300Y-70364295D03*
X160806300Y-73339295D03*
%TD*%
M02*
